<svg xmlns="http://www.w3.org/2000/svg" xmlns:xlink="http://www.w3.org/1999/xlink" width="1140" zoomAndPan="magnify" viewBox="308.003906 227.507812 237.87500000000006 215.73828200000003" height="892" preserveAspectRatio="xMidYMid meet" version="1.0"><path fill="#229c30" d="M 343.539062 241.261719 C 341.738281 244.019531 341.742188 245.292969 343.589844 255.449219 C 344.707031 261.585938 345.90625 267.601562 346.257812 268.816406 C 346.800781 270.703125 346.007812 271.023438 340.792969 271.023438 C 337.308594 271.023438 333.488281 271.863281 331.890625 272.984375 C 329.203125 274.871094 329.089844 275.726562 329.089844 294.394531 C 329.089844 317.507812 328.480469 316.628906 346.074219 318.910156 C 352.300781 319.71875 357.601562 320.585938 357.855469 320.84375 C 359.183594 322.167969 345.925781 342.34375 335.925781 354.21875 C 323.234375 369.292969 320.496094 374.085938 319.429688 383.085938 C 318.003906 395.140625 323.914062 405.675781 336.972656 414.367188 C 346.988281 421.035156 360.113281 426.464844 371.6875 428.722656 C 378.039062 429.964844 381.078125 429.957031 386.75 428.6875 C 392.851562 427.320312 394.949219 425.996094 401.5625 419.363281 C 413.695312 407.1875 416.738281 393.476562 410.351562 379.742188 C 407.191406 372.949219 397.542969 362.449219 390.777344 358.449219 C 388.714844 357.230469 387.027344 355.664062 387.027344 354.972656 C 387.027344 354.277344 389.238281 349.4375 391.941406 344.210938 C 394.644531 338.984375 397.585938 332.234375 398.476562 329.214844 C 399.371094 326.195312 400.699219 323.546875 401.433594 323.328125 C 402.171875 323.113281 413.996094 322.636719 427.710938 322.269531 C 450.40625 321.667969 452.710938 321.800781 453.285156 323.742188 C 453.632812 324.917969 457.035156 332.328125 460.84375 340.210938 C 464.648438 348.09375 467.59375 354.671875 467.386719 354.828125 C 467.175781 354.984375 463.839844 357.421875 459.96875 360.246094 C 451.5 366.421875 447.152344 371.417969 442.859375 379.902344 C 440.019531 385.511719 439.699219 387.433594 440.1875 395.882812 C 440.65625 404.027344 441.332031 406.34375 444.605469 411.109375 C 450.054688 419.039062 458.820312 426.785156 464.460938 428.648438 C 478.378906 433.246094 508.246094 423.355469 522.839844 409.316406 C 532.789062 399.742188 535.878906 390.292969 532.667969 379.242188 C 530.261719 370.960938 526.0625 364.503906 513.613281 349.96875 C 504.902344 339.789062 498.398438 329.351562 496.050781 321.78125 C 495.246094 319.171875 495.570312 318.941406 500.066406 318.941406 C 506.628906 318.941406 519.523438 316.5 521.476562 314.886719 C 523.429688 313.277344 523.703125 278.378906 521.789062 274.800781 C 520.972656 273.269531 518.476562 272.128906 514.703125 271.5625 L 508.878906 270.6875 L 509.90625 261.082031 C 512.277344 238.863281 512.410156 239.011719 489.285156 238.433594 C 466.664062 237.875 467.15625 237.507812 463.144531 257.832031 C 461.507812 266.128906 460.148438 273.347656 460.121094 273.882812 C 460.097656 274.410156 445.207031 274.695312 427.03125 274.511719 L 393.984375 274.175781 L 393.085938 267.871094 C 390.351562 248.695312 389.167969 244.046875 386.308594 241.179688 C 383.484375 238.355469 382.59375 238.234375 364.445312 238.234375 C 345.859375 238.234375 345.488281 238.289062 343.539062 241.261719 M 355.976562 254.3125 C 356.375 256.222656 357.339844 261.257812 358.113281 265.503906 L 359.523438 273.230469 L 365.265625 274.015625 C 371.277344 274.84375 381.988281 275.089844 381.988281 274.40625 C 381.988281 274.1875 381.414062 270.640625 380.710938 266.523438 C 380.007812 262.410156 379.128906 257.199219 378.761719 254.945312 L 378.097656 250.84375 L 355.246094 250.84375 Z M 474.851562 262.464844 C 473.71875 268.855469 473.035156 274.328125 473.328125 274.621094 C 473.625 274.917969 478.53125 274.652344 484.234375 274.035156 L 494.601562 272.914062 L 496.152344 264.71875 C 498.929688 250.054688 499.429688 250.84375 487.382812 250.84375 L 476.90625 250.84375 Z M 341.6875 295.4375 C 341.6875 304.832031 341.980469 306.332031 343.820312 306.332031 C 344.992188 306.332031 353.636719 306.871094 363.027344 307.527344 C 372.417969 308.1875 385.910156 309.015625 393.011719 309.367188 L 405.921875 310.007812 L 405.921875 287.8125 L 384.339844 286.960938 C 372.46875 286.496094 358.019531 285.757812 352.222656 285.328125 L 341.6875 284.542969 Z M 473.617188 286.546875 L 447.484375 287.765625 L 447.484375 308.855469 L 458.503906 308.835938 C 469.386719 308.816406 494.117188 307.128906 505.734375 305.613281 L 511.714844 304.832031 L 511.714844 284.894531 L 505.734375 285.113281 C 502.441406 285.234375 487.992188 285.878906 473.617188 286.546875 M 417.253906 298.765625 L 417.253906 310.117188 L 436.148438 310.117188 L 436.148438 287.417969 L 417.253906 287.417969 Z M 369.839844 322.410156 C 369.433594 323.625 367.460938 328.25 365.449219 332.6875 C 363.4375 337.125 361.957031 340.921875 362.15625 341.121094 C 362.90625 341.871094 374.6875 346.6875 375.777344 346.6875 C 377.046875 346.6875 382.015625 337.308594 385.699219 327.949219 L 388.132812 321.769531 L 383.484375 321 C 374.992188 319.59375 370.628906 320.046875 369.839844 322.410156 M 468.472656 321.296875 L 464.902344 322.09375 L 471.347656 334.976562 C 477.53125 347.332031 477.917969 347.804688 480.910156 346.667969 C 486.546875 344.519531 491.730469 341.507812 491.332031 340.617188 C 491.113281 340.132812 488.789062 335.339844 486.164062 329.972656 C 481.449219 320.320312 481.335938 320.207031 476.71875 320.351562 C 474.148438 320.433594 470.4375 320.859375 468.472656 321.296875 M 346.09375 361.839844 C 332.195312 377.773438 329.238281 385.09375 333.417969 393.183594 C 337.214844 400.539062 338.523438 400.410156 343.511719 392.191406 C 348.0625 384.691406 359.328125 369.707031 365.121094 363.445312 C 366.78125 361.652344 368.136719 359.796875 368.136719 359.3125 C 368.136719 358.558594 356.640625 351.730469 355.367188 351.730469 C 355.113281 351.730469 350.941406 356.277344 346.09375 361.839844 M 491.878906 354.578125 C 488.933594 356.058594 486.53125 357.871094 486.539062 358.601562 C 486.546875 359.328125 491.121094 366.453125 496.707031 374.429688 C 502.292969 382.40625 508.378906 391.628906 510.234375 394.921875 C 512.089844 398.214844 513.902344 400.910156 514.269531 400.910156 C 514.632812 400.914062 516.476562 398.527344 518.363281 395.617188 C 522.585938 389.09375 522.777344 382.980469 518.953125 376.78125 C 514.597656 369.726562 499.90625 351.828125 498.492188 351.859375 C 497.800781 351.875 494.824219 353.097656 491.878906 354.578125 M 372.859375 373.132812 C 369.570312 377.265625 366.875 380.921875 366.875 381.253906 C 366.875 381.589844 370.132812 384.019531 374.109375 386.660156 C 378.089844 389.296875 384.558594 394.71875 388.484375 398.707031 C 392.414062 402.691406 395.992188 405.957031 396.4375 405.957031 C 396.878906 405.957031 398.371094 403.410156 399.746094 400.296875 C 402.757812 393.484375 401.707031 387.78125 395.996094 379.886719 C 393.035156 375.792969 381.082031 365.574219 379.300781 365.613281 C 379.050781 365.617188 376.148438 369.003906 372.859375 373.132812 M 466.226562 371.167969 C 454.425781 380.441406 450.019531 389.082031 452.460938 398.160156 C 454.769531 406.75 456.785156 407.21875 463.605469 400.761719 C 471.066406 393.691406 478.414062 388.042969 483.738281 385.289062 L 487.878906 383.144531 L 485.082031 379.101562 C 480.097656 371.890625 475 365.601562 474.140625 365.605469 C 473.679688 365.605469 470.117188 368.105469 466.226562 371.167969 M 355.28125 396.8125 C 348.523438 407.074219 348.527344 406.828125 355.125 409.839844 C 365.695312 414.65625 371.019531 416.109375 378.535156 416.214844 C 382.59375 416.273438 386.210938 416.023438 386.570312 415.664062 C 388.371094 413.859375 363.507812 392.085938 359.648438 392.085938 C 358.957031 392.085938 356.992188 394.214844 355.28125 396.8125 M 485.824219 398.230469 C 476.078125 404.667969 467.632812 412.65625 467.632812 415.441406 C 467.632812 417.386719 468.582031 417.566406 475.507812 416.953125 C 483.382812 416.257812 498.34375 411.910156 501.347656 409.445312 C 502.601562 408.414062 502.230469 406.898438 499.609375 402.320312 C 494.070312 392.628906 494.226562 392.675781 485.824219 398.230469 " fill-opacity="1" fill-rule="evenodd"/></svg>