<svg xmlns="http://www.w3.org/2000/svg" xmlns:xlink="http://www.w3.org/1999/xlink" width="1140" zoomAndPan="magnify" viewBox="364.238281 211.550781 121.16406300000006 235.003907" height="892" preserveAspectRatio="xMidYMid meet" version="1.0"><path fill="#229c30" d="M 414.324219 223.347656 C 401.292969 226.640625 387.78125 237.898438 382.363281 249.980469 C 374.238281 268.101562 375.117188 285.113281 385.503906 310.679688 C 386.945312 314.234375 386.824219 315.03125 384.355469 318.171875 C 381.152344 322.25 380.75 327.972656 383.507812 330.261719 C 385.191406 331.660156 385.101562 332.367188 382.734375 336.195312 L 380.050781 340.542969 L 383.445312 345.679688 L 386.839844 350.8125 L 383.097656 359.949219 C 374.863281 380.046875 374.433594 394.1875 381.613281 408.785156 C 386.96875 419.667969 394.785156 427.433594 405.503906 432.519531 C 413.253906 436.191406 415.125 436.554688 426.113281 436.511719 C 436.695312 436.472656 439.109375 436.023438 445.546875 432.902344 C 454.792969 428.417969 463.984375 419.15625 468.691406 409.578125 C 475.402344 395.9375 474.601562 377.417969 466.515625 359.28125 L 462.714844 350.75 L 465.398438 347.335938 C 468.621094 343.234375 468.855469 338.3125 465.980469 335.132812 C 464.023438 332.964844 464.023438 332.640625 465.980469 330.472656 C 468.90625 327.242188 468.617188 324.15625 464.886719 318.769531 L 461.6875 314.148438 L 465.378906 305.96875 C 471.65625 292.0625 473.550781 283.257812 472.953125 270.753906 C 472.515625 261.542969 471.703125 258.03125 468.398438 250.953125 C 462.96875 239.34375 453.28125 229.71875 443.246094 225.960938 C 434.652344 222.742188 421.453125 221.550781 414.324219 223.347656 M 410.128906 235.257812 C 400.703125 239.648438 395.160156 245.140625 391.042969 254.15625 C 384.625 268.210938 385.40625 286.75 393.183594 304.847656 C 395.539062 310.324219 396.382812 311.160156 399.558594 311.160156 C 401.570312 311.160156 403.207031 310.730469 403.195312 310.207031 C 403.183594 309.679688 401.4375 303.808594 399.316406 297.15625 C 391.933594 273.996094 392.996094 261.855469 403.304688 251.539062 C 410.394531 244.4375 416.269531 241.957031 426.113281 241.898438 C 435.367188 241.84375 439.953125 243.734375 446.519531 250.304688 C 458.152344 261.949219 458.238281 279.742188 446.800781 309.5625 C 446.414062 310.574219 447.332031 311.160156 449.304688 311.160156 C 451.949219 311.160156 453.121094 309.660156 457.03125 301.292969 C 467.820312 278.210938 466.332031 259.175781 452.566406 244.167969 C 444.957031 235.871094 436.730469 232.253906 425.476562 232.253906 C 418.789062 232.253906 414.96875 233.003906 410.128906 235.257812 M 416.507812 253.117188 C 408.332031 256.679688 402.28125 267.800781 403.753906 276.550781 C 404.1875 279.132812 406.632812 287.972656 409.191406 296.203125 C 413.636719 310.507812 413.988281 311.160156 417.3125 311.160156 C 421.359375 311.160156 421.492188 312.359375 415.136719 291.035156 C 412.777344 283.117188 410.847656 275.261719 410.847656 273.574219 C 410.847656 269.796875 417.1875 262.355469 422.160156 260.292969 C 426.882812 258.335938 432.695312 261.0625 436.421875 266.984375 C 439.644531 272.097656 439.121094 279.140625 434.324219 295.246094 C 432.445312 301.546875 430.621094 307.707031 430.269531 308.933594 C 429.78125 310.632812 430.386719 311.160156 432.839844 311.160156 C 435.710938 311.160156 436.457031 310.023438 439.976562 300.285156 C 445.636719 284.628906 446.851562 278.917969 446.191406 270.984375 C 444.929688 255.777344 430.429688 247.046875 416.507812 253.117188 M 423.117188 271.054688 C 420.496094 273.675781 420.566406 278.019531 423.375 286.972656 L 425.574219 293.972656 L 427.792969 283.871094 C 429.949219 274.066406 429.945312 273.691406 427.613281 271.359375 C 425.386719 269.128906 425.0625 269.105469 423.117188 271.054688 M 392.621094 322.382812 C 388.308594 327.148438 391.710938 327.710938 425.019531 327.710938 C 445.871094 327.710938 456.769531 327.253906 457.324219 326.355469 C 457.785156 325.613281 457.15625 323.894531 455.929688 322.539062 C 453.847656 320.234375 451.765625 320.070312 424.203125 320.070312 C 397.332031 320.070312 394.519531 320.277344 392.621094 322.382812 M 391.082031 339.25 C 390.625 339.992188 391.25 341.710938 392.476562 343.066406 C 394.5625 345.371094 396.640625 345.535156 424.179688 345.535156 C 453.378906 345.535156 453.675781 345.503906 456.429688 342.574219 C 457.957031 340.949219 458.820312 339.230469 458.34375 338.753906 C 456.859375 337.265625 392.015625 337.742188 391.082031 339.25 M 393.757812 359.21875 C 386.394531 374.503906 384.566406 389.421875 388.570312 401.488281 C 391.015625 408.863281 398.839844 418.191406 406.203125 422.507812 C 421.28125 431.347656 442.597656 427.828125 454.226562 414.574219 C 461.402344 406.390625 463.640625 399.785156 463.59375 386.910156 C 463.554688 376.6875 463.074219 374.351562 459.132812 365.265625 C 455.214844 356.238281 454.296875 355.035156 451.050781 354.660156 C 448.257812 354.34375 447.554688 354.683594 448.097656 356.105469 C 450.488281 362.339844 454.230469 376.03125 455.433594 382.9375 C 457.234375 393.28125 455.683594 399.308594 449.078125 407.671875 C 437.1875 422.726562 418.265625 423.582031 403.996094 409.714844 C 393.035156 399.058594 391.75 389.011719 398.632812 367.773438 L 402.949219 354.445312 L 399.503906 354.445312 C 396.777344 354.445312 395.574219 355.441406 393.757812 359.21875 M 412.308594 356.671875 C 409.652344 361.726562 403.214844 384.078125 403.214844 388.261719 C 403.214844 394.042969 405.761719 398.898438 411.398438 403.847656 C 421.507812 412.730469 432.0625 412.152344 441.214844 402.210938 C 445.996094 397.019531 446.460938 395.914062 446.433594 389.800781 C 446.414062 385.902344 444.613281 377.21875 442.136719 369.085938 C 437.976562 355.40625 437.78125 355.074219 433.910156 354.683594 C 431.085938 354.398438 430.105469 354.765625 430.496094 355.957031 C 440.386719 385.945312 440.847656 390.601562 434.464844 396.210938 C 432.0625 398.324219 428.941406 400.417969 427.53125 400.867188 C 424.917969 401.695312 418.40625 399.03125 414.347656 395.46875 C 409.996094 391.652344 412.386719 376.300781 420.386719 356.671875 C 421.136719 354.835938 420.609375 354.445312 417.386719 354.445312 C 414.960938 354.445312 413.039062 355.289062 412.308594 356.671875 M 423.039062 378.28125 C 421.742188 382.570312 421.027344 386.996094 421.457031 388.117188 C 422.695312 391.34375 426.039062 391.945312 428.003906 389.296875 C 429.78125 386.90625 429.652344 385.421875 426.832031 375.511719 L 425.398438 370.480469 Z M 423.039062 378.28125 " fill-opacity="1" fill-rule="evenodd"/></svg>