<svg xmlns="http://www.w3.org/2000/svg" xmlns:xlink="http://www.w3.org/1999/xlink" width="1140" zoomAndPan="magnify" viewBox="289.546875 228.472656 274.60156300000006 228.730469" height="892" preserveAspectRatio="xMidYMid meet" version="1.0"><path fill="#229c30" d="M 513.402344 238.757812 C 512.492188 238.875 511.457031 239.128906 511.101562 239.316406 C 510.746094 239.507812 510.128906 239.664062 509.734375 239.664062 C 509.335938 239.664062 508.78125 239.917969 508.5 240.230469 C 508.21875 240.539062 507.617188 240.867188 507.164062 240.957031 C 506.636719 241.0625 505.3125 242.179688 503.507812 244.03125 C 499.320312 248.332031 498.234375 249.253906 497.339844 249.257812 C 497.035156 249.257812 496.382812 249.527344 495.886719 249.855469 C 495.394531 250.183594 494.707031 250.449219 494.359375 250.453125 C 494.015625 250.453125 493.488281 250.722656 493.191406 251.054688 C 492.425781 251.902344 491.542969 251.839844 491.542969 250.9375 C 491.542969 250.542969 491.34375 249.835938 491.097656 249.363281 C 490.851562 248.890625 490.648438 248.03125 490.648438 247.453125 C 490.644531 246.871094 490.375 245.894531 490.046875 245.28125 C 489.714844 244.664062 489.445312 243.902344 489.445312 243.585938 C 489.445312 242.449219 489.105469 242.0625 488.101562 242.0625 C 487.566406 242.0625 486.949219 242.273438 486.738281 242.527344 C 486.523438 242.785156 485.933594 243.171875 485.425781 243.386719 C 483.511719 244.199219 478.621094 249.074219 477.734375 251.054688 C 477.042969 252.589844 477.046875 255.597656 477.746094 257.945312 C 478.109375 259.167969 478.089844 259.421875 477.546875 260.644531 C 477.214844 261.386719 476.855469 262.375 476.746094 262.839844 C 476.578125 263.542969 472.3125 268.046875 469.601562 270.382812 C 468.71875 271.144531 467.878906 270.960938 467.878906 270.011719 C 467.875 269.558594 467.609375 268.78125 467.28125 268.285156 C 466.953125 267.792969 466.683594 266.984375 466.679688 266.488281 C 466.679688 265.996094 466.410156 265.183594 466.082031 264.691406 C 465.753906 264.195312 465.484375 263.5625 465.484375 263.28125 C 465.480469 262.097656 463.765625 262.027344 462.589844 263.164062 C 462.234375 263.511719 461.726562 263.96875 461.457031 264.1875 C 458.414062 266.660156 457.261719 267.785156 456.308594 269.222656 L 455.183594 270.921875 L 455.21875 276.183594 C 455.253906 280.691406 455.179688 281.621094 454.710938 282.660156 C 454.410156 283.328125 454.113281 284.136719 454.054688 284.457031 C 453.996094 284.78125 452.800781 285.972656 451.402344 287.105469 C 450.003906 288.238281 448.371094 289.625 447.773438 290.1875 C 447.179688 290.753906 446.617188 291.214844 446.527344 291.214844 C 446.335938 291.214844 445.117188 288.757812 445.105469 288.347656 C 445.101562 288.195312 444.835938 287.730469 444.515625 287.320312 C 444.191406 286.90625 443.925781 286.355469 443.921875 286.09375 C 443.917969 285.828125 443.644531 285.371094 443.316406 285.070312 C 442.988281 284.773438 442.71875 284.320312 442.71875 284.066406 C 442.71875 283.417969 441.214844 281.925781 440.5625 281.925781 C 440.265625 281.925781 440.019531 282.070312 440.019531 282.25 C 440.019531 282.429688 439.234375 283.40625 438.273438 284.421875 C 437.3125 285.4375 435.816406 287.136719 434.949219 288.195312 C 434.082031 289.25 433.183594 290.308594 432.953125 290.539062 C 432.722656 290.769531 432.527344 291.253906 432.523438 291.613281 C 432.519531 291.972656 432.316406 292.527344 432.074219 292.847656 C 431.503906 293.601562 431.507812 296.265625 432.082031 298.410156 C 432.671875 300.601562 432.632812 301.90625 431.933594 303.355469 C 431.613281 304.015625 431.351562 304.699219 431.34375 304.878906 C 431.339844 305.0625 430.160156 306.390625 428.726562 307.835938 L 426.117188 310.460938 L 425.433594 309.605469 C 425.054688 309.132812 424.746094 308.464844 424.746094 308.117188 C 424.746094 307.765625 424.472656 307.136719 424.144531 306.71875 C 423.816406 306.300781 423.546875 305.761719 423.546875 305.527344 C 423.546875 305.289062 423.277344 304.851562 422.945312 304.554688 C 422.617188 304.253906 422.347656 303.722656 422.347656 303.367188 C 422.347656 303.015625 422.1875 302.5625 421.988281 302.367188 C 421.5625 301.9375 419.652344 301.878906 419.652344 302.292969 C 419.652344 302.449219 418.847656 303.40625 417.867188 304.414062 C 416.367188 305.960938 414.335938 308.589844 413.628906 309.90625 C 413.113281 310.863281 412.480469 313.488281 412.292969 315.417969 C 412.105469 317.375 412.023438 317.589844 411.441406 317.589844 C 411.085938 317.589844 410.585938 317.355469 410.324219 317.066406 C 409.585938 316.253906 407.152344 314.226562 405.878906 313.367188 C 405.246094 312.941406 404.515625 312.378906 404.257812 312.121094 C 404 311.863281 403.683594 311.605469 403.554688 311.546875 C 403.429688 311.492188 403.042969 311.039062 402.695312 310.542969 C 402.15625 309.769531 402.042969 309.054688 401.894531 305.449219 C 401.800781 303.144531 401.566406 300.785156 401.375 300.207031 C 401.183594 299.628906 400.914062 296.867188 400.777344 294.0625 C 400.640625 291.261719 400.316406 287.6875 400.054688 286.121094 C 399.796875 284.554688 399.582031 282.527344 399.582031 281.613281 C 399.582031 280.546875 399.367188 279.53125 398.984375 278.777344 C 398.652344 278.128906 398.382812 277.308594 398.382812 276.953125 C 398.382812 276.59375 398.171875 276.128906 397.917969 275.914062 C 397.660156 275.703125 397.273438 275.113281 397.054688 274.605469 C 396.460938 273.226562 392.753906 269.636719 391.925781 269.636719 C 391.738281 269.636719 391.34375 269.367188 391.042969 269.035156 C 390.746094 268.707031 390.214844 268.4375 389.867188 268.4375 C 389.515625 268.4375 388.917969 268.21875 388.539062 267.949219 C 387.15625 266.984375 379.964844 266.472656 377.0625 267.132812 C 375.457031 267.5 372.890625 269.398438 371.734375 271.078125 C 371.316406 271.683594 370.804688 272.359375 370.601562 272.578125 C 370.394531 272.796875 370.226562 273.273438 370.226562 273.636719 C 370.226562 274 369.988281 274.632812 369.703125 275.039062 C 369.226562 275.710938 369.164062 277.09375 369.027344 290.167969 L 368.878906 304.554688 L 368.128906 304.449219 C 367.71875 304.390625 367.273438 304.152344 367.140625 303.921875 C 367.007812 303.6875 366.46875 303.296875 365.941406 303.050781 C 365.414062 302.808594 364.578125 302.335938 364.085938 302.007812 C 363.589844 301.679688 362.847656 301.25 362.4375 301.050781 C 362.027344 300.851562 361.453125 300.492188 361.164062 300.25 C 360.535156 299.726562 359.625 299.183594 358.371094 298.585938 C 357.863281 298.34375 357.273438 297.933594 357.058594 297.675781 C 356.847656 297.421875 356.4375 297.210938 356.148438 297.210938 C 355.859375 297.210938 355.445312 297 355.234375 296.742188 C 355.019531 296.484375 354.433594 296.085938 353.925781 295.851562 C 353.417969 295.617188 352.800781 295.308594 352.550781 295.167969 C 350.949219 294.261719 349.523438 293.613281 349.121094 293.613281 C 348.867188 293.613281 348.152344 293.34375 347.539062 293.015625 C 345.933594 292.152344 341.449219 292.15625 340.039062 293.015625 C 339.5 293.34375 338.871094 293.613281 338.644531 293.613281 C 337.972656 293.613281 334.707031 297.390625 333.902344 299.09375 C 333.015625 300.96875 332.171875 304.394531 332.191406 306.050781 C 332.203125 307.472656 333.085938 310.171875 333.785156 310.945312 C 334.058594 311.246094 334.28125 311.632812 334.28125 311.804688 C 334.28125 311.976562 335.089844 313.164062 336.078125 314.445312 C 337.066406 315.722656 337.875 316.863281 337.875 316.976562 C 337.875 317.089844 338.351562 317.710938 338.933594 318.359375 C 339.519531 319.007812 340.398438 320.144531 340.894531 320.886719 C 341.390625 321.628906 342.257812 322.777344 342.820312 323.4375 C 345.132812 326.136719 345.375 326.457031 345.554688 327.023438 C 345.707031 327.492188 345.144531 328.164062 342.800781 330.320312 C 336.410156 336.191406 329.492188 343.539062 329.484375 344.464844 C 329.484375 344.601562 329.027344 345.210938 328.46875 345.820312 C 327.613281 346.757812 326.847656 347.90625 325.3125 350.558594 C 324.394531 352.152344 323.496094 354.320312 323.496094 354.949219 C 323.496094 355.355469 323.273438 356.113281 323.003906 356.636719 C 322.585938 357.441406 322.539062 358.28125 322.675781 362.105469 C 322.785156 365.066406 322.730469 366.820312 322.519531 367.207031 C 322.34375 367.53125 321.558594 368.46875 320.78125 369.292969 C 320 370.117188 318.390625 372.003906 317.199219 373.488281 C 316.007812 374.972656 314.878906 376.320312 314.691406 376.484375 C 314.5 376.652344 313.855469 377.527344 313.261719 378.433594 C 312.664062 379.339844 311.839844 380.445312 311.429688 380.886719 C 311.019531 381.328125 310.253906 382.4375 309.730469 383.359375 C 309.203125 384.277344 308.671875 385.027344 308.542969 385.027344 C 308.417969 385.027344 308.152344 385.386719 307.953125 385.824219 C 307.753906 386.261719 307.125 387.320312 306.558594 388.175781 C 305.988281 389.035156 305.523438 389.925781 305.523438 390.15625 C 305.523438 390.390625 305.253906 390.746094 304.925781 390.953125 C 304.59375 391.160156 304.324219 391.640625 304.324219 392.027344 C 304.324219 392.414062 304.054688 392.972656 303.726562 393.269531 C 303.398438 393.570312 303.125 394.074219 303.125 394.394531 C 303.125 394.714844 302.855469 395.316406 302.527344 395.734375 C 302.199219 396.15625 301.929688 396.785156 301.925781 397.132812 C 301.925781 397.480469 301.65625 398.171875 301.328125 398.664062 C 301.003906 399.160156 300.734375 399.988281 300.734375 400.507812 C 300.730469 401.023438 300.464844 402.035156 300.136719 402.753906 C 299.617188 403.90625 299.546875 404.722656 299.546875 409.605469 C 299.546875 414.488281 299.617188 415.304688 300.136719 416.457031 C 300.464844 417.175781 300.730469 418.121094 300.730469 418.554688 C 300.730469 418.988281 300.984375 419.761719 301.296875 420.269531 C 301.605469 420.777344 301.949219 421.613281 302.0625 422.121094 C 302.175781 422.632812 302.460938 423.210938 302.695312 423.40625 C 302.933594 423.605469 303.125 424 303.125 424.289062 C 303.125 424.574219 303.398438 425.152344 303.726562 425.570312 C 304.054688 425.992188 304.324219 426.449219 304.324219 426.59375 C 304.324219 426.734375 304.859375 427.65625 305.515625 428.644531 C 306.167969 429.628906 306.707031 430.550781 306.714844 430.695312 C 306.71875 430.835938 307.230469 431.578125 307.855469 432.34375 C 308.476562 433.105469 309.382812 434.339844 309.863281 435.082031 C 310.933594 436.722656 318.238281 444.074219 318.804688 444.074219 C 319.027344 444.074219 319.523438 444.34375 319.902344 444.671875 C 320.28125 445.003906 320.8125 445.273438 321.078125 445.273438 C 321.347656 445.273438 321.875 445.488281 322.25 445.753906 C 324.324219 447.203125 334.648438 447.203125 336.722656 445.753906 C 337.101562 445.488281 337.898438 445.273438 338.5 445.273438 C 339.136719 445.273438 339.90625 445.023438 340.351562 444.671875 C 340.773438 444.34375 341.496094 444.070312 341.964844 444.070312 C 342.433594 444.070312 343.222656 443.800781 343.714844 443.472656 C 344.210938 443.144531 344.882812 442.875 345.214844 442.875 C 345.542969 442.871094 346.21875 442.601562 346.710938 442.273438 C 347.207031 441.945312 347.960938 441.679688 348.386719 441.675781 C 348.816406 441.675781 349.476562 441.40625 349.855469 441.074219 C 350.238281 440.746094 350.875 440.476562 351.277344 440.476562 C 351.679688 440.476562 352.351562 440.207031 352.769531 439.875 C 353.1875 439.546875 353.898438 439.277344 354.351562 439.277344 C 354.800781 439.277344 355.511719 439.007812 355.929688 438.679688 C 356.347656 438.347656 357.007812 438.078125 357.394531 438.078125 C 357.777344 438.074219 358.5 437.808594 358.992188 437.480469 C 359.488281 437.152344 360.164062 436.882812 360.496094 436.882812 C 360.828125 436.882812 361.601562 436.609375 362.214844 436.28125 C 362.832031 435.949219 363.585938 435.679688 363.894531 435.679688 C 364.203125 435.679688 364.796875 435.410156 365.214844 435.082031 C 365.632812 434.75 366.308594 434.480469 366.714844 434.480469 C 367.117188 434.480469 367.792969 434.210938 368.210938 433.882812 C 368.628906 433.554688 369.289062 433.28125 369.675781 433.28125 C 370.058594 433.28125 370.78125 433.011719 371.273438 432.683594 C 371.769531 432.355469 372.457031 432.085938 372.808594 432.085938 C 373.15625 432.085938 373.78125 431.8125 374.203125 431.484375 C 374.621094 431.15625 375.226562 430.886719 375.550781 430.886719 C 375.871094 430.886719 376.480469 430.617188 376.898438 430.285156 C 377.316406 429.957031 377.921875 429.6875 378.246094 429.6875 C 378.570312 429.6875 379.175781 429.417969 379.59375 429.085938 C 380.011719 428.757812 380.621094 428.488281 380.941406 428.488281 C 381.265625 428.488281 381.871094 428.21875 382.289062 427.886719 C 382.707031 427.558594 383.3125 427.289062 383.632812 427.289062 C 383.949219 427.289062 384.457031 427.019531 384.753906 426.6875 C 385.050781 426.359375 385.527344 426.089844 385.808594 426.089844 C 386.089844 426.089844 386.664062 425.820312 387.082031 425.492188 C 387.5 425.160156 388.128906 424.890625 388.472656 424.890625 C 388.820312 424.890625 389.335938 424.621094 389.617188 424.292969 C 389.898438 423.960938 390.402344 423.691406 390.738281 423.691406 C 391.070312 423.6875 391.75 423.421875 392.242188 423.09375 C 392.738281 422.765625 393.324219 422.496094 393.542969 422.496094 C 393.765625 422.492188 394.289062 422.222656 394.707031 421.894531 C 395.125 421.5625 395.734375 421.292969 396.054688 421.292969 C 396.378906 421.292969 396.984375 421.023438 397.402344 420.695312 C 397.820312 420.363281 398.398438 420.09375 398.683594 420.09375 C 398.96875 420.09375 399.542969 419.824219 399.964844 419.496094 C 400.382812 419.167969 400.953125 418.894531 401.230469 418.894531 C 401.507812 418.894531 402.078125 418.625 402.496094 418.296875 C 402.914062 417.96875 403.492188 417.699219 403.777344 417.699219 C 404.0625 417.699219 404.636719 417.429688 405.054688 417.097656 C 405.476562 416.769531 406.082031 416.5 406.402344 416.5 C 406.726562 416.5 407.332031 416.230469 407.75 415.898438 C 408.171875 415.570312 408.777344 415.300781 409.097656 415.300781 C 409.421875 415.300781 410.027344 415.03125 410.449219 414.699219 C 410.867188 414.371094 411.472656 414.101562 411.796875 414.101562 C 412.117188 414.101562 412.722656 413.832031 413.144531 413.5 C 413.5625 413.171875 414.167969 412.902344 414.492188 412.902344 C 414.8125 412.902344 415.421875 412.632812 415.839844 412.300781 C 416.257812 411.972656 416.929688 411.703125 417.332031 411.703125 C 417.734375 411.703125 418.304688 411.433594 418.601562 411.105469 C 418.902344 410.773438 419.511719 410.503906 419.957031 410.503906 C 420.402344 410.503906 421.113281 410.234375 421.53125 409.90625 C 421.949219 409.574219 422.625 409.304688 423.027344 409.304688 C 423.433594 409.304688 424.105469 409.035156 424.527344 408.707031 C 424.945312 408.375 425.601562 408.105469 425.988281 408.105469 C 426.375 408.105469 427.09375 407.835938 427.589844 407.507812 C 428.085938 407.179688 428.824219 406.910156 429.238281 406.90625 C 429.648438 406.90625 430.390625 406.636719 430.886719 406.308594 C 431.378906 405.980469 432.070312 405.710938 432.417969 405.710938 C 432.765625 405.710938 433.394531 405.4375 433.8125 405.109375 C 434.230469 404.78125 434.820312 404.507812 435.125 404.507812 C 435.429688 404.507812 436.082031 404.238281 436.578125 403.910156 C 437.070312 403.582031 437.691406 403.3125 437.953125 403.3125 C 438.214844 403.3125 438.675781 403.042969 438.972656 402.710938 C 439.269531 402.382812 439.765625 402.113281 440.070312 402.113281 C 440.375 402.113281 440.855469 401.84375 441.140625 401.511719 C 441.421875 401.183594 441.785156 400.914062 441.945312 400.914062 C 442.257812 400.914062 444.324219 399.554688 445.136719 398.816406 C 448.03125 396.183594 450.386719 393.609375 451.316406 392.070312 C 452.363281 390.339844 453.5 387.855469 453.5 387.300781 C 453.5 386.957031 453.769531 385.730469 454.101562 384.578125 C 454.429688 383.425781 454.703125 381.738281 454.703125 380.832031 C 454.707031 379.925781 454.972656 378.171875 455.296875 376.9375 C 455.621094 375.699219 455.890625 374.460938 455.890625 374.1875 C 455.894531 373.773438 458.390625 370.941406 458.75 370.941406 C 459.058594 370.941406 461.546875 369.078125 462.308594 368.28125 C 463.214844 367.328125 463.683594 367.304688 463.683594 368.214844 C 463.683594 368.511719 463.957031 369.0625 464.285156 369.441406 C 464.613281 369.824219 464.882812 370.363281 464.882812 370.648438 C 464.882812 370.929688 465.152344 371.503906 465.484375 371.921875 C 465.8125 372.339844 466.082031 372.886719 466.082031 373.132812 C 466.082031 373.878906 467.648438 376.035156 468.191406 376.035156 C 469.183594 376.035156 473.996094 371.648438 475.40625 369.457031 L 476.265625 368.125 L 476.265625 362.808594 C 476.265625 359.53125 476.382812 357.417969 476.570312 357.300781 C 476.738281 357.199219 477.0625 356.667969 477.289062 356.125 C 477.648438 355.257812 480.730469 351.96875 482.96875 350.054688 C 484.199219 349.007812 485.015625 349.039062 485.304688 350.148438 C 485.441406 350.664062 485.753906 351.253906 486 351.457031 C 486.25 351.664062 486.453125 352.066406 486.453125 352.355469 C 486.453125 352.640625 486.722656 353.21875 487.050781 353.640625 C 487.378906 354.058594 487.648438 354.625 487.648438 354.898438 C 487.648438 356.527344 489.519531 357.152344 490.761719 355.9375 C 491.109375 355.597656 492.09375 354.792969 492.945312 354.148438 C 493.796875 353.503906 494.96875 352.332031 495.550781 351.542969 C 496.128906 350.753906 496.878906 349.753906 497.21875 349.3125 C 497.78125 348.585938 497.835938 348.101562 497.835938 343.703125 L 497.835938 338.886719 L 498.953125 336.707031 C 499.773438 335.113281 500.828125 333.769531 502.867188 331.722656 C 505.570312 329.003906 505.675781 328.933594 506.238281 329.445312 C 506.558594 329.734375 506.820312 330.136719 506.820312 330.335938 C 506.820312 330.535156 507.089844 331.039062 507.417969 331.460938 C 507.75 331.878906 508.019531 332.417969 508.019531 332.660156 C 508.019531 332.898438 508.289062 333.4375 508.617188 333.859375 C 508.949219 334.277344 509.21875 334.90625 509.21875 335.261719 C 509.21875 335.890625 510.433594 337.371094 510.953125 337.371094 C 511.316406 337.371094 514.589844 334.398438 517.226562 331.679688 L 519.402344 329.429688 L 519.402344 324.574219 C 519.402344 320.074219 519.453125 319.625 520.097656 318.414062 C 521.929688 314.964844 523.464844 313.167969 526.664062 310.722656 C 527.3125 310.230469 527.90625 310.636719 528.554688 312.023438 C 528.792969 312.53125 529.257812 313.351562 529.585938 313.84375 C 529.917969 314.339844 530.386719 315.148438 530.628906 315.644531 C 531.457031 317.332031 532.71875 318.582031 533.382812 318.371094 C 534.234375 318.101562 538.945312 313.519531 540.046875 311.894531 C 540.933594 310.585938 540.957031 310.449219 540.964844 307.035156 C 540.96875 304.222656 540.851562 303.222656 540.371094 302.003906 C 539.617188 300.089844 539.617188 299.117188 540.371094 297.878906 C 540.699219 297.335938 540.96875 296.625 540.96875 296.292969 C 540.96875 295.960938 541.238281 295.160156 541.570312 294.511719 C 541.898438 293.867188 542.167969 293.039062 542.167969 292.671875 C 542.167969 291.707031 543.34375 289.417969 543.839844 289.417969 C 544.074219 289.417969 544.519531 289.652344 544.832031 289.941406 C 545.144531 290.230469 546.160156 291.003906 547.09375 291.664062 C 548.023438 292.324219 549.183594 293.179688 549.671875 293.570312 C 550.164062 293.957031 550.738281 294.207031 550.949219 294.125 C 551.511719 293.910156 552.949219 290.996094 552.957031 290.0625 C 552.957031 289.625 553.226562 288.414062 553.554688 287.367188 C 553.90625 286.25 554.148438 284.625 554.148438 283.425781 C 554.148438 280.640625 553.234375 278.953125 549.730469 275.300781 C 548.207031 273.710938 546.960938 272.308594 546.960938 272.1875 C 546.960938 272.066406 546.421875 271.324219 545.761719 270.535156 C 545.101562 269.746094 544.5625 268.902344 544.5625 268.660156 C 544.5625 268.417969 544.292969 267.875 543.964844 267.457031 C 543.636719 267.035156 543.367188 266.351562 543.367188 265.933594 C 543.367188 265.515625 543.21875 265.085938 543.042969 264.976562 C 542.785156 264.816406 541.570312 262.367188 541.570312 262.007812 C 541.570312 261.960938 542.175781 261.839844 542.921875 261.738281 C 543.664062 261.636719 544.671875 261.347656 545.152344 261.097656 C 545.636719 260.847656 546.382812 260.644531 546.816406 260.644531 C 547.664062 260.644531 548.773438 260.152344 549.128906 259.625 C 549.867188 258.519531 548.832031 256.886719 544.816406 252.816406 C 542.84375 250.816406 541.300781 249.5 540.773438 249.371094 C 540.304688 249.257812 539.597656 248.914062 539.207031 248.609375 C 538.09375 247.746094 533.519531 247.921875 529.824219 248.972656 C 528.519531 249.34375 528.3125 249.324219 527.09375 248.714844 C 526.371094 248.351562 525.503906 248.054688 525.171875 248.054688 C 524.839844 248.054688 524.402344 247.855469 524.199219 247.613281 C 524 247.371094 523.34375 247.085938 522.742188 246.976562 C 521.558594 246.765625 520.601562 246.09375 520.601562 245.480469 C 520.601562 245.265625 520.855469 244.648438 521.171875 244.101562 C 521.90625 242.828125 522.300781 239.519531 521.792969 238.90625 C 521.507812 238.5625 520.71875 238.472656 518.242188 238.503906 C 516.492188 238.527344 514.3125 238.640625 513.402344 238.757812 M 506.820312 258.207031 C 505.75 258.320312 504.441406 258.644531 503.914062 258.929688 C 503.386719 259.210938 502.667969 259.445312 502.316406 259.445312 C 501.960938 259.445312 501.332031 259.714844 500.910156 260.042969 C 500.492188 260.375 499.953125 260.644531 499.714844 260.644531 C 499.472656 260.644531 498.933594 260.914062 498.515625 261.242188 C 498.097656 261.574219 497.53125 261.84375 497.261719 261.84375 C 496.992188 261.84375 496.539062 262.113281 496.257812 262.441406 C 495.972656 262.773438 495.558594 263.042969 495.335938 263.042969 C 495.113281 263.042969 494.6875 263.3125 494.390625 263.640625 C 494.089844 263.972656 493.679688 264.242188 493.476562 264.242188 C 493.273438 264.242188 493.039062 264.414062 492.957031 264.625 C 492.875 264.839844 492.222656 265.40625 491.503906 265.890625 C 489.921875 266.953125 487.5625 268.859375 486.308594 270.085938 C 485.441406 270.933594 482.488281 273.503906 479.53125 275.988281 C 478.808594 276.597656 477.066406 278.195312 475.667969 279.542969 C 474.265625 280.886719 472.3125 282.664062 471.324219 283.492188 C 469.378906 285.117188 465.023438 289.101562 461.851562 292.152344 C 458.378906 295.492188 456.726562 297.03125 453.351562 300.0625 C 449.714844 303.324219 447.988281 304.941406 444.546875 308.300781 C 443.28125 309.535156 441.375 311.289062 440.3125 312.195312 C 436.390625 315.539062 434.132812 317.554688 432.40625 319.242188 C 431.898438 319.738281 430.007812 321.355469 428.199219 322.839844 C 426.394531 324.320312 424.609375 325.820312 424.230469 326.167969 C 423.539062 326.808594 423.324219 327.480469 423.808594 327.480469 C 424.570312 327.480469 439.117188 342.527344 439.125 343.320312 C 439.125 343.429688 439.726562 344.152344 440.457031 344.925781 C 441.191406 345.699219 442.359375 347.21875 443.050781 348.296875 C 443.746094 349.378906 444.414062 350.261719 444.542969 350.261719 C 444.667969 350.261719 444.863281 350.542969 444.972656 350.886719 C 445.203125 351.617188 446.808594 354.058594 447.226562 354.316406 C 447.382812 354.414062 447.511719 354.734375 447.511719 355.027344 C 447.511719 355.320312 447.78125 355.808594 448.109375 356.105469 C 448.4375 356.402344 448.707031 356.878906 448.707031 357.160156 C 448.707031 357.441406 448.964844 358 449.277344 358.398438 C 449.589844 358.796875 449.894531 359.453125 449.953125 359.863281 C 450.121094 361.054688 451.089844 360.917969 452.609375 359.480469 C 453.355469 358.777344 454.613281 357.730469 455.40625 357.152344 C 456.203125 356.578125 457.558594 355.5 458.417969 354.757812 C 459.28125 354.015625 460.890625 352.664062 461.996094 351.757812 C 464.488281 349.710938 464.996094 349.261719 468.621094 345.914062 C 470.226562 344.429688 471.773438 343.082031 472.054688 342.917969 C 472.707031 342.539062 475.777344 339.835938 478.019531 337.671875 C 478.957031 336.765625 480.597656 335.28125 481.664062 334.378906 C 482.730469 333.472656 483.671875 332.664062 483.753906 332.578125 C 483.835938 332.496094 484.445312 331.96875 485.101562 331.40625 C 485.761719 330.84375 487.582031 329.203125 489.148438 327.761719 C 490.710938 326.316406 492.800781 324.484375 493.792969 323.6875 C 495.316406 322.457031 496.667969 321.253906 499.621094 318.488281 C 499.886719 318.242188 501.515625 316.828125 503.238281 315.347656 C 504.960938 313.867188 506.648438 312.382812 506.984375 312.050781 C 508.679688 310.375 515.046875 304.523438 517.15625 302.703125 C 520.945312 299.433594 522.207031 298.273438 526.890625 293.746094 C 529.828125 290.90625 530.609375 289.992188 531.359375 288.519531 C 531.773438 287.699219 532.191406 286.878906 532.613281 286.0625 C 533.097656 285.113281 533.179688 284.28125 533.179688 280.289062 C 533.179688 276.199219 533.105469 275.492188 532.582031 274.507812 C 532.253906 273.894531 531.984375 273.074219 531.984375 272.683594 C 531.984375 272.296875 531.714844 271.636719 531.382812 271.214844 C 531.054688 270.796875 530.785156 270.210938 530.785156 269.914062 C 530.785156 269.613281 530.652344 269.289062 530.492188 269.191406 C 530.332031 269.089844 529.730469 268.300781 529.152344 267.433594 C 527.441406 264.855469 523.851562 261.695312 521.308594 260.535156 C 520.796875 260.296875 520.28125 259.957031 520.167969 259.777344 C 520.058594 259.59375 519.699219 259.445312 519.371094 259.445312 C 519.046875 259.445312 518.261719 259.179688 517.628906 258.859375 C 516.722656 258.394531 515.671875 258.242188 512.625 258.136719 C 510.503906 258.0625 507.890625 258.09375 506.820312 258.207031 M 506.140625 275.03125 C 505.722656 275.359375 505.28125 275.628906 505.164062 275.628906 C 505.046875 275.628906 504.296875 276.339844 503.496094 277.203125 C 502.523438 278.257812 502.042969 279.042969 502.035156 279.582031 C 502.03125 280.023438 501.886719 280.757812 501.714844 281.210938 C 501.488281 281.800781 501.503906 282.460938 501.769531 283.554688 C 502.128906 285.035156 503.703125 287.917969 504.152344 287.917969 C 504.277344 287.917969 504.789062 288.265625 505.289062 288.683594 C 506.128906 289.394531 506.421875 289.453125 509.09375 289.445312 C 512.222656 289.4375 512.570312 289.3125 514.507812 287.484375 C 516.804688 285.316406 517.800781 281.136719 516.40625 279.527344 C 516.078125 279.148438 515.808594 278.691406 515.808594 278.519531 C 515.808594 278.085938 513.371094 275.628906 512.945312 275.628906 C 512.757812 275.628906 512.359375 275.359375 512.0625 275.03125 C 511.609375 274.53125 511.140625 274.429688 509.210938 274.429688 C 507.355469 274.429688 506.75 274.550781 506.140625 275.03125 M 381.972656 279.003906 C 381.285156 279.839844 380.601562 282.753906 380.582031 284.910156 C 380.570312 286.152344 380.753906 292.726562 380.988281 299.519531 C 381.398438 311.375 381.394531 311.9375 380.859375 313.503906 C 380.492188 314.585938 379.84375 315.601562 378.9375 316.515625 C 377.179688 318.285156 375.898438 319.421875 375.035156 319.988281 C 374.65625 320.234375 373.234375 321.316406 371.875 322.386719 C 370.511719 323.457031 369.097656 324.535156 368.730469 324.785156 C 367.832031 325.390625 365.925781 326.882812 365.734375 327.132812 C 365.394531 327.582031 361.816406 330.179688 361.539062 330.179688 C 361.375 330.179688 361.238281 330.292969 361.238281 330.429688 C 361.238281 330.566406 359.789062 331.835938 358.019531 333.25 C 356.25 334.664062 354.058594 336.519531 353.152344 337.371094 C 352.246094 338.222656 351.160156 339.144531 350.738281 339.417969 C 348.316406 341 339.417969 349.785156 337.882812 352.105469 C 337.375 352.871094 336.761719 353.664062 336.519531 353.863281 C 336.277344 354.066406 336.074219 354.382812 336.066406 354.566406 C 336.0625 354.753906 335.796875 355.445312 335.476562 356.105469 C 334.636719 357.84375 334.636719 362.328125 335.476562 363.597656 C 335.804688 364.09375 336.074219 364.914062 336.074219 365.425781 C 336.074219 365.9375 336.347656 366.664062 336.675781 367.042969 C 337.007812 367.425781 337.277344 367.996094 337.277344 368.316406 C 337.277344 368.636719 337.546875 369.242188 337.875 369.660156 C 338.203125 370.078125 338.472656 370.65625 338.472656 370.945312 C 338.472656 371.230469 338.664062 371.625 338.894531 371.816406 C 339.125 372.007812 339.402344 372.519531 339.511719 372.953125 C 339.621094 373.386719 339.96875 374.074219 340.289062 374.480469 C 340.609375 374.886719 340.871094 375.414062 340.871094 375.65625 C 340.871094 375.894531 341.140625 376.433594 341.46875 376.855469 C 341.796875 377.273438 342.066406 377.8125 342.066406 378.050781 C 342.066406 378.292969 342.339844 378.832031 342.667969 379.25 C 342.996094 379.671875 343.265625 380.210938 343.265625 380.449219 C 343.265625 380.691406 343.535156 381.230469 343.867188 381.648438 C 344.195312 382.066406 344.464844 382.632812 344.464844 382.902344 C 344.464844 383.175781 344.734375 383.628906 345.0625 383.910156 C 345.394531 384.191406 345.664062 384.671875 345.664062 384.980469 C 345.664062 385.285156 345.933594 385.847656 346.261719 386.226562 C 346.589844 386.605469 346.859375 387.144531 346.859375 387.425781 C 346.859375 387.707031 347.128906 388.246094 347.460938 388.625 C 347.789062 389.003906 348.058594 389.542969 348.058594 389.824219 C 348.058594 390.101562 348.328125 390.574219 348.660156 390.871094 C 348.988281 391.171875 349.257812 391.710938 349.257812 392.070312 C 349.257812 392.433594 349.527344 392.972656 349.855469 393.269531 C 350.1875 393.570312 350.457031 394.109375 350.457031 394.46875 C 350.457031 394.832031 350.726562 395.371094 351.054688 395.667969 C 351.382812 395.964844 351.652344 396.503906 351.652344 396.867188 C 351.652344 397.226562 351.921875 397.769531 352.253906 398.066406 C 352.582031 398.363281 352.851562 398.839844 352.851562 399.121094 C 352.851562 399.402344 353.121094 399.976562 353.453125 400.394531 C 353.78125 400.816406 354.050781 401.355469 354.050781 401.59375 C 354.050781 401.835938 354.320312 402.375 354.648438 402.792969 C 354.980469 403.210938 355.25 403.78125 355.25 404.058594 C 355.25 404.335938 355.519531 404.90625 355.847656 405.328125 C 356.347656 405.964844 356.445312 406.542969 356.445312 408.871094 L 356.445312 411.648438 L 355.246094 413.171875 C 354.585938 414.007812 353.675781 414.925781 353.222656 415.214844 C 352.773438 415.503906 352.222656 415.910156 352.007812 416.121094 C 351.789062 416.328125 351.371094 416.5 351.074219 416.5 C 350.777344 416.5 350.195312 416.769531 349.773438 417.097656 C 349.355469 417.429688 348.785156 417.699219 348.507812 417.699219 C 348.230469 417.699219 347.660156 417.96875 347.242188 418.296875 C 346.824219 418.625 346.261719 418.898438 345.996094 418.898438 C 345.730469 418.898438 345.109375 419.167969 344.613281 419.496094 C 344.121094 419.824219 343.535156 420.09375 343.3125 420.09375 C 343.09375 420.09375 342.570312 420.363281 342.148438 420.695312 C 341.730469 421.023438 341.15625 421.292969 340.871094 421.292969 C 340.585938 421.292969 340.007812 421.5625 339.589844 421.894531 C 339.171875 422.222656 338.601562 422.492188 338.324219 422.492188 C 338.046875 422.492188 337.476562 422.761719 337.058594 423.09375 C 336.640625 423.421875 335.972656 423.691406 335.574219 423.691406 C 335.175781 423.691406 334.4375 423.90625 333.933594 424.167969 C 332.859375 424.722656 330.230469 424.625 328.589844 423.972656 C 326.929688 423.308594 324.292969 421.222656 323.75 420.140625 C 323.476562 419.597656 323.050781 418.929688 322.804688 418.652344 C 322.160156 417.925781 320.445312 414.851562 319.765625 413.203125 C 319.664062 412.953125 319.382812 412.414062 319.144531 412.003906 C 318.546875 410.96875 318.546875 405.84375 319.144531 404.808594 C 319.382812 404.398438 319.664062 403.859375 319.765625 403.609375 C 320.191406 402.574219 320.574219 401.863281 321.667969 400.054688 C 322.304688 399.003906 322.941406 398.0625 323.089844 397.957031 C 323.234375 397.851562 324.011719 396.785156 324.816406 395.585938 C 325.617188 394.386719 326.433594 393.304688 326.628906 393.1875 C 326.824219 393.066406 328.175781 391.488281 329.632812 389.671875 C 331.085938 387.859375 332.460938 386.269531 332.679688 386.136719 C 333.179688 385.839844 333.199219 384.96875 332.71875 384.484375 C 332.351562 384.117188 331.792969 383.085938 330.207031 379.859375 C 329.742188 378.910156 329.199219 378.132812 329 378.132812 C 328.800781 378.132812 328.347656 378.605469 327.992188 379.183594 C 327.636719 379.757812 327.179688 380.332031 326.980469 380.457031 C 326.539062 380.730469 323.796875 384.101562 323.789062 384.382812 C 323.785156 384.488281 323.167969 385.253906 322.414062 386.078125 C 320.953125 387.675781 319.300781 389.980469 319.300781 390.421875 C 319.300781 390.570312 319.066406 390.863281 318.773438 391.082031 C 318.484375 391.296875 318.074219 391.808594 317.863281 392.222656 C 317.234375 393.457031 316.726562 394.285156 316.261719 394.84375 C 316.023438 395.132812 315.660156 395.707031 315.460938 396.117188 C 315.261719 396.53125 314.769531 397.40625 314.367188 398.066406 C 313.96875 398.726562 313.558594 399.46875 313.460938 399.714844 C 313.363281 399.960938 313.019531 400.664062 312.699219 401.273438 C 312.375 401.882812 312.113281 402.652344 312.113281 402.988281 C 312.113281 403.320312 311.835938 404.125 311.496094 404.777344 C 310.953125 405.824219 310.890625 406.375 310.992188 409.507812 C 311.097656 412.824219 311.535156 414.914062 312.460938 416.5 C 312.605469 416.746094 312.933594 417.402344 313.1875 417.957031 C 313.441406 418.515625 314.007812 419.527344 314.441406 420.207031 C 314.878906 420.886719 315.441406 421.800781 315.695312 422.238281 C 315.949219 422.675781 316.5625 423.617188 317.054688 424.335938 C 317.550781 425.054688 318.023438 425.792969 318.105469 425.980469 C 318.359375 426.550781 321.160156 429.75 322.898438 431.445312 C 325.171875 433.671875 325.433594 433.882812 325.917969 433.882812 C 326.152344 433.886719 326.746094 434.15625 327.242188 434.480469 C 328.449219 435.28125 331.066406 435.285156 332.824219 434.488281 C 333.542969 434.164062 334.433594 433.894531 334.804688 433.890625 C 335.175781 433.886719 335.984375 433.613281 336.597656 433.28125 C 337.214844 432.953125 337.949219 432.683594 338.238281 432.683594 C 338.523438 432.683594 339.199219 432.414062 339.738281 432.085938 C 340.277344 431.757812 341.035156 431.488281 341.421875 431.484375 C 341.808594 431.484375 342.464844 431.214844 342.886719 430.886719 C 343.304688 430.554688 343.960938 430.285156 344.347656 430.285156 C 344.734375 430.285156 345.492188 430.015625 346.03125 429.6875 C 346.570312 429.359375 347.347656 429.085938 347.761719 429.085938 C 348.171875 429.085938 348.914062 428.816406 349.40625 428.488281 C 349.902344 428.160156 350.632812 427.890625 351.03125 427.890625 C 351.429688 427.890625 351.988281 427.679688 352.265625 427.425781 C 352.546875 427.171875 353.300781 426.882812 353.9375 426.78125 C 354.578125 426.679688 355.421875 426.347656 355.8125 426.042969 C 356.207031 425.738281 356.878906 425.488281 357.3125 425.488281 C 357.742188 425.488281 358.5 425.21875 358.992188 424.890625 C 359.488281 424.5625 360.207031 424.292969 360.59375 424.292969 C 360.980469 424.292969 361.636719 424.023438 362.054688 423.691406 C 362.476562 423.363281 363.148438 423.09375 363.554688 423.09375 C 363.960938 423.09375 364.632812 422.824219 365.050781 422.492188 C 365.46875 422.164062 366.140625 421.894531 366.539062 421.894531 C 366.9375 421.894531 367.761719 421.640625 368.371094 421.332031 C 369.957031 420.523438 372.089844 419.558594 372.679688 419.382812 C 372.957031 419.296875 373.410156 418.886719 373.683594 418.472656 C 374.15625 417.746094 374.140625 417.632812 373.226562 415.761719 C 372.703125 414.6875 372.164062 413.738281 372.023438 413.652344 C 371.882812 413.566406 371.683594 413.101562 371.578125 412.621094 C 371.472656 412.136719 371.207031 411.59375 370.984375 411.410156 C 370.765625 411.230469 370.496094 410.722656 370.386719 410.289062 C 370.277344 409.859375 369.925781 409.171875 369.609375 408.765625 C 369.289062 408.359375 369.027344 407.804688 369.027344 407.53125 C 369.027344 407.261719 368.757812 406.808594 368.429688 406.527344 C 368.097656 406.246094 367.828125 405.765625 367.828125 405.457031 C 367.828125 405.152344 367.558594 404.589844 367.230469 404.210938 C 366.902344 403.832031 366.632812 403.234375 366.632812 402.886719 C 366.632812 402.539062 366.363281 402.085938 366.03125 401.882812 C 365.703125 401.675781 365.433594 401.191406 365.433594 400.808594 C 365.433594 400.421875 365.164062 399.863281 364.835938 399.566406 C 364.503906 399.265625 364.234375 398.726562 364.234375 398.367188 C 364.234375 398.003906 363.964844 397.464844 363.636719 397.167969 C 363.304688 396.867188 363.035156 396.394531 363.035156 396.113281 C 363.035156 395.828125 362.765625 395.257812 362.4375 394.835938 C 362.109375 394.417969 361.839844 393.867188 361.839844 393.617188 C 361.839844 393.363281 361.707031 393.074219 361.542969 392.972656 C 361.378906 392.871094 360.761719 391.820312 360.171875 390.632812 C 359.105469 388.496094 358.382812 387.09375 357.894531 386.226562 C 357.753906 385.980469 357.492188 385.441406 357.3125 385.027344 C 357.128906 384.617188 356.867188 384.078125 356.726562 383.828125 C 355.8125 382.21875 354.648438 379.78125 354.648438 379.476562 C 354.648438 379.277344 354.378906 378.773438 354.050781 378.351562 C 353.722656 377.933594 353.449219 377.34375 353.449219 377.039062 C 353.449219 376.734375 353.179688 376.082031 352.851562 375.585938 C 352.363281 374.847656 352.257812 374.175781 352.253906 371.8125 C 352.253906 369.363281 352.34375 368.832031 352.851562 368.242188 C 353.183594 367.863281 353.457031 367.335938 353.460938 367.074219 C 353.472656 366.367188 354.894531 364.921875 357.699219 362.765625 C 359.070312 361.710938 360.722656 360.355469 361.371094 359.753906 C 362.023438 359.148438 363.101562 358.289062 363.769531 357.839844 C 364.4375 357.390625 365.21875 356.816406 365.507812 356.566406 C 366.457031 355.726562 367.652344 354.769531 370.078125 352.902344 C 371.394531 351.886719 372.742188 350.773438 373.070312 350.425781 C 373.402344 350.078125 374.480469 349.191406 375.46875 348.453125 C 376.457031 347.714844 377.398438 346.964844 377.566406 346.785156 C 377.730469 346.605469 379.28125 345.335938 381.011719 343.96875 C 386.210938 339.855469 390.105469 335.792969 390.726562 333.832031 C 390.832031 333.5 391.113281 333.066406 391.355469 332.867188 C 391.96875 332.355469 391.957031 323.835938 391.339844 320.140625 C 391.089844 318.65625 390.808594 315.351562 390.710938 312.796875 C 390.617188 310.242188 390.28125 306.613281 389.96875 304.738281 C 389.652344 302.863281 389.398438 300.097656 389.398438 298.59375 C 389.398438 297.089844 389.191406 294.851562 388.945312 293.613281 C 388.695312 292.378906 388.417969 289.542969 388.328125 287.320312 C 388.183594 283.714844 388.078125 283.105469 387.375 281.738281 C 386.710938 280.445312 386.320312 280.074219 384.921875 279.410156 C 383.070312 278.535156 382.429688 278.445312 381.972656 279.003906 M 344.839844 304.902344 C 344.261719 305.132812 344.394531 306.347656 345.0625 306.949219 C 345.394531 307.25 345.664062 307.601562 345.664062 307.730469 C 345.664062 308.0625 347.25 310.386719 348.113281 311.316406 C 348.503906 311.738281 349.324219 312.839844 349.9375 313.761719 C 350.550781 314.683594 351.457031 315.820312 351.949219 316.289062 C 352.445312 316.757812 352.851562 317.234375 352.851562 317.351562 C 352.851562 317.464844 353.265625 318.175781 353.773438 318.925781 C 354.660156 320.238281 355.574219 320.671875 356.003906 319.976562 C 356.183594 319.6875 357.871094 318.488281 359.183594 317.714844 C 359.488281 317.535156 359.972656 317.175781 360.265625 316.921875 C 360.554688 316.664062 361.058594 316.40625 361.390625 316.34375 C 362.1875 316.199219 362.371094 314.960938 361.636719 314.6875 C 361.335938 314.574219 360.914062 314.238281 360.699219 313.9375 C 360.484375 313.640625 360.125 313.394531 359.902344 313.394531 C 359.679688 313.394531 358.84375 312.886719 358.046875 312.265625 C 357.25 311.644531 356.257812 310.96875 355.847656 310.765625 C 355.4375 310.558594 354.695312 310.125 354.199219 309.796875 C 353.707031 309.472656 352.863281 308.976562 352.328125 308.699219 C 351.792969 308.417969 351.355469 308.082031 351.355469 307.949219 C 351.355469 307.816406 350.917969 307.507812 350.378906 307.261719 C 349.214844 306.722656 348.496094 306.277344 347.363281 305.378906 C 346.558594 304.738281 345.664062 304.570312 344.839844 304.902344 M 403.875 327.050781 C 403.777344 327.3125 403.835938 327.660156 404.003906 327.832031 C 404.371094 328.199219 404.136719 332.75 403.707031 333.582031 C 403.550781 333.886719 403.308594 334.945312 403.167969 335.9375 C 403.027344 336.925781 402.71875 337.957031 402.480469 338.226562 C 402.242188 338.5 401.945312 339.054688 401.820312 339.464844 C 401.628906 340.101562 400.664062 341.683594 400.179688 342.167969 C 400.097656 342.25 399.429688 343.105469 398.699219 344.070312 C 397.964844 345.035156 396.886719 346.183594 396.300781 346.617188 C 395.714844 347.054688 395.171875 347.480469 395.089844 347.566406 C 395.007812 347.65625 394.132812 348.398438 393.144531 349.21875 C 392.160156 350.039062 391.148438 350.933594 390.898438 351.207031 C 390.648438 351.480469 389.3125 352.605469 387.929688 353.710938 C 386.546875 354.8125 385.132812 355.984375 384.785156 356.3125 C 384.4375 356.640625 381.191406 359.289062 377.566406 362.191406 C 373.941406 365.097656 370.503906 367.925781 369.929688 368.484375 C 369.355469 369.039062 367.972656 370.1875 366.859375 371.039062 C 365.746094 371.886719 364.835938 372.804688 364.835938 373.070312 C 364.835938 373.539062 367.199219 378.40625 367.777344 379.132812 C 367.929688 379.328125 368.160156 379.820312 368.285156 380.234375 C 368.410156 380.644531 368.761719 381.304688 369.070312 381.695312 C 369.375 382.089844 369.625 382.609375 369.625 382.847656 C 369.625 383.089844 369.898438 383.628906 370.226562 384.046875 C 370.554688 384.464844 370.824219 385.03125 370.824219 385.300781 C 370.824219 385.574219 371.09375 386.023438 371.425781 386.308594 C 371.753906 386.589844 372.023438 387.070312 372.023438 387.375 C 372.023438 387.683594 372.292969 388.175781 372.621094 388.476562 C 372.953125 388.773438 373.222656 389.3125 373.222656 389.671875 C 373.222656 390.035156 373.492188 390.574219 373.820312 390.871094 C 374.148438 391.171875 374.417969 391.644531 374.417969 391.925781 C 374.417969 392.210938 374.6875 392.78125 375.019531 393.203125 C 375.347656 393.621094 375.617188 394.125 375.617188 394.320312 C 375.617188 394.515625 375.886719 395.015625 376.21875 395.4375 C 376.546875 395.855469 376.816406 396.394531 376.816406 396.636719 C 376.816406 396.875 377.085938 397.414062 377.414062 397.835938 C 377.746094 398.253906 378.015625 398.792969 378.015625 399.03125 C 378.015625 399.273438 378.285156 399.8125 378.613281 400.230469 C 378.941406 400.652344 379.210938 401.191406 379.210938 401.429688 C 379.210938 401.671875 379.480469 402.210938 379.8125 402.628906 C 380.140625 403.046875 380.410156 403.589844 380.410156 403.828125 C 380.410156 404.070312 380.679688 404.609375 381.011719 405.027344 C 381.339844 405.445312 381.609375 406.023438 381.609375 406.308594 C 381.609375 406.59375 381.878906 407.167969 382.207031 407.589844 C 382.539062 408.007812 382.808594 408.546875 382.808594 408.789062 C 382.808594 409.027344 383.078125 409.566406 383.40625 409.988281 C 383.734375 410.40625 384.003906 411.082031 384.003906 411.492188 C 384.003906 411.957031 384.292969 412.421875 384.78125 412.742188 C 385.484375 413.203125 385.597656 413.207031 386.074219 412.777344 C 386.363281 412.515625 386.804688 412.300781 387.058594 412.300781 C 387.3125 412.300781 387.863281 412.03125 388.28125 411.703125 C 388.699219 411.375 389.304688 411.105469 389.621094 411.105469 C 389.941406 411.105469 390.445312 410.832031 390.746094 410.503906 C 391.042969 410.175781 391.585938 409.90625 391.949219 409.90625 C 392.3125 409.90625 392.953125 409.636719 393.375 409.304688 C 393.792969 408.976562 394.363281 408.707031 394.640625 408.707031 C 394.917969 408.707031 395.488281 408.4375 395.90625 408.105469 C 396.324219 407.777344 396.898438 407.507812 397.179688 407.507812 C 397.460938 407.507812 398.003906 407.238281 398.382812 406.90625 C 398.761719 406.578125 399.335938 406.308594 399.65625 406.308594 C 399.972656 406.308594 400.578125 406.039062 400.996094 405.707031 C 401.417969 405.378906 402.058594 405.109375 402.425781 405.109375 C 402.796875 405.109375 403.4375 404.839844 403.855469 404.511719 C 404.277344 404.179688 404.882812 403.910156 405.207031 403.910156 C 405.527344 403.910156 406.132812 403.640625 406.554688 403.3125 C 406.972656 402.980469 407.609375 402.710938 407.96875 402.710938 C 408.328125 402.710938 408.964844 402.441406 409.386719 402.113281 C 409.804688 401.78125 410.410156 401.511719 410.734375 401.511719 C 411.054688 401.511719 411.664062 401.242188 412.082031 400.914062 C 412.5 400.582031 413.175781 400.3125 413.578125 400.3125 C 413.984375 400.3125 414.65625 400.042969 415.078125 399.714844 C 415.496094 399.382812 416.191406 399.113281 416.621094 399.113281 C 417.050781 399.113281 417.808594 398.84375 418.304688 398.515625 C 418.796875 398.1875 419.472656 397.917969 419.800781 397.914062 C 420.132812 397.914062 420.804688 397.644531 421.300781 397.316406 C 421.792969 396.988281 422.46875 396.71875 422.796875 396.710938 C 423.125 396.707031 423.734375 396.441406 424.144531 396.117188 C 424.558594 395.796875 425.203125 395.527344 425.582031 395.523438 C 425.960938 395.519531 426.804688 395.25 427.457031 394.917969 L 429.820312 393.71875 C 430.472656 393.390625 431.195312 393.121094 431.429688 393.121094 C 431.660156 393.121094 432.195312 392.851562 432.613281 392.519531 C 433.03125 392.191406 433.570312 391.921875 433.804688 391.921875 C 434.042969 391.921875 434.480469 391.652344 434.777344 391.320312 C 435.078125 390.992188 435.441406 390.722656 435.585938 390.722656 C 436.398438 390.722656 439.722656 387.523438 440.8125 385.691406 C 441.847656 383.953125 442.0625 383.269531 442.402344 380.675781 C 442.703125 378.367188 442.71875 377.304688 442.457031 376.089844 C 442.269531 375.21875 442.117188 374.007812 442.117188 373.394531 C 442.117188 372.78125 441.847656 371.777344 441.519531 371.164062 C 441.1875 370.546875 440.917969 369.785156 440.917969 369.46875 C 440.917969 369.152344 440.390625 367.835938 439.742188 366.542969 C 439.097656 365.253906 438.484375 363.996094 438.382812 363.746094 C 438.277344 363.5 437.867188 362.757812 437.460938 362.097656 C 437.058594 361.441406 436.527344 360.472656 436.285156 359.945312 C 436.039062 359.421875 435.707031 358.914062 435.550781 358.816406 C 435.394531 358.71875 435.074219 358.273438 434.839844 357.824219 C 433.8125 355.859375 433.453125 355.253906 433.214844 355.085938 C 433.074219 354.988281 432.53125 354.25 432.007812 353.445312 C 430.5625 351.234375 428.355469 348.753906 423.558594 343.957031 C 417.746094 338.144531 412.589844 333.367188 409.367188 330.804688 C 407.914062 329.648438 406.230469 328.226562 405.632812 327.640625 C 404.417969 326.460938 404.136719 326.367188 403.875 327.050781 M 407.96875 357.132812 C 406.546875 357.242188 405.453125 357.496094 404.980469 357.828125 C 404.574219 358.117188 404.023438 358.351562 403.753906 358.351562 C 403.488281 358.351562 402.957031 358.621094 402.578125 358.953125 C 402.199219 359.28125 401.703125 359.550781 401.480469 359.550781 C 400.789062 359.550781 394.542969 365.980469 394.308594 366.929688 C 394.195312 367.40625 393.851562 368.117188 393.546875 368.507812 C 393.242188 368.902344 392.988281 369.507812 392.984375 369.859375 C 392.980469 370.207031 392.710938 371.078125 392.386719 371.796875 C 391.539062 373.664062 391.542969 379.523438 392.394531 381.28125 C 392.710938 381.941406 392.976562 382.832031 392.980469 383.265625 C 392.988281 383.695312 393.261719 384.390625 393.589844 384.808594 C 393.921875 385.230469 394.191406 385.65625 394.191406 385.757812 C 394.191406 386.820312 398.578125 391.550781 400.453125 392.507812 C 401.105469 392.839844 401.722656 393.25 401.824219 393.417969 C 401.929688 393.582031 402.335938 393.71875 402.726562 393.71875 C 403.121094 393.71875 403.886719 393.976562 404.433594 394.289062 C 406.332031 395.378906 416 395.308594 417.226562 394.195312 C 417.515625 393.933594 418.089844 393.71875 418.507812 393.71875 C 418.921875 393.71875 419.570312 393.449219 419.953125 393.121094 C 420.332031 392.789062 420.824219 392.519531 421.042969 392.519531 C 421.589844 392.519531 427.140625 386.953125 427.140625 386.40625 C 427.140625 386.167969 427.320312 385.789062 427.542969 385.570312 C 428.980469 384.125 430.375 378.300781 430.019531 375.214844 C 429.582031 371.433594 429.332031 370.152344 428.847656 369.234375 C 428.566406 368.703125 428.339844 368.082031 428.339844 367.84375 C 428.339844 367.609375 428.128906 367.242188 427.871094 367.03125 C 427.617188 366.816406 427.222656 366.207031 427 365.675781 C 426.347656 364.113281 421.457031 359.550781 420.433594 359.550781 C 420.300781 359.550781 419.851562 359.28125 419.433594 358.953125 C 419.015625 358.621094 418.402344 358.351562 418.074219 358.351562 C 417.746094 358.351562 417.054688 358.101562 416.542969 357.792969 C 415.46875 357.148438 411.644531 356.855469 407.96875 357.132812 M 409.867188 369.550781 C 409.183594 369.738281 408.363281 370.128906 408.046875 370.417969 C 407.730469 370.703125 407.375 370.941406 407.253906 370.941406 C 407.003906 370.941406 405.695312 372.429688 404.902344 373.609375 C 404.3125 374.484375 404.144531 378.554688 404.679688 378.886719 C 404.847656 378.988281 405.175781 379.503906 405.410156 380.027344 C 406.007812 381.359375 406.734375 382.09375 408.054688 382.707031 C 410.359375 383.769531 412.234375 383.148438 415.03125 380.382812 C 417.023438 378.414062 418.152344 376.753906 418.152344 375.800781 C 418.152344 373.859375 414.964844 370.101562 412.910156 369.625 C 412.417969 369.507812 411.8125 369.367188 411.5625 369.3125 C 411.316406 369.253906 410.554688 369.363281 409.867188 369.550781 M 337.425781 398.71875 C 336.765625 399.480469 335.789062 400.722656 335.25 401.480469 C 332.101562 405.9375 332.375 405.300781 332.359375 408.257812 C 332.335938 412.082031 333.046875 413.082031 334.796875 411.703125 C 335.214844 411.375 335.75 411.105469 335.984375 411.105469 C 336.21875 411.105469 336.90625 410.84375 337.515625 410.527344 C 338.125 410.214844 338.960938 409.808594 339.371094 409.632812 C 339.785156 409.453125 340.324219 409.195312 340.570312 409.050781 C 340.816406 408.910156 341.660156 408.472656 342.441406 408.082031 C 343.226562 407.691406 343.867188 407.253906 343.867188 407.109375 C 343.867188 406.96875 343.597656 406.507812 343.265625 406.089844 C 342.9375 405.671875 342.667969 405.132812 342.667969 404.890625 C 342.667969 404.652344 342.398438 404.113281 342.066406 403.691406 C 341.738281 403.273438 341.46875 402.695312 341.46875 402.410156 C 341.46875 402.125 341.199219 401.550781 340.871094 401.132812 C 340.539062 400.710938 340.269531 400.265625 340.269531 400.136719 C 340.269531 399.726562 339.027344 397.316406 338.820312 397.328125 C 338.710938 397.332031 338.085938 397.957031 337.425781 398.71875 " fill-opacity="1" fill-rule="evenodd"/></svg>