<svg xmlns="http://www.w3.org/2000/svg" xmlns:xlink="http://www.w3.org/1999/xlink" width="1140" zoomAndPan="magnify" viewBox="302.519531 210.105469 255.945313 249.800781" height="892" preserveAspectRatio="xMidYMid meet" version="1.0"><path fill="#229c30" d="M 412.140625 222.082031 C 406.78125 223.25 396.035156 227.296875 388.253906 231.070312 C 376.875 236.585938 372.101562 239.90625 363.824219 248.058594 C 352.617188 259.089844 344.171875 270.996094 340.4375 281.023438 C 337.621094 288.589844 338.125 290.910156 342.597656 290.910156 C 345.300781 290.910156 346.917969 288.9375 351.601562 279.925781 C 362.667969 258.648438 382.339844 241.8125 405 234.226562 C 415.308594 230.773438 418.171875 230.4375 437.191406 230.4375 C 456.210938 230.4375 459.074219 230.773438 469.382812 234.226562 C 480.726562 238.023438 496.152344 247.292969 506.78125 256.699219 L 512.347656 261.628906 L 505.316406 261.648438 C 497.660156 261.671875 494.949219 263.347656 494.949219 268.0625 C 494.949219 272.253906 497.15625 272.808594 513.851562 272.808594 L 528.351562 272.808594 L 528.351562 254.855469 C 528.351562 239.5625 528.015625 236.773438 526.085938 236.035156 C 522.304688 234.582031 520.308594 237.699219 519.230469 246.761719 C 518.664062 251.515625 517.941406 254.65625 517.621094 253.742188 C 516.710938 251.140625 498 237.375 487.992188 231.9375 C 473.664062 224.160156 460.847656 221.101562 439.976562 220.484375 C 427.148438 220.105469 419.046875 220.570312 412.140625 222.082031 M 427.226562 262.539062 C 418.71875 271.6875 406.011719 288.722656 398.511719 301.039062 C 384.214844 324.515625 386.496094 348.515625 404.613281 365.300781 C 411.585938 371.757812 424.359375 378.632812 429.382812 378.632812 C 430.007812 378.632812 430.945312 384.71875 431.46875 392.160156 C 432.507812 406.953125 434.0625 409.8125 439.273438 406.515625 C 440.933594 405.464844 441.277344 402.496094 440.972656 391.917969 C 440.601562 379.152344 440.703125 378.632812 443.566406 378.632812 C 448.917969 378.632812 462.941406 369.972656 469.871094 362.382812 C 482.261719 348.820312 485.910156 329.703125 479.449219 312.199219 C 472.789062 294.140625 442.566406 254.707031 435.390625 254.707031 C 434.910156 254.707031 431.234375 258.230469 427.226562 262.539062 M 429.507812 275.246094 C 420 286.03125 407.441406 304.121094 403.457031 312.773438 C 393.457031 334.496094 400.609375 354.265625 422.480469 365.355469 C 426.3125 367.296875 429.777344 368.886719 430.1875 368.886719 C 430.597656 368.886719 430.929688 367.042969 430.929688 364.792969 C 430.929688 362.011719 428.664062 357.742188 423.867188 351.480469 C 418.144531 344.011719 417.121094 341.882812 418.472656 340.257812 C 420.875 337.363281 424.824219 337.792969 428.089844 341.300781 L 430.929688 344.347656 L 430.929688 340.167969 C 430.929688 337.746094 428.542969 332.03125 425.253906 326.574219 C 422.132812 321.394531 419.925781 316.25 420.351562 315.140625 C 421.789062 311.386719 425.582031 311.183594 428.292969 314.710938 C 430.867188 318.0625 430.867188 318.058594 430.898438 307.550781 C 430.929688 296.796875 432.214844 293.695312 436.625 293.695312 C 440.03125 293.695312 440.671875 296.503906 440.671875 311.476562 L 440.671875 324.847656 L 444.707031 320.980469 C 449.5625 316.328125 453.722656 316.628906 454.308594 321.671875 C 454.625 324.375 453 327.097656 447.699219 332.746094 L 440.671875 340.234375 L 440.671875 353.78125 C 440.671875 361.234375 441.15625 367.628906 441.746094 367.996094 C 443.589844 369.132812 456.058594 362.394531 461.03125 357.570312 C 476.921875 342.160156 476.457031 321.957031 459.625 296.792969 C 452.265625 285.789062 438.183594 268.632812 436.507812 268.632812 C 435.867188 268.632812 432.71875 271.609375 429.507812 275.246094 M 532.972656 288.96875 C 532.5 290.199219 533.609375 295.367188 535.441406 300.457031 C 538.230469 308.226562 538.753906 312.273438 538.714844 325.722656 C 538.628906 355.265625 530.300781 375.390625 509.609375 396.070312 C 496.671875 408.996094 487.054688 415.21875 472.011719 420.398438 L 464.3125 423.046875 L 469.195312 416.65625 C 471.878906 413.136719 474.074219 409.535156 474.074219 408.648438 C 474.074219 406.542969 471.183594 403.699219 469.046875 403.699219 C 466.890625 403.699219 447.628906 427.785156 447.628906 430.484375 C 447.628906 432.621094 468.492188 447.433594 473.527344 448.871094 C 477.148438 449.90625 480.195312 446.628906 479.03125 442.957031 C 478.570312 441.503906 474.992188 438.570312 471.082031 436.441406 L 463.972656 432.570312 L 473.769531 429.460938 C 517.9375 415.453125 547.765625 374.210938 548.296875 326.417969 C 548.464844 311.398438 545.335938 292.820312 541.910156 288.472656 C 539.949219 285.988281 533.988281 286.320312 532.972656 288.96875 M 322.546875 319.277344 C 315.707031 326.167969 312.519531 330.398438 312.859375 332.140625 C 313.722656 336.640625 318.191406 336.039062 323.671875 330.683594 L 328.835938 325.640625 L 330.5625 336.921875 C 333.554688 356.464844 340.605469 374.457031 345.273438 374.457031 C 349.390625 374.457031 349.949219 371.359375 347.242188 363.511719 C 343.144531 351.625 339.074219 334.851562 339.074219 329.851562 L 339.074219 325.398438 L 344.734375 330.515625 C 350.679688 335.886719 353.769531 336.378906 356.304688 332.351562 C 357.585938 330.316406 356.183594 328.277344 347.441406 319.472656 C 341.726562 313.71875 336.085938 309.011719 334.898438 309.011719 C 333.710938 309.011719 328.15625 313.628906 322.546875 319.277344 M 350.253906 382.71875 C 348.109375 386.730469 348.410156 387.824219 353.136719 393.207031 C 356.277344 396.789062 358.589844 398.128906 361.636719 398.128906 C 365.480469 398.128906 365.742188 397.824219 364.878906 394.382812 C 363.914062 390.535156 359.125 382.910156 356.535156 381.089844 C 354.027344 379.332031 351.75 379.921875 350.253906 382.71875 M 374.796875 407.410156 C 372.121094 410.085938 374.378906 413.679688 381.171875 417.582031 C 389.8125 422.539062 392.707031 422.816406 394.804688 418.898438 C 396.898438 414.980469 393.679688 411.507812 385.308594 408.65625 C 378.300781 406.265625 376.191406 406.015625 374.796875 407.410156 M 403.628906 422.410156 C 402.148438 426.269531 404.136719 428.421875 411.414062 430.839844 C 418.578125 433.222656 425.125 432.792969 426.957031 429.820312 C 429.46875 425.761719 424.265625 422.910156 411.085938 421.128906 C 405.800781 420.414062 404.296875 420.671875 403.628906 422.410156 " fill-opacity="1" fill-rule="evenodd"/></svg>