<svg xmlns="http://www.w3.org/2000/svg" xmlns:xlink="http://www.w3.org/1999/xlink" width="1140" zoomAndPan="magnify" viewBox="306.8125 204.871094 242.79296899999997 225.980468" height="892" preserveAspectRatio="xMidYMid meet" version="1.0"><path fill="#229c30" d="M 448.042969 220.191406 C 445.890625 221.800781 440.667969 226.226562 436.441406 230.035156 C 432.214844 233.839844 425.84375 238.550781 422.289062 240.503906 C 417.585938 243.085938 415.519531 245.132812 414.691406 248.019531 C 414.015625 250.378906 407.3125 258.5 398.15625 268.046875 C 389.148438 277.445312 382.75 285.1875 382.730469 286.707031 C 382.707031 288.316406 387.984375 294.496094 396.644531 303 C 407.371094 313.535156 412.8125 317.8125 420.183594 321.5 C 430.332031 326.578125 432.289062 326.460938 434.035156 320.65625 C 434.5 319.113281 436.921875 313.050781 439.414062 307.183594 L 443.949219 296.511719 L 454.488281 305.886719 C 482.691406 330.953125 497.578125 347.308594 504.363281 360.679688 C 508.496094 368.824219 514.257812 373.601562 519.957031 373.601562 C 526.769531 373.601562 533.730469 368.882812 537.054688 362.019531 C 539.382812 357.199219 539.605469 355.542969 538.464844 351.359375 C 536.535156 344.273438 522.6875 326.476562 503.582031 306.53125 C 479.679688 281.582031 465.722656 266.351562 465.722656 265.21875 C 465.722656 264.671875 467.992188 261.359375 470.761719 257.855469 C 477.507812 249.3125 480.355469 243.53125 479.472656 240.167969 C 479.070312 238.640625 474.488281 232.863281 469.289062 227.332031 C 458.691406 216.054688 455.175781 214.871094 448.042969 220.191406 M 441.726562 236.085938 C 427.589844 249.226562 426.667969 250.152344 415.457031 262.457031 L 405.621094 273.25 L 418.460938 286.140625 C 425.523438 293.234375 431.640625 299.035156 432.058594 299.035156 C 432.476562 299.035156 434.191406 296.550781 435.871094 293.519531 C 440.730469 284.746094 448.382812 273.539062 460.242188 257.847656 L 471.261719 243.265625 L 463.84375 234.8125 C 459.761719 230.160156 455.453125 226.375 454.261719 226.394531 C 453.074219 226.417969 447.433594 230.777344 441.726562 236.085938 M 454.21875 280.292969 C 451.273438 284.410156 448.859375 288.222656 448.859375 288.765625 C 448.859375 289.308594 453.96875 294.296875 460.210938 299.847656 C 481.160156 318.476562 500.042969 338.355469 506.894531 349 C 516.714844 364.257812 517.503906 365.222656 520.167969 365.222656 C 523.828125 365.222656 530.585938 358.953125 530.585938 355.554688 C 530.585938 348.550781 510.933594 325.449219 464.457031 277.808594 L 459.578125 272.804688 Z M 395.75 282.730469 L 392.785156 285.890625 L 395.535156 289.753906 C 400.464844 296.679688 422.230469 314.609375 425.707031 314.609375 C 426.195312 314.609375 427.113281 313.039062 427.75 311.125 C 428.820312 307.914062 428.246094 307.066406 420.367188 300.28125 C 415.667969 296.234375 409.121094 289.917969 405.820312 286.246094 C 402.519531 282.574219 399.570312 279.566406 399.269531 279.566406 C 398.96875 279.566406 397.386719 280.988281 395.75 282.730469 M 349.90625 312.132812 C 343.011719 313.753906 337.976562 316.582031 334.820312 320.597656 C 332.367188 323.71875 332.105469 325.769531 332.085938 342.363281 C 332.074219 352.4375 331.515625 365.886719 330.847656 372.25 C 329.75 382.703125 329.058594 384.746094 323.667969 393.480469 C 317.527344 403.4375 316.8125 407.042969 320.835938 407.820312 C 324.023438 408.433594 325.964844 406.550781 331.191406 397.773438 C 337.804688 386.667969 338.847656 382.304688 339.773438 361.847656 C 340.234375 351.648438 340.929688 342.988281 341.316406 342.601562 C 341.707031 342.214844 345.484375 343.160156 349.714844 344.707031 C 364.828125 350.238281 411.410156 349.230469 425.351562 343.074219 C 428.472656 341.695312 431.183594 340.566406 431.378906 340.566406 C 431.570312 340.566406 432.132812 345.382812 432.632812 351.273438 C 434.003906 367.527344 437.855469 388.816406 440.382812 394.144531 C 443.230469 400.148438 451.796875 409.9375 458.375 414.703125 C 462.347656 417.582031 463.949219 418.085938 465.871094 417.058594 C 467.21875 416.335938 468.320312 414.9375 468.320312 413.949219 C 468.320312 412.964844 463.707031 407.582031 458.070312 401.992188 C 448.234375 392.234375 447.742188 391.460938 445.789062 382.660156 C 444.667969 377.621094 442.796875 364.1875 441.628906 352.8125 C 439.613281 333.140625 438.535156 328.882812 435.5625 328.882812 C 434.847656 328.882812 430.6875 330.625 426.316406 332.75 C 415.570312 337.984375 403.414062 339.578125 378.417969 339.019531 C 359.628906 338.601562 356.582031 338.210938 349.621094 335.332031 C 343.183594 332.671875 341.839844 331.578125 341.839844 329.015625 C 341.839844 327.140625 343.261719 324.855469 345.445312 323.226562 C 348.585938 320.878906 351.496094 320.445312 368.011719 319.84375 C 383.800781 319.265625 387.195312 318.789062 388.328125 316.988281 C 389.3125 315.421875 389.214844 314.257812 387.980469 312.769531 C 386.585938 311.085938 383.425781 310.738281 370.542969 310.84375 C 361.890625 310.917969 352.605469 311.496094 349.90625 312.132812 M 390.4375 322.742188 C 388.679688 323.433594 382.339844 324.367188 376.351562 324.816406 C 368.226562 325.429688 365.117188 326.1875 364.101562 327.800781 C 363.121094 329.367188 363.214844 330.53125 364.449219 332.019531 C 367.957031 336.25 393.941406 333.453125 398.136719 328.394531 C 401.546875 324.28125 396.308594 320.433594 390.4375 322.742188 M 412.980469 359.449219 C 412.558594 360.554688 412.476562 367.710938 412.800781 375.347656 C 413.480469 391.390625 415.769531 397.667969 420.9375 397.667969 C 425.75 397.667969 426.996094 394.113281 424.082031 388.675781 C 422.179688 385.128906 421.617188 381.390625 421.617188 372.316406 C 421.617188 364.894531 421.042969 359.976562 420.0625 358.992188 C 417.871094 356.800781 413.898438 357.058594 412.980469 359.449219 M 360.140625 362.085938 C 359.707031 363.214844 359.351562 369.253906 359.351562 375.503906 C 359.351562 385.53125 358.894531 387.773438 355.488281 394.539062 C 353.363281 398.761719 348.976562 405.121094 345.734375 408.671875 C 342.496094 412.226562 340.144531 415.925781 340.515625 416.890625 C 340.886719 417.855469 341.191406 418.890625 341.191406 419.1875 C 341.191406 419.488281 342.570312 419.730469 344.257812 419.730469 C 348.660156 419.730469 358.660156 408.503906 363.644531 397.957031 C 367.09375 390.660156 367.847656 387.367188 368.234375 377.835938 C 368.820312 363.324219 368.039062 360.03125 364.007812 360.03125 C 362.3125 360.03125 360.574219 360.957031 360.140625 362.085938 M 388.757812 403.726562 C 385.804688 406.675781 391.375 415.515625 398.515625 419.210938 C 401.5 420.753906 402.753906 420.851562 404.199219 419.652344 C 407.152344 417.203125 406.449219 415.484375 399.847656 408.976562 C 394.019531 403.234375 390.78125 401.699219 388.757812 403.726562 " fill-opacity="1" fill-rule="evenodd"/></svg>