<svg xmlns="http://www.w3.org/2000/svg" xmlns:xlink="http://www.w3.org/1999/xlink" width="1140" zoomAndPan="magnify" viewBox="306.363281 208.988281 247.81250000000006 259.46875" height="892" preserveAspectRatio="xMidYMid meet" version="1.0"><path fill="#229c30" d="M 475.382812 229.351562 C 473.023438 235.054688 468.71875 245.507812 465.8125 252.585938 C 462.910156 259.660156 460.363281 265.644531 460.144531 265.882812 C 459.933594 266.117188 456.140625 263.773438 451.722656 260.675781 C 436.59375 250.058594 416.996094 247.78125 401.125 254.789062 C 393.921875 257.972656 383.890625 266.972656 379.285156 274.386719 C 377.054688 277.984375 375.417969 279.035156 372.042969 279.035156 C 360.078125 279.035156 347.851562 287.007812 342.34375 298.398438 C 339.757812 303.75 339.378906 306.257812 340.179688 312.691406 C 340.8125 317.753906 340.636719 320.492188 339.675781 320.492188 C 336.378906 320.492188 328.269531 329.503906 325.257812 336.511719 C 316.363281 357.226562 328.976562 385.320312 350.859375 393.519531 C 356.96875 395.808594 361.398438 396.394531 370.328125 396.085938 C 381.417969 395.699219 382.113281 395.867188 387.257812 400.113281 C 393.757812 405.480469 406.121094 409.597656 416.171875 409.742188 L 423.585938 409.847656 L 424.453125 452.027344 L 404.726562 452.023438 C 385.085938 452.023438 385.003906 452.035156 385.457031 455.238281 L 385.914062 458.457031 L 468.703125 458.457031 L 469.160156 455.238281 C 469.613281 452.039062 469.515625 452.023438 450.246094 452.023438 L 430.875 452.023438 L 430.875 430.535156 C 430.875 414.566406 431.335938 408.910156 432.660156 408.53125 C 442.496094 405.707031 449.265625 402.050781 455.898438 395.976562 C 461.566406 390.792969 464.234375 389.195312 465.511719 390.234375 C 466.480469 391.023438 471.011719 392.433594 475.578125 393.371094 C 491.464844 396.636719 506.851562 391.867188 517.109375 380.492188 C 524.308594 372.511719 526.515625 366.71875 526.515625 355.796875 C 526.515625 348.488281 525.648438 344.945312 522.132812 337.902344 C 517.847656 329.316406 512.289062 323.351562 508.5625 323.351562 C 504.535156 323.351562 505.105469 326.582031 510.121094 332.144531 C 516.90625 339.664062 519.746094 346.625 519.664062 355.519531 C 519.582031 364.472656 517.9375 368.816406 512.113281 375.460938 C 506.480469 381.886719 499.375 385.65625 490.347656 387.011719 C 481.875 388.285156 466.5625 385.34375 466.5625 382.445312 C 466.5625 377.40625 462.019531 379.351562 453.457031 388.054688 C 447.074219 394.550781 442.457031 397.898438 437.65625 399.519531 L 430.875 401.8125 L 430.875 370.527344 C 430.875 339.019531 430.296875 335.410156 425.816406 339.132812 C 424.1875 340.484375 423.738281 344.984375 423.738281 359.964844 L 423.738281 379.074219 L 415.53125 375.441406 C 411.019531 373.445312 405.277344 369.832031 402.78125 367.410156 C 397.847656 362.632812 393.765625 362.726562 393.765625 367.617188 C 393.765625 371.316406 402.3125 377.566406 414.441406 382.730469 L 423.738281 386.6875 L 423.738281 403.78125 L 414.828125 402.773438 C 403.910156 401.535156 393.964844 397.414062 388.746094 391.957031 C 384.902344 387.9375 384.589844 387.871094 373.234375 388.65625 C 358.183594 389.695312 351 387.6875 342.839844 380.15625 C 333.1875 371.246094 330.347656 364.804688 330.289062 351.71875 C 330.246094 341.808594 330.652344 340.1875 334.527344 334.710938 C 336.882812 331.378906 340.953125 327.511719 343.574219 326.117188 C 350.148438 322.613281 350.027344 322.910156 348.027344 315.085938 C 345.816406 306.4375 346.847656 301.992188 352.585938 295.445312 C 358.601562 288.582031 361.5 287.234375 372.289062 286.28125 C 381.210938 285.492188 381.59375 285.292969 384.355469 280.027344 C 389.078125 271.03125 399.484375 262.371094 408.855469 259.640625 C 424.070312 255.210938 442.789062 259.78125 452.949219 270.402344 L 457.09375 274.734375 L 452.539062 285.820312 C 447.652344 297.707031 446.953125 301.828125 449.789062 302.042969 C 450.773438 302.113281 458.480469 302.0625 466.917969 301.929688 C 475.359375 301.796875 482.265625 302 482.265625 302.386719 C 482.265625 302.769531 478.089844 314.433594 472.984375 328.300781 C 467.882812 342.171875 463.707031 355.140625 463.707031 357.121094 C 463.707031 364.917969 469.582031 360.246094 489.082031 336.933594 C 499.609375 324.355469 515.871094 305.222656 525.21875 294.417969 C 541.3125 275.816406 544.175781 271.347656 540.734375 270.199219 C 539.917969 269.925781 532.179688 270.269531 523.53125 270.960938 C 514.886719 271.648438 507.472656 271.875 507.058594 271.460938 C 506.644531 271.050781 513.359375 259.921875 521.976562 246.738281 C 530.597656 233.554688 537.324219 221.917969 536.925781 220.878906 C 536.359375 219.398438 530.054688 218.988281 507.9375 218.988281 L 479.675781 218.988281 Z M 483.273438 228.636719 C 482.859375 230.011719 477.082031 244.378906 470.433594 260.558594 C 463.785156 276.742188 457.902344 291.378906 457.359375 293.085938 C 456.394531 296.140625 456.617188 296.191406 472 296.191406 C 483.871094 296.191406 488.035156 296.6875 489.335938 298.253906 C 491.007812 300.273438 490.410156 302.148438 476.425781 338.722656 C 475.75 340.492188 475.460938 341.9375 475.785156 341.9375 C 476.109375 341.9375 480.40625 336.953125 485.335938 330.859375 C 490.269531 324.765625 501.390625 311.410156 510.054688 301.183594 C 518.714844 290.957031 526.722656 281.414062 527.851562 279.980469 C 529.824219 277.484375 529.289062 277.417969 514.96875 278.378906 C 491.671875 279.941406 491.667969 279.808594 513.882812 246.546875 C 520.832031 236.148438 526.515625 227.304688 526.515625 226.886719 C 526.515625 226.472656 516.953125 226.136719 505.269531 226.136719 C 486.273438 226.136719 483.945312 226.402344 483.273438 228.636719 " fill-opacity="1" fill-rule="evenodd"/></svg>