<svg xmlns="http://www.w3.org/2000/svg" xmlns:xlink="http://www.w3.org/1999/xlink" width="1140" zoomAndPan="magnify" viewBox="304.417969 230.230469 257.082031 204.183593" height="892" preserveAspectRatio="xMidYMid meet" version="1.0"><path fill="#000000" d="M 506.914062 242.429688 C 479.4375 245.285156 459.558594 254.074219 423.90625 279.117188 C 402.382812 294.238281 377.742188 313.207031 370.078125 320.554688 C 364.179688 326.210938 363.371094 329.367188 366.910156 332.898438 C 369.117188 335.109375 368.972656 335.28125 344.132812 359.804688 C 330.382812 373.378906 318.316406 386.015625 317.316406 387.882812 C 314.417969 393.304688 315 403.054688 318.589844 409.175781 C 321.808594 414.664062 328.324219 420.441406 333.640625 422.515625 C 338.503906 424.414062 347.121094 423.902344 351.941406 421.433594 C 354.277344 420.238281 359.246094 415.78125 362.984375 411.53125 C 371.605469 401.734375 402.179688 369.886719 403.464844 369.367188 C 403.996094 369.152344 406.695312 371.066406 409.464844 373.617188 C 416.527344 380.125 418.363281 379.789062 427.523438 370.304688 C 435.105469 362.453125 435.191406 362.296875 434.46875 357.488281 L 433.738281 352.617188 L 440.617188 353.113281 C 450.957031 353.863281 453.816406 350.203125 450.878906 339.964844 L 449.8125 336.242188 L 456.574219 337.007812 C 462.191406 337.644531 463.71875 337.429688 465.574219 335.75 C 467.984375 333.566406 468.394531 329.859375 466.828125 324.394531 L 465.84375 320.960938 L 473.070312 321.417969 C 482.691406 322.03125 484.0625 320.867188 483.460938 312.597656 L 483.003906 306.320312 L 490.1875 306.703125 C 499.398438 307.191406 500.679688 306.148438 500.679688 298.132812 C 500.679688 292.679688 500.921875 292.011719 502.664062 292.6875 C 503.753906 293.109375 506.941406 293.730469 509.75 294.066406 C 517 294.933594 520.050781 292.273438 520.804688 284.417969 L 521.371094 278.519531 L 525.117188 279.222656 C 527.175781 279.609375 530.640625 279.339844 532.8125 278.621094 C 540.78125 275.992188 551.5 260.683594 549.882812 254.246094 C 547.722656 245.640625 528.042969 240.230469 506.914062 242.429688 M 504.644531 253.769531 C 475.511719 257.964844 449.960938 272.105469 395.644531 314.097656 L 379.570312 326.523438 L 398.476562 345.460938 L 417.382812 364.402344 L 420.019531 361.988281 C 422.445312 359.765625 422.59375 358.972656 421.90625 352.101562 C 420.878906 341.886719 422.382812 340.324219 432.339844 341.253906 C 436.269531 341.621094 439.480469 341.777344 439.480469 341.605469 C 439.480469 341.429688 438.949219 338.402344 438.296875 334.875 C 437.425781 330.179688 437.460938 327.808594 438.417969 326.019531 C 439.625 323.761719 440.3125 323.632812 447.542969 324.304688 L 455.363281 325.03125 L 454.652344 317.347656 C 453.632812 306.410156 455.238281 305.453125 469.191406 308.6875 L 472.269531 309.402344 L 471.59375 303.710938 C 470.195312 291.902344 473.300781 289.207031 483.617188 293.269531 L 489.648438 295.644531 L 488.878906 289.824219 C 487.507812 279.511719 491.835938 276.4375 502.378906 280.234375 C 509.441406 282.777344 509.605469 282.664062 509.972656 274.925781 C 510.277344 268.617188 510.632812 267.703125 513.367188 266.171875 C 516.132812 264.628906 517.007812 264.664062 522.535156 266.539062 C 529.609375 268.941406 531.421875 268.3125 535.8125 261.910156 C 538.925781 257.363281 538.5625 256.910156 529.65625 254.207031 C 523.601562 252.371094 515.351562 252.226562 504.644531 253.769531 M 352.898438 366.703125 C 339.25 380.269531 327.609375 392.625 327.035156 394.15625 C 325.421875 398.460938 327.851562 404.8125 332.617188 408.738281 C 340.972656 415.621094 345.613281 414.46875 355.726562 403.003906 C 359.214844 399.050781 369.785156 387.75 379.21875 377.898438 L 396.367188 359.980469 L 392.140625 355.238281 C 386.046875 348.402344 379.449219 342.003906 378.519531 342.023438 C 378.078125 342.03125 366.550781 353.140625 352.898438 366.703125 " fill-opacity="1" fill-rule="evenodd"/></svg>