<svg xmlns="http://www.w3.org/2000/svg" xmlns:xlink="http://www.w3.org/1999/xlink" width="1140" zoomAndPan="magnify" viewBox="351.113281 230.664062 173.804688 203.40234399999997" height="892" preserveAspectRatio="xMidYMid meet" version="1.0"><path fill="#229c30" d="M 432.378906 240.867188 C 431.980469 240.949219 431.421875 241.105469 431.136719 241.214844 C 430.851562 241.324219 429.816406 241.496094 428.835938 241.597656 C 427.65625 241.71875 426.847656 241.902344 426.449219 242.136719 C 426.121094 242.332031 425.367188 242.578125 424.78125 242.683594 C 424.195312 242.785156 423.496094 243.027344 423.230469 243.21875 C 422.964844 243.410156 422.363281 243.652344 421.894531 243.757812 C 421.425781 243.863281 420.8125 244.117188 420.523438 244.320312 C 420.238281 244.523438 419.707031 244.773438 419.34375 244.871094 C 418.976562 244.972656 418.421875 245.25 418.113281 245.488281 C 417.800781 245.726562 417.421875 245.921875 417.273438 245.921875 C 417.125 245.921875 416.644531 246.164062 416.207031 246.460938 C 415.769531 246.757812 415.316406 247 415.199219 247.003906 C 415.085938 247.003906 414.746094 247.210938 414.449219 247.460938 C 414.152344 247.710938 413.625 248.035156 413.273438 248.179688 C 412.921875 248.328125 412.570312 248.558594 412.488281 248.695312 C 412.410156 248.832031 412.101562 249.082031 411.800781 249.246094 C 410.785156 249.816406 408.945312 251.144531 408.023438 251.972656 C 407.695312 252.273438 407.132812 252.78125 406.773438 253.101562 C 406.417969 253.425781 406.054688 253.691406 405.96875 253.691406 C 405.636719 253.691406 400.542969 258.984375 400.355469 259.523438 C 400.316406 259.644531 400.070312 259.957031 399.816406 260.214844 C 399.132812 260.910156 397.734375 262.871094 397.105469 264.007812 C 396.910156 264.371094 396.632812 264.707031 396.492188 264.761719 C 396.355469 264.816406 396.148438 265.214844 396.039062 265.652344 C 395.929688 266.089844 395.671875 266.601562 395.46875 266.785156 C 395.265625 266.96875 395.050781 267.4375 394.988281 267.828125 C 394.925781 268.21875 394.683594 268.746094 394.449219 269 C 394.214844 269.25 394.023438 269.472656 394.023438 269.488281 C 394.023438 269.96875 393.558594 271.78125 393.355469 272.097656 C 393.199219 272.339844 392.964844 273.265625 392.832031 274.164062 C 392.699219 275.058594 392.511719 275.867188 392.421875 275.960938 C 392.328125 276.050781 391.535156 276.210938 390.65625 276.308594 C 389.671875 276.421875 388.839844 276.625 388.484375 276.839844 C 388.167969 277.03125 387.394531 277.269531 386.769531 277.367188 C 386.140625 277.46875 385.417969 277.703125 385.15625 277.890625 C 384.898438 278.078125 384.21875 278.355469 383.652344 278.503906 C 383.082031 278.652344 382.480469 278.898438 382.308594 279.050781 C 382.140625 279.207031 381.644531 279.457031 381.203125 279.613281 C 380.765625 279.769531 380.242188 280.042969 380.039062 280.222656 C 379.839844 280.398438 379.410156 280.652344 379.085938 280.777344 C 378.765625 280.90625 378.5 281.070312 378.5 281.140625 C 378.5 281.214844 378.167969 281.421875 377.765625 281.605469 C 377.359375 281.789062 376.933594 282.070312 376.816406 282.234375 C 376.699219 282.402344 376.402344 282.640625 376.152344 282.773438 C 375.90625 282.902344 375.527344 283.179688 375.316406 283.386719 C 375.101562 283.597656 374.539062 284.050781 374.066406 284.398438 C 372.753906 285.359375 371.359375 286.6875 370.035156 288.234375 C 368.265625 290.308594 367.851562 290.839844 367.851562 291.050781 C 367.851562 291.15625 367.675781 291.367188 367.460938 291.515625 C 367.027344 291.820312 366.445312 292.710938 365.796875 294.070312 C 365.558594 294.570312 365.230469 295.089844 365.070312 295.222656 C 364.914062 295.355469 364.78125 295.605469 364.78125 295.785156 C 364.78125 295.960938 364.535156 296.574219 364.234375 297.144531 C 363.933594 297.71875 363.609375 298.542969 363.507812 298.980469 C 363.410156 299.417969 363.171875 299.996094 362.976562 300.261719 C 362.75 300.566406 362.574219 301.183594 362.503906 301.921875 C 362.441406 302.566406 362.199219 303.507812 361.964844 304.007812 C 361.609375 304.769531 361.507812 305.414062 361.351562 307.890625 C 361.117188 311.535156 361.113281 312.796875 361.339844 317.226562 C 361.5 320.300781 361.570312 320.808594 361.957031 321.652344 C 362.199219 322.175781 362.445312 323.074219 362.507812 323.652344 C 362.578125 324.285156 362.789062 324.960938 363.050781 325.367188 C 363.289062 325.734375 363.53125 326.332031 363.59375 326.695312 C 363.65625 327.058594 363.855469 327.546875 364.039062 327.78125 C 364.21875 328.011719 364.46875 328.507812 364.589844 328.882812 C 364.710938 329.253906 364.953125 329.660156 365.128906 329.785156 C 365.304688 329.910156 365.550781 330.324219 365.675781 330.707031 C 365.804688 331.089844 366.101562 331.574219 366.335938 331.777344 C 366.574219 331.984375 366.769531 332.230469 366.769531 332.320312 C 366.769531 332.535156 367.4375 333.375 368.890625 334.980469 C 369.507812 335.667969 370.023438 336.292969 370.03125 336.371094 C 370.039062 336.449219 370.0625 338.710938 370.089844 341.390625 C 370.128906 345.503906 370.183594 346.394531 370.449219 347.082031 C 370.910156 348.289062 371.058594 348.871094 371.179688 349.972656 C 371.238281 350.519531 371.441406 351.171875 371.625 351.429688 C 371.8125 351.683594 372.0625 352.375 372.179688 352.964844 C 372.308594 353.582031 372.574219 354.226562 372.808594 354.488281 C 373.035156 354.738281 373.273438 355.230469 373.335938 355.589844 C 373.398438 355.945312 373.644531 356.417969 373.882812 356.640625 C 374.121094 356.867188 374.363281 357.316406 374.425781 357.648438 C 374.488281 357.976562 374.671875 358.355469 374.835938 358.488281 C 374.996094 358.625 375.28125 359.078125 375.46875 359.5 C 375.65625 359.921875 375.867188 360.269531 375.941406 360.269531 C 376.011719 360.269531 376.226562 360.554688 376.414062 360.90625 C 376.605469 361.257812 376.992188 361.808594 377.273438 362.128906 C 378.582031 363.609375 379.921875 365.046875 380.640625 365.742188 C 381.074219 366.160156 381.644531 366.710938 381.90625 366.96875 C 382.167969 367.226562 382.996094 367.957031 383.75 368.59375 C 385.023438 369.675781 385.492188 370.003906 386.84375 370.773438 C 387.132812 370.9375 387.507812 371.199219 387.671875 371.347656 C 387.839844 371.5 388.34375 371.78125 388.792969 371.972656 C 389.238281 372.164062 389.714844 372.453125 389.847656 372.613281 C 389.980469 372.773438 390.386719 372.957031 390.746094 373.019531 C 391.109375 373.082031 391.695312 373.328125 392.046875 373.566406 C 392.398438 373.800781 393.152344 374.082031 393.722656 374.1875 C 394.292969 374.292969 395.027344 374.539062 395.355469 374.730469 C 395.683594 374.925781 396.554688 375.160156 397.289062 375.253906 C 398.023438 375.347656 398.914062 375.542969 399.261719 375.6875 C 401.191406 376.496094 409.234375 376.527344 410.769531 375.734375 C 411.070312 375.578125 411.914062 375.359375 412.640625 375.25 C 413.371094 375.136719 414.21875 374.894531 414.523438 374.707031 C 414.828125 374.519531 415.488281 374.28125 415.992188 374.171875 C 416.496094 374.066406 417.171875 373.777344 417.503906 373.535156 C 417.832031 373.292969 418.199219 373.09375 418.320312 373.09375 C 418.445312 373.09375 418.773438 372.902344 419.054688 372.667969 C 419.335938 372.433594 419.746094 372.183594 419.964844 372.113281 C 420.347656 371.996094 421.429688 371.207031 422.316406 370.40625 C 422.707031 370.050781 422.722656 370.050781 422.902344 370.382812 C 423.207031 370.953125 423.097656 372.21875 422.628906 373.546875 C 422.34375 374.351562 422.113281 375.535156 422 376.816406 C 421.890625 378.0625 421.691406 379.121094 421.472656 379.617188 C 421.277344 380.054688 421.066406 381.0625 420.996094 381.855469 C 420.925781 382.648438 420.675781 383.929688 420.433594 384.699219 C 420.195312 385.472656 419.925781 386.746094 419.835938 387.535156 C 419.746094 388.324219 419.515625 389.277344 419.324219 389.65625 C 419.128906 390.035156 418.878906 390.941406 418.769531 391.671875 C 418.65625 392.398438 418.410156 393.292969 418.222656 393.660156 C 418.039062 394.023438 417.804688 394.988281 417.707031 395.804688 C 417.59375 396.753906 417.386719 397.511719 417.132812 397.921875 C 416.90625 398.292969 416.699219 398.996094 416.640625 399.601562 C 416.585938 400.191406 416.367188 400.953125 416.132812 401.367188 C 415.902344 401.765625 415.660156 402.496094 415.589844 402.992188 C 415.519531 403.488281 415.273438 404.230469 415.039062 404.636719 C 414.804688 405.046875 414.523438 405.769531 414.417969 406.242188 C 414.3125 406.71875 414.070312 407.304688 413.875 407.550781 C 413.683594 407.792969 413.472656 408.292969 413.410156 408.652344 C 413.34375 409.015625 413.105469 409.515625 412.875 409.765625 C 412.640625 410.011719 412.324219 410.5 412.164062 410.847656 C 411.65625 411.960938 409.816406 414.101562 409.367188 414.101562 C 409.257812 414.101562 408.945312 414.265625 408.671875 414.46875 C 408.394531 414.671875 407.632812 414.953125 406.980469 415.089844 C 406.324219 415.226562 405.539062 415.46875 405.238281 415.621094 C 404.789062 415.855469 403.976562 415.90625 400.757812 415.90625 C 398.589844 415.90625 395.535156 415.960938 393.960938 416.027344 L 391.105469 416.144531 L 390.351562 416.867188 C 389.640625 417.550781 389.59375 417.660156 389.496094 418.871094 C 389.4375 419.574219 389.453125 420.632812 389.53125 421.222656 C 389.660156 422.179688 389.753906 422.367188 390.449219 422.980469 C 390.875 423.355469 391.511719 423.738281 391.855469 423.828125 C 392.65625 424.035156 478.820312 424.066406 479.929688 423.859375 C 480.371094 423.777344 480.816406 423.601562 480.921875 423.464844 C 481.027344 423.332031 481.425781 423.0625 481.804688 422.871094 C 482.683594 422.421875 483.007812 421.785156 483.132812 420.273438 C 483.253906 418.792969 482.96875 417.617188 482.417969 417.332031 C 482.195312 417.21875 481.855469 416.933594 481.65625 416.695312 C 481.105469 416.042969 479.875 415.90625 474.515625 415.90625 C 469.707031 415.90625 469.675781 415.902344 468.808594 415.453125 C 468.332031 415.203125 467.652344 414.675781 467.304688 414.273438 C 466.957031 413.875 466.25 413.105469 465.730469 412.5625 C 465.214844 412.019531 464.664062 411.328125 464.507812 411.03125 C 464.355469 410.730469 464.144531 410.488281 464.042969 410.488281 C 463.941406 410.488281 463.703125 410.136719 463.511719 409.707031 C 463.324219 409.28125 463.003906 408.78125 462.800781 408.597656 C 462.597656 408.414062 462.433594 408.125 462.433594 407.957031 C 462.433594 407.785156 462.21875 407.332031 461.957031 406.945312 C 461.691406 406.558594 461.402344 405.957031 461.308594 405.609375 C 461.214844 405.261719 460.953125 404.691406 460.722656 404.34375 C 460.492188 403.996094 460.25 403.390625 460.179688 402.996094 C 460.113281 402.601562 459.867188 401.953125 459.640625 401.550781 C 459.410156 401.152344 459.167969 400.441406 459.105469 399.976562 C 459.039062 399.511719 458.816406 398.921875 458.613281 398.660156 C 458.371094 398.347656 458.1875 397.726562 458.074219 396.820312 C 457.980469 396.066406 457.738281 395.121094 457.53125 394.71875 C 457.277344 394.222656 457.109375 393.390625 456.996094 392.097656 C 456.890625 390.863281 456.703125 389.917969 456.453125 389.371094 C 456.160156 388.726562 456.023438 387.832031 455.835938 385.378906 C 455.707031 383.640625 455.46875 381.808594 455.308594 381.3125 C 454.933594 380.136719 454.546875 372.648438 454.847656 372.289062 C 454.953125 372.15625 455.398438 371.996094 455.828125 371.933594 C 456.261719 371.867188 456.757812 371.65625 456.929688 371.46875 C 457.101562 371.277344 457.535156 371.023438 457.898438 370.90625 C 458.257812 370.789062 458.820312 370.460938 459.144531 370.179688 C 459.472656 369.894531 459.84375 369.664062 459.972656 369.664062 C 460.105469 369.664062 460.351562 369.507812 460.519531 369.320312 C 461.023438 368.761719 461.714844 368.726562 462.433594 369.214844 C 462.835938 369.492188 463.457031 369.691406 464.148438 369.769531 C 464.742188 369.835938 465.71875 370.101562 466.3125 370.355469 C 467.378906 370.816406 467.488281 370.824219 472.503906 370.890625 C 477.78125 370.960938 480.042969 370.804688 481.035156 370.289062 C 481.335938 370.132812 482.285156 369.925781 483.140625 369.828125 C 484.101562 369.71875 484.917969 369.515625 485.265625 369.300781 C 485.578125 369.105469 486.273438 368.859375 486.8125 368.75 C 487.351562 368.640625 488.015625 368.390625 488.289062 368.199219 C 488.558594 368.003906 489.046875 367.796875 489.371094 367.734375 C 490.003906 367.617188 490.625 367.34375 490.769531 367.125 C 490.820312 367.050781 491.328125 366.78125 491.898438 366.527344 C 492.46875 366.277344 492.9375 365.996094 492.9375 365.90625 C 492.9375 365.816406 493.246094 365.652344 493.625 365.539062 C 494.003906 365.425781 494.503906 365.128906 494.738281 364.878906 C 494.972656 364.628906 495.265625 364.421875 495.390625 364.421875 C 495.515625 364.421875 495.847656 364.230469 496.125 363.996094 C 496.40625 363.761719 496.878906 363.445312 497.179688 363.289062 C 497.476562 363.136719 498.191406 362.578125 498.769531 362.046875 C 499.34375 361.515625 500.0625 360.878906 500.367188 360.628906 C 500.671875 360.382812 501.507812 359.570312 502.234375 358.824219 C 502.957031 358.078125 503.800781 357.21875 504.109375 356.917969 C 504.417969 356.613281 504.667969 356.300781 504.667969 356.222656 C 504.667969 356.144531 504.894531 355.851562 505.164062 355.574219 C 505.910156 354.820312 507.40625 352.722656 507.8125 351.867188 C 507.953125 351.566406 508.234375 351.171875 508.433594 350.988281 C 508.636719 350.804688 508.851562 350.425781 508.914062 350.144531 C 508.976562 349.859375 509.265625 349.328125 509.554688 348.964844 C 509.847656 348.597656 510.085938 348.136719 510.085938 347.941406 C 510.085938 347.746094 510.285156 347.347656 510.527344 347.058594 C 510.773438 346.765625 511.023438 346.226562 511.089844 345.855469 C 511.152344 345.488281 511.398438 344.902344 511.628906 344.554688 C 511.863281 344.207031 512.109375 343.554688 512.175781 343.109375 C 512.242188 342.660156 512.492188 341.878906 512.726562 341.371094 C 512.960938 340.863281 513.230469 339.847656 513.324219 339.113281 C 513.417969 338.378906 513.660156 337.402344 513.863281 336.941406 C 514.917969 334.5625 514.910156 321.136719 513.855469 318.730469 C 513.660156 318.289062 513.421875 317.359375 513.324219 316.667969 C 513.226562 315.976562 512.972656 315.128906 512.757812 314.78125 C 512.542969 314.433594 512.304688 313.757812 512.230469 313.273438 C 512.152344 312.789062 511.933594 312.171875 511.738281 311.898438 C 511.542969 311.625 511.289062 311.035156 511.167969 310.589844 C 511.050781 310.144531 510.792969 309.605469 510.597656 309.394531 C 510.402344 309.183594 510.125 308.621094 509.980469 308.144531 C 509.839844 307.667969 509.597656 307.136719 509.445312 306.96875 C 509.148438 306.644531 508.542969 305.578125 507.945312 304.332031 C 507.746094 303.917969 507.46875 303.511719 507.324219 303.429688 C 507.183594 303.34375 506.925781 303.003906 506.757812 302.675781 C 506.199219 301.578125 505.375 300.574219 503.175781 298.308594 C 501.394531 296.472656 499.9375 295.160156 499.070312 294.605469 C 498.722656 294.386719 498.328125 294.070312 498.191406 293.90625 C 498.058594 293.746094 497.859375 293.613281 497.753906 293.613281 C 497.648438 293.613281 497.375 293.433594 497.144531 293.21875 C 496.621094 292.726562 495.652344 292.125 494.464844 291.554688 C 493.964844 291.316406 493.449219 290.996094 493.324219 290.84375 C 493.195312 290.6875 492.835938 290.511719 492.519531 290.445312 C 492.203125 290.378906 491.65625 290.132812 491.308594 289.894531 C 490.957031 289.65625 490.230469 289.378906 489.691406 289.277344 C 489.152344 289.175781 488.535156 288.925781 488.316406 288.71875 C 487.898438 288.324219 487.59375 288.226562 486.683594 288.207031 C 486.371094 288.199219 485.929688 288.039062 485.695312 287.851562 C 485.292969 287.523438 485.269531 287.371094 485.152344 284.324219 C 485.046875 281.597656 484.976562 281.03125 484.648438 280.375 C 484.4375 279.957031 484.179688 279.003906 484.074219 278.257812 C 483.972656 277.511719 483.730469 276.632812 483.535156 276.300781 C 483.34375 275.96875 483.101562 275.320312 482.996094 274.855469 C 482.894531 274.390625 482.621094 273.726562 482.386719 273.378906 C 482.15625 273.03125 481.914062 272.453125 481.851562 272.09375 C 481.789062 271.734375 481.578125 271.296875 481.378906 271.117188 C 481.183594 270.941406 480.933594 270.460938 480.828125 270.054688 C 480.71875 269.648438 480.445312 269.113281 480.214844 268.863281 C 479.988281 268.617188 479.742188 268.210938 479.664062 267.960938 C 479.589844 267.710938 479.339844 267.277344 479.105469 267 C 478.871094 266.71875 478.675781 266.386719 478.675781 266.265625 C 478.675781 266.140625 478.433594 265.808594 478.136719 265.523438 C 477.839844 265.238281 477.59375 264.902344 477.59375 264.78125 C 477.59375 264.457031 475.984375 262.457031 474.253906 260.632812 C 470.355469 256.519531 465.871094 252.433594 465.253906 252.425781 C 465.167969 252.425781 464.828125 252.203125 464.5 251.929688 C 463.4375 251.039062 462.3125 250.257812 462.097656 250.257812 C 461.984375 250.257812 461.730469 250.097656 461.539062 249.902344 C 461.34375 249.710938 460.871094 249.390625 460.488281 249.195312 C 460.105469 249 459.691406 248.714844 459.566406 248.566406 C 459.441406 248.417969 459.097656 248.242188 458.804688 248.175781 C 458.511719 248.113281 458.050781 247.875 457.78125 247.648438 C 457.511719 247.421875 456.992188 247.144531 456.632812 247.027344 C 456.273438 246.90625 455.839844 246.65625 455.667969 246.46875 C 455.496094 246.277344 455.101562 246.070312 454.789062 246.007812 C 454.476562 245.941406 453.9375 245.695312 453.589844 245.464844 C 453.242188 245.230469 452.550781 244.945312 452.054688 244.835938 C 451.558594 244.726562 450.984375 244.480469 450.78125 244.285156 C 450.574219 244.09375 450.035156 243.867188 449.582031 243.78125 C 449.125 243.699219 448.480469 243.460938 448.148438 243.257812 C 447.8125 243.054688 446.984375 242.800781 446.300781 242.695312 C 445.621094 242.59375 444.910156 242.371094 444.726562 242.203125 C 444.503906 242.003906 443.839844 241.835938 442.804688 241.722656 C 441.9375 241.628906 440.859375 241.429688 440.410156 241.285156 C 439.964844 241.140625 439.273438 240.949219 438.878906 240.859375 C 437.992188 240.664062 433.371094 240.667969 432.378906 240.867188 M 434.546875 248.367188 C 433.03125 248.523438 432.160156 248.703125 431.652344 248.96875 C 431.25 249.179688 430.519531 249.402344 430.027344 249.464844 C 429.535156 249.527344 428.789062 249.773438 428.371094 250.011719 C 427.957031 250.25 427.238281 250.496094 426.773438 250.558594 C 426.304688 250.621094 425.722656 250.855469 425.449219 251.082031 C 425.183594 251.308594 424.652344 251.550781 424.269531 251.621094 C 423.890625 251.691406 423.449219 251.90625 423.285156 252.097656 C 423.125 252.285156 422.578125 252.5625 422.066406 252.710938 C 421.558594 252.859375 421.003906 253.136719 420.832031 253.324219 C 420.660156 253.515625 420.265625 253.722656 419.953125 253.789062 C 419.640625 253.855469 419.179688 254.097656 418.933594 254.324219 C 418.683594 254.554688 418.195312 254.871094 417.847656 255.03125 C 417.214844 255.320312 416.339844 255.902344 415.503906 256.59375 C 414.390625 257.511719 413.410156 258.203125 413.21875 258.203125 C 412.96875 258.207031 406.117188 264.960938 406.117188 265.207031 C 406.117188 265.300781 405.945312 265.53125 405.738281 265.71875 C 405.527344 265.910156 405.234375 266.308594 405.082031 266.605469 C 404.925781 266.902344 404.589844 267.414062 404.332031 267.734375 L 403.390625 268.910156 C 403.132812 269.230469 402.867188 269.722656 402.800781 269.996094 C 402.734375 270.273438 402.507812 270.667969 402.300781 270.875 C 402.09375 271.082031 401.84375 271.546875 401.746094 271.910156 C 401.648438 272.269531 401.410156 272.738281 401.214844 272.949219 C 401.019531 273.164062 400.75 273.761719 400.613281 274.277344 C 400.476562 274.796875 400.234375 275.367188 400.074219 275.542969 C 399.917969 275.71875 399.703125 276.378906 399.601562 277.015625 C 399.5 277.648438 399.257812 278.441406 399.058594 278.777344 C 398.863281 279.113281 398.632812 279.9375 398.546875 280.609375 C 398.417969 281.65625 398.285156 281.972656 397.632812 282.800781 C 397.214844 283.332031 396.691406 283.863281 396.46875 283.984375 C 396.246094 284.105469 395.300781 284.253906 394.367188 284.316406 C 393.433594 284.382812 392.25 284.585938 391.738281 284.769531 C 391.222656 284.953125 390.371094 285.160156 389.84375 285.222656 C 389.3125 285.289062 388.554688 285.527344 388.15625 285.75 C 387.761719 285.972656 387.121094 286.257812 386.734375 286.382812 C 386.347656 286.507812 385.746094 286.804688 385.398438 287.039062 C 385.050781 287.277344 384.628906 287.46875 384.457031 287.46875 C 384.285156 287.46875 383.839844 287.714844 383.464844 288.011719 C 383.089844 288.308594 382.683594 288.554688 382.566406 288.554688 C 382.445312 288.554688 382.191406 288.726562 382.003906 288.933594 C 381.8125 289.144531 381.375 289.472656 381.027344 289.664062 C 379.941406 290.265625 379.367188 290.757812 377.570312 292.617188 C 375.085938 295.195312 374.929688 295.375 374.800781 295.773438 C 374.738281 295.972656 374.410156 296.46875 374.066406 296.875 C 373.726562 297.285156 373.445312 297.691406 373.445312 297.777344 C 373.445312 297.863281 373.292969 298.078125 373.109375 298.257812 C 372.925781 298.433594 372.667969 298.90625 372.542969 299.300781 C 372.414062 299.699219 372.121094 300.253906 371.886719 300.535156 C 371.652344 300.816406 371.460938 301.230469 371.460938 301.457031 C 371.460938 301.683594 371.230469 302.308594 370.945312 302.84375 C 370.664062 303.378906 370.382812 304.246094 370.324219 304.765625 C 370.261719 305.289062 370.039062 306.101562 369.824219 306.574219 C 369.507812 307.273438 369.40625 307.976562 369.277344 310.410156 C 369.046875 314.757812 369.222656 318.027344 369.75 319.171875 C 369.976562 319.667969 370.21875 320.5625 370.289062 321.160156 C 370.363281 321.816406 370.582031 322.507812 370.84375 322.914062 C 371.082031 323.28125 371.351562 323.917969 371.441406 324.332031 C 371.535156 324.742188 371.773438 325.230469 371.972656 325.414062 C 372.167969 325.597656 372.386719 326.019531 372.457031 326.34375 C 372.527344 326.671875 372.773438 327.144531 373.003906 327.390625 C 373.238281 327.640625 373.554688 328.148438 373.710938 328.519531 C 373.867188 328.894531 374.074219 329.199219 374.175781 329.199219 C 374.273438 329.199219 374.457031 329.421875 374.578125 329.695312 C 374.773438 330.132812 375.816406 331.316406 377.367188 332.859375 L 377.867188 333.359375 L 377.882812 339.722656 C 377.890625 343.222656 377.960938 346.332031 378.039062 346.628906 C 378.121094 346.929688 378.339844 347.425781 378.523438 347.734375 C 378.710938 348.046875 378.914062 348.683594 378.976562 349.148438 C 379.042969 349.617188 379.277344 350.265625 379.496094 350.59375 C 379.71875 350.921875 380 351.503906 380.125 351.890625 C 380.25 352.277344 380.488281 352.753906 380.660156 352.953125 C 380.828125 353.152344 381.074219 353.578125 381.199219 353.902344 C 381.328125 354.222656 381.496094 354.488281 381.574219 354.488281 C 381.707031 354.488281 382.53125 355.667969 383.199219 356.8125 C 383.652344 357.589844 388.128906 361.894531 388.480469 361.894531 C 388.691406 361.894531 390.0625 362.871094 390.738281 363.5 C 390.992188 363.734375 391.464844 364.003906 391.792969 364.09375 C 392.121094 364.183594 392.613281 364.445312 392.890625 364.675781 C 393.164062 364.902344 393.636719 365.148438 393.933594 365.21875 C 394.230469 365.292969 394.757812 365.539062 395.105469 365.769531 C 395.453125 366 396.0625 366.246094 396.460938 366.316406 C 396.855469 366.386719 397.445312 366.601562 397.765625 366.800781 C 398.144531 367.03125 399.046875 367.25 400.328125 367.417969 C 401.417969 367.5625 402.539062 367.765625 402.816406 367.871094 C 403.09375 367.980469 404.210938 368.109375 405.304688 368.164062 C 406.953125 368.246094 407.550781 368.199219 408.824219 367.878906 C 409.667969 367.667969 410.886719 367.417969 411.527344 367.320312 C 412.171875 367.21875 412.902344 366.988281 413.152344 366.804688 C 413.402344 366.617188 413.933594 366.363281 414.328125 366.230469 C 414.726562 366.101562 415.28125 365.804688 415.5625 365.570312 C 415.84375 365.335938 416.140625 365.144531 416.222656 365.144531 C 416.375 365.144531 417.777344 363.765625 419.632812 361.796875 L 420.605469 360.765625 L 422.304688 360.851562 C 423.671875 360.925781 424.078125 361.011719 424.398438 361.304688 C 424.617188 361.503906 425.125 361.769531 425.519531 361.894531 C 425.917969 362.015625 426.445312 362.300781 426.695312 362.519531 C 426.941406 362.742188 427.402344 363.023438 427.71875 363.148438 C 428.035156 363.269531 428.433594 363.527344 428.605469 363.71875 C 428.777344 363.90625 429.011719 364.0625 429.128906 364.0625 C 429.246094 364.0625 429.558594 364.304688 429.824219 364.605469 C 430.089844 364.902344 430.382812 365.144531 430.472656 365.144531 C 430.78125 365.144531 431.746094 366.78125 431.859375 367.496094 C 431.949219 368.050781 431.875 368.394531 431.523438 369.070312 C 431.273438 369.542969 431.011719 370.21875 430.9375 370.566406 C 430.867188 370.914062 430.648438 371.460938 430.453125 371.78125 C 430.175781 372.234375 430.054688 372.929688 429.914062 374.851562 C 429.800781 376.394531 429.601562 377.710938 429.390625 378.316406 C 429.199219 378.855469 428.960938 380.132812 428.855469 381.15625 C 428.753906 382.179688 428.503906 383.527344 428.300781 384.152344 C 428.097656 384.777344 427.851562 386.101562 427.757812 387.09375 C 427.648438 388.203125 427.453125 389.152344 427.246094 389.550781 C 427.058594 389.910156 426.8125 390.847656 426.695312 391.628906 C 426.578125 392.414062 426.320312 393.421875 426.117188 393.867188 C 425.917969 394.316406 425.683594 395.28125 425.597656 396.015625 C 425.511719 396.746094 425.269531 397.679688 425.054688 398.089844 C 424.84375 398.5 424.59375 399.363281 424.503906 400.007812 C 424.410156 400.683594 424.183594 401.398438 423.972656 401.6875 C 423.769531 401.964844 423.523438 402.691406 423.425781 403.296875 C 423.328125 403.902344 423.046875 404.738281 422.804688 405.15625 C 422.5625 405.570312 422.363281 406.160156 422.363281 406.457031 C 422.363281 406.757812 422.164062 407.296875 421.917969 407.660156 C 421.675781 408.019531 421.390625 408.628906 421.285156 409.015625 C 421.183594 409.402344 420.945312 409.910156 420.761719 410.148438 C 420.578125 410.382812 420.328125 410.902344 420.203125 411.300781 C 420.078125 411.699219 419.78125 412.324219 419.546875 412.695312 C 419.308594 413.066406 419.113281 413.449219 419.113281 413.542969 C 419.113281 413.640625 418.910156 414.101562 418.660156 414.570312 C 418.414062 415.035156 418.210938 415.527344 418.210938 415.664062 C 418.210938 416.011719 456.617188 416.027344 457.050781 415.679688 C 457.457031 415.355469 457.589844 414.644531 457.265625 414.519531 C 457.121094 414.464844 456.875 414.164062 456.714844 413.851562 C 456.554688 413.542969 456.234375 413.058594 456 412.777344 C 455.765625 412.496094 455.574219 412.117188 455.574219 411.933594 C 455.574219 411.75 455.375 411.359375 455.128906 411.070312 C 454.886719 410.78125 454.609375 410.195312 454.511719 409.773438 C 454.417969 409.351562 454.175781 408.832031 453.976562 408.617188 C 453.773438 408.402344 453.523438 407.835938 453.414062 407.359375 C 453.308594 406.878906 453.058594 406.269531 452.863281 406.003906 C 452.667969 405.738281 452.457031 405.113281 452.398438 404.617188 C 452.335938 404.121094 452.140625 403.503906 451.960938 403.246094 C 451.59375 402.71875 451.242188 401.585938 451.242188 400.910156 C 451.242188 400.664062 451.042969 400.089844 450.804688 399.636719 C 450.507812 399.082031 450.308594 398.289062 450.1875 397.195312 C 450.085938 396.304688 449.835938 395.140625 449.625 394.609375 C 449.378906 393.980469 449.183594 392.90625 449.074219 391.542969 C 448.980469 390.386719 448.742188 388.933594 448.542969 388.3125 C 448.285156 387.503906 448.128906 386.285156 448.003906 384.066406 C 447.898438 382.21875 447.710938 380.585938 447.542969 380.050781 C 447.355469 379.457031 447.183594 377.746094 447.046875 375.09375 C 446.847656 371.273438 446.8125 371.019531 446.421875 370.597656 C 446.078125 370.226562 446.007812 369.949219 446.007812 368.988281 C 446.007812 367.726562 446.179688 367.378906 447.449219 366.113281 C 448.261719 365.304688 448.675781 365.144531 449.984375 365.144531 C 450.644531 365.144531 451.410156 365 452.003906 364.765625 C 452.527344 364.554688 453.339844 364.269531 453.808594 364.128906 C 454.277344 363.988281 454.722656 363.769531 454.800781 363.648438 C 454.878906 363.527344 455.265625 363.210938 455.664062 362.949219 C 456.0625 362.6875 456.734375 362.136719 457.15625 361.722656 C 457.582031 361.308594 458.207031 360.851562 458.542969 360.710938 C 458.882812 360.570312 459.210938 360.371094 459.273438 360.273438 C 459.335938 360.171875 459.53125 360.089844 459.710938 360.089844 C 460.140625 360.089844 462.460938 361.144531 462.699219 361.449219 C 462.902344 361.710938 464.089844 362.074219 464.746094 362.074219 C 464.972656 362.074219 465.582031 362.273438 466.097656 362.519531 C 466.957031 362.925781 467.324219 362.96875 470.554688 363.074219 C 474.984375 363.214844 479.136719 362.980469 479.789062 362.550781 C 480.042969 362.382812 480.976562 362.121094 481.855469 361.964844 C 482.738281 361.8125 483.59375 361.566406 483.757812 361.417969 C 483.921875 361.269531 484.480469 361.035156 485 360.898438 C 485.519531 360.761719 486.113281 360.492188 486.324219 360.296875 C 486.535156 360.101562 487.015625 359.859375 487.390625 359.757812 C 487.761719 359.65625 488.316406 359.363281 488.621094 359.109375 C 488.925781 358.851562 489.316406 358.644531 489.496094 358.644531 C 489.671875 358.644531 490.0625 358.417969 490.363281 358.144531 C 491.199219 357.390625 492.496094 356.476562 492.726562 356.476562 C 492.839844 356.476562 493.152344 356.230469 493.417969 355.933594 C 493.683594 355.636719 493.96875 355.390625 494.050781 355.390625 C 494.199219 355.390625 498.363281 351.195312 499.34375 350.0625 C 499.917969 349.398438 500.566406 348.464844 501.039062 347.625 C 501.230469 347.277344 501.558594 346.890625 501.765625 346.765625 C 501.972656 346.640625 502.140625 346.394531 502.140625 346.214844 C 502.140625 346.039062 502.425781 345.453125 502.773438 344.914062 C 503.121094 344.375 503.40625 343.839844 503.40625 343.726562 C 503.40625 343.613281 503.5625 343.320312 503.75 343.082031 C 503.9375 342.839844 504.191406 342.28125 504.308594 341.835938 C 504.425781 341.394531 504.683594 340.769531 504.878906 340.449219 C 505.074219 340.128906 505.316406 339.316406 505.421875 338.644531 C 505.527344 337.96875 505.773438 337.105469 505.964844 336.722656 C 507.050781 334.585938 507.046875 321.53125 505.960938 319.753906 C 505.765625 319.433594 505.546875 318.683594 505.480469 318.089844 C 505.40625 317.445312 505.1875 316.746094 504.945312 316.371094 C 504.71875 316.023438 504.4375 315.335938 504.316406 314.835938 C 504.199219 314.339844 503.957031 313.773438 503.777344 313.574219 C 503.597656 313.375 503.347656 312.886719 503.222656 312.488281 C 503.09375 312.089844 502.800781 311.535156 502.566406 311.253906 C 502.332031 310.976562 502.140625 310.640625 502.140625 310.511719 C 502.140625 310.386719 501.898438 309.972656 501.601562 309.597656 C 501.304688 309.222656 501.058594 308.828125 501.058594 308.722656 C 501.058594 308.613281 500.898438 308.363281 500.699219 308.160156 C 500.5 307.957031 499.570312 306.898438 498.636719 305.804688 C 497.699219 304.710938 496.5 303.4375 495.972656 302.96875 C 495.378906 302.445312 494.789062 301.910156 494.203125 301.375 C 493.761719 300.960938 493.175781 300.507812 492.90625 300.371094 C 492.632812 300.230469 492.347656 300.003906 492.269531 299.871094 C 492.191406 299.734375 491.832031 299.527344 491.476562 299.414062 C 491.121094 299.296875 490.652344 299 490.441406 298.753906 C 490.226562 298.507812 489.933594 298.308594 489.792969 298.308594 C 489.652344 298.308594 489.304688 298.117188 489.023438 297.886719 C 488.746094 297.652344 488.117188 297.328125 487.628906 297.164062 C 487.140625 297 486.605469 296.742188 486.4375 296.59375 C 486.273438 296.441406 485.660156 296.230469 485.078125 296.125 C 484.492188 296.015625 483.726562 295.78125 483.375 295.605469 C 483.027344 295.425781 482.128906 295.179688 481.386719 295.058594 C 480.40625 294.898438 479.90625 294.714844 479.578125 294.402344 C 479.332031 294.164062 478.984375 293.867188 478.808594 293.746094 C 478.378906 293.441406 477.890625 291.75 477.910156 290.632812 C 477.917969 290.132812 477.980469 288.953125 478.050781 288.007812 C 478.15625 286.550781 478.121094 286.105469 477.808594 285.097656 C 477.605469 284.441406 477.386719 283.304688 477.316406 282.570312 C 477.234375 281.679688 477.054688 280.992188 476.769531 280.492188 C 476.535156 280.082031 476.289062 279.40625 476.222656 278.984375 C 476.152344 278.566406 475.910156 278 475.679688 277.726562 C 475.449219 277.453125 475.1875 276.894531 475.09375 276.484375 C 475.003906 276.074219 474.714844 275.484375 474.457031 275.175781 C 474.195312 274.867188 473.984375 274.433594 473.984375 274.207031 C 473.984375 273.980469 473.8125 273.640625 473.605469 273.453125 C 473.394531 273.265625 473.101562 272.867188 472.953125 272.566406 C 472.800781 272.269531 472.535156 271.863281 472.359375 271.664062 C 472.183594 271.464844 471.980469 271.101562 471.902344 270.855469 C 471.828125 270.609375 471.554688 270.1875 471.296875 269.921875 C 471.039062 269.65625 470.296875 268.777344 469.652344 267.972656 C 468.710938 266.796875 466.800781 264.640625 466.085938 263.949219 C 465.144531 263.039062 464.046875 262.097656 463.445312 261.691406 C 462.746094 261.21875 462.25 260.792969 461.164062 259.734375 C 460.910156 259.488281 460.625 259.289062 460.527344 259.289062 C 460.425781 259.289062 460.082031 259.046875 459.753906 258.746094 C 459.429688 258.449219 459.039062 258.207031 458.894531 258.207031 C 458.746094 258.207031 458.421875 258.003906 458.175781 257.753906 C 457.925781 257.507812 457.464844 257.171875 457.144531 257.007812 C 456.828125 256.84375 456.503906 256.605469 456.429688 256.480469 C 456.355469 256.351562 456.042969 256.191406 455.738281 256.125 C 455.433594 256.058594 454.929688 255.777344 454.613281 255.503906 C 454.296875 255.226562 453.785156 254.945312 453.476562 254.878906 C 453.164062 254.808594 452.730469 254.5625 452.511719 254.332031 C 452.292969 254.097656 451.835938 253.851562 451.496094 253.789062 C 451.160156 253.726562 450.675781 253.484375 450.425781 253.25 C 450.171875 253.015625 449.664062 252.769531 449.296875 252.699219 C 448.925781 252.632812 448.449219 252.414062 448.234375 252.214844 C 448.023438 252.015625 447.492188 251.773438 447.0625 251.675781 C 446.628906 251.578125 446.117188 251.347656 445.917969 251.160156 C 445.71875 250.972656 445.160156 250.734375 444.675781 250.625 C 444.191406 250.515625 443.460938 250.234375 443.050781 250 C 442.640625 249.765625 442.011719 249.523438 441.648438 249.460938 C 441.285156 249.398438 440.789062 249.1875 440.539062 248.992188 C 439.652344 248.292969 437.492188 248.070312 434.546875 248.367188 M 435.875 291.125 C 435.414062 291.550781 434.980469 292.097656 434.90625 292.347656 C 434.832031 292.597656 434.640625 292.949219 434.480469 293.132812 C 434.210938 293.441406 434.179688 295.765625 434.136719 319.988281 C 434.089844 344.777344 434.066406 346.511719 433.78125 346.621094 C 433.585938 346.695312 433.390625 346.621094 433.25 346.414062 C 433.125 346.234375 432.9375 346.007812 432.832031 345.90625 C 431.578125 344.726562 429.976562 343.121094 429.761719 342.820312 C 429.613281 342.609375 429.21875 342.023438 428.890625 341.507812 C 428.558594 340.996094 428.21875 340.578125 428.132812 340.578125 C 428.050781 340.578125 427.933594 340.421875 427.871094 340.234375 C 427.8125 340.042969 427.523438 339.585938 427.226562 339.214844 C 426.933594 338.84375 426.695312 338.394531 426.695312 338.210938 C 426.695312 338.03125 426.460938 337.613281 426.179688 337.289062 C 425.898438 336.960938 425.613281 336.414062 425.542969 336.070312 C 425.476562 335.726562 425.234375 335.238281 425 334.984375 C 424.765625 334.734375 424.523438 334.246094 424.457031 333.902344 C 424.394531 333.5625 424.171875 333.097656 423.960938 332.875 C 423.753906 332.652344 423.511719 332.082031 423.421875 331.601562 C 423.332031 331.125 423.097656 330.511719 422.902344 330.242188 C 422.703125 329.972656 422.453125 329.324219 422.347656 328.796875 C 422.238281 328.273438 421.988281 327.613281 421.789062 327.332031 C 421.574219 327.03125 421.351562 326.285156 421.246094 325.527344 C 421.148438 324.816406 420.878906 323.828125 420.648438 323.328125 C 420.386719 322.761719 420.183594 321.882812 420.105469 320.980469 C 420.039062 320.183594 419.820312 319.167969 419.621094 318.722656 C 419.132812 317.621094 418.96875 315.066406 418.816406 306.261719 L 418.695312 299.128906 L 418.242188 298.222656 C 417.566406 296.863281 416.527344 295.929688 415.578125 295.824219 C 414.351562 295.683594 413.671875 295.898438 412.886719 296.679688 C 411.964844 297.59375 411.605469 298.015625 411.375 298.441406 C 411.160156 298.847656 410.726562 310.316406 410.886719 311.507812 C 410.945312 311.96875 411.074219 313.769531 411.167969 315.515625 C 411.316406 318.214844 411.410156 318.871094 411.804688 319.921875 C 412.113281 320.746094 412.253906 321.425781 412.214844 321.96875 L 412.164062 322.785156 L 411.488281 322.765625 C 410.984375 322.75 410.714844 322.621094 410.4375 322.269531 C 410.230469 322.007812 409.960938 321.792969 409.832031 321.792969 C 409.707031 321.792969 408.839844 321.023438 407.90625 320.082031 C 405.4375 317.601562 405.101562 317.214844 404.972656 316.691406 C 404.90625 316.433594 404.664062 315.988281 404.429688 315.710938 C 404.199219 315.429688 403.925781 314.953125 403.824219 314.65625 C 403.628906 314.078125 402.867188 312.828125 402.472656 312.433594 C 401.515625 311.472656 400.816406 311.132812 399.800781 311.132812 C 399 311.132812 398.699219 311.214844 398.445312 311.496094 C 398.265625 311.695312 398.015625 311.855469 397.894531 311.855469 C 397.769531 311.855469 397.3125 312.277344 396.882812 312.792969 L 396.097656 313.730469 L 396.097656 315.277344 C 396.097656 316.648438 396.152344 316.90625 396.578125 317.546875 C 396.839844 317.945312 397.105469 318.570312 397.171875 318.941406 C 397.234375 319.3125 397.441406 319.722656 397.632812 319.855469 C 397.820312 319.988281 398.058594 320.308594 398.15625 320.566406 C 398.421875 321.265625 399.894531 323.144531 401.378906 324.683594 L 402.824219 326.175781 C 403.808594 327.195312 405.253906 328.394531 405.753906 328.609375 C 406.101562 328.757812 406.613281 329.070312 406.894531 329.308594 C 407.175781 329.546875 407.496094 329.738281 407.601562 329.738281 C 407.710938 329.738281 408.046875 329.929688 408.355469 330.164062 C 408.664062 330.398438 409.238281 330.695312 409.636719 330.824219 C 410.035156 330.957031 410.578125 331.222656 410.84375 331.421875 C 411.195312 331.679688 411.722656 331.804688 412.71875 331.871094 C 414.03125 331.953125 414.148438 331.996094 414.777344 332.628906 C 415.226562 333.078125 415.484375 333.527344 415.558594 333.996094 C 415.621094 334.382812 415.835938 334.914062 416.03125 335.183594 C 416.230469 335.449219 416.484375 336.039062 416.597656 336.488281 C 416.710938 336.941406 417 337.574219 417.238281 337.894531 C 417.472656 338.21875 417.667969 338.617188 417.667969 338.78125 C 417.667969 338.949219 417.882812 339.398438 418.144531 339.785156 C 418.40625 340.171875 418.710938 340.730469 418.824219 341.03125 C 419.125 341.84375 420.152344 343.554688 420.558594 343.921875 C 420.757812 344.101562 420.917969 344.339844 420.917969 344.453125 C 420.917969 345.210938 426.664062 351.308594 428.460938 352.453125 C 428.730469 352.625 429.519531 353.238281 430.214844 353.820312 C 430.910156 354.398438 431.703125 355.050781 431.976562 355.269531 C 432.25 355.484375 432.84375 355.992188 433.296875 356.398438 L 434.121094 357.132812 L 434.109375 373.332031 L 434.097656 389.527344 L 434.644531 390.605469 C 435.210938 391.71875 436.070312 392.601562 436.589844 392.605469 C 436.757812 392.605469 437.125 392.726562 437.410156 392.875 C 437.984375 393.175781 438.804688 393.230469 439.066406 392.988281 C 439.160156 392.898438 439.539062 392.730469 439.902344 392.617188 C 440.269531 392.5 440.859375 392.082031 441.210938 391.691406 C 441.984375 390.835938 441.910156 392.539062 441.859375 376.746094 C 441.816406 364.035156 441.804688 364.242188 442.664062 364.242188 C 442.886719 364.242188 443.273438 364.085938 443.519531 363.890625 C 443.765625 363.695312 444.296875 363.421875 444.699219 363.285156 C 445.460938 363.023438 445.660156 362.886719 447.910156 361.082031 C 448.652344 360.484375 449.871094 359.511719 450.617188 358.914062 C 451.367188 358.316406 452.847656 356.957031 453.910156 355.890625 C 456.003906 353.789062 456.140625 353.648438 457.433594 352.148438 C 457.910156 351.597656 458.457031 350.976562 458.644531 350.769531 C 458.832031 350.5625 459.082031 350.179688 459.203125 349.914062 C 459.320312 349.652344 459.554688 349.394531 459.722656 349.339844 C 459.890625 349.289062 460.136719 349.042969 460.265625 348.796875 C 460.398438 348.550781 460.695312 348.222656 460.929688 348.074219 C 461.160156 347.921875 461.347656 347.710938 461.347656 347.609375 C 461.347656 347.507812 461.835938 346.921875 462.425781 346.304688 C 462.902344 345.8125 463.375 345.320312 463.84375 344.824219 C 464.1875 344.457031 464.9375 343.371094 465.589844 342.289062 C 465.789062 341.957031 466.214844 341.472656 466.539062 341.210938 L 467.125 340.730469 L 470.328125 340.742188 C 474.777344 340.761719 477.539062 340.527344 478.484375 340.042969 C 478.898438 339.832031 479.699219 339.578125 480.265625 339.476562 C 480.832031 339.375 481.507812 339.140625 481.765625 338.953125 C 482.027344 338.769531 482.753906 338.523438 483.378906 338.410156 C 484.007812 338.296875 484.753906 338.027344 485.042969 337.808594 C 486.148438 336.976562 487.148438 335.949219 487.332031 335.464844 C 487.574219 334.8125 487.578125 332.980469 487.332031 332.339844 C 487.023438 331.523438 485.90625 330.503906 485.1875 330.378906 C 484.832031 330.316406 484.320312 330.179688 484.050781 330.074219 C 483.449219 329.835938 480.871094 330.457031 480.066406 331.027344 C 479.789062 331.226562 479.101562 331.511719 478.539062 331.65625 C 477.976562 331.804688 477.371094 332.054688 477.195312 332.214844 C 476.9375 332.449219 476.40625 332.507812 474.480469 332.523438 L 472.089844 332.539062 L 472.132812 331.828125 C 472.160156 331.363281 472.328125 330.957031 472.621094 330.65625 C 472.863281 330.398438 473.191406 329.886719 473.34375 329.515625 C 473.5 329.140625 473.695312 328.835938 473.777344 328.835938 C 473.855469 328.835938 474.035156 328.613281 474.171875 328.339844 C 474.308594 328.066406 474.601562 327.640625 474.824219 327.390625 C 475.046875 327.144531 475.355469 326.636719 475.511719 326.261719 C 475.667969 325.890625 475.859375 325.585938 475.9375 325.585938 C 476.015625 325.585938 476.257812 325.21875 476.472656 324.773438 C 476.691406 324.324219 476.945312 323.960938 477.042969 323.960938 C 477.140625 323.960938 477.316406 323.613281 477.4375 323.191406 C 477.558594 322.769531 477.84375 322.21875 478.074219 321.964844 C 478.3125 321.703125 478.570312 321.09375 478.671875 320.550781 C 478.773438 320.027344 478.898438 319.523438 478.953125 319.433594 C 479.011719 319.34375 478.964844 318.761719 478.851562 318.136719 C 478.671875 317.125 478.554688 316.910156 477.738281 316.128906 L 476.828125 315.253906 L 475.242188 315.316406 C 473.789062 315.375 473.609375 315.421875 473.113281 315.890625 C 471.722656 317.203125 471.015625 318.121094 470.742188 318.960938 C 470.621094 319.339844 470.410156 319.691406 470.277344 319.742188 C 470.148438 319.792969 469.871094 320.195312 469.664062 320.632812 C 469.457031 321.074219 469.125 321.597656 468.929688 321.792969 C 468.730469 321.992188 468.570312 322.261719 468.570312 322.394531 C 468.570312 322.53125 468.398438 322.792969 468.183594 322.984375 C 467.972656 323.171875 467.648438 323.652344 467.460938 324.050781 C 467.128906 324.753906 466.714844 325.398438 465.777344 326.652344 C 465.527344 326.992188 465.320312 327.40625 465.320312 327.574219 C 465.320312 327.742188 465.148438 328.03125 464.941406 328.222656 C 464.59375 328.535156 464.195312 329.191406 463.265625 330.984375 C 463.082031 331.34375 462.734375 331.867188 462.5 332.148438 C 462.265625 332.429688 462.070312 332.769531 462.070312 332.902344 C 462.070312 333.039062 461.828125 333.417969 461.53125 333.742188 C 461.230469 334.070312 460.988281 334.429688 460.988281 334.539062 C 460.988281 334.652344 460.816406 334.898438 460.609375 335.085938 C 460.398438 335.273438 460.105469 335.671875 459.953125 335.972656 C 459.660156 336.539062 459.164062 337.226562 458.375 338.140625 C 457.851562 338.75 457.054688 339.769531 456.113281 341.023438 C 455.769531 341.488281 455.261719 342.078125 454.988281 342.335938 C 454.714844 342.59375 454.492188 342.910156 454.492188 343.039062 C 454.492188 343.167969 454.375 343.335938 454.234375 343.414062 C 453.992188 343.550781 451.65625 346.207031 450.699219 347.433594 C 450.453125 347.75 449.984375 348.320312 449.664062 348.699219 C 449.339844 349.074219 449.074219 349.476562 449.074219 349.589844 C 449.074219 349.707031 448.882812 349.886719 448.644531 349.996094 C 448.40625 350.105469 448.125 350.386719 448.015625 350.625 C 447.910156 350.863281 447.75 351.054688 447.667969 351.054688 C 447.582031 351.054688 447 351.542969 446.367188 352.140625 C 445.738281 352.734375 445.132812 353.222656 445.023438 353.222656 C 444.910156 353.222656 444.539062 353.464844 444.195312 353.757812 C 443.429688 354.414062 442.339844 354.515625 442.042969 353.957031 C 441.917969 353.722656 441.855469 347.894531 441.855469 336.328125 L 441.855469 319.046875 L 442.441406 318.460938 C 442.964844 317.9375 443.171875 317.863281 444.355469 317.765625 C 445.230469 317.691406 445.972656 317.507812 446.523438 317.222656 C 446.984375 316.984375 447.605469 316.730469 447.902344 316.660156 C 448.199219 316.589844 448.726562 316.351562 449.074219 316.132812 C 449.421875 315.910156 449.917969 315.613281 450.171875 315.464844 C 451.464844 314.722656 451.941406 314.390625 453.121094 313.402344 C 454.3125 312.402344 454.910156 311.808594 456.578125 309.960938 L 457.554688 308.875 C 457.734375 308.675781 457.933594 308.339844 457.996094 308.125 C 458.0625 307.910156 458.355469 307.429688 458.648438 307.0625 C 458.941406 306.691406 459.183594 306.292969 459.183594 306.175781 C 459.183594 306.0625 459.386719 305.6875 459.640625 305.347656 C 459.890625 305.007812 460.179688 304.40625 460.289062 304.011719 C 460.394531 303.613281 460.628906 303.101562 460.808594 302.871094 C 460.988281 302.644531 461.191406 302.03125 461.261719 301.511719 C 461.332031 300.992188 461.597656 300.078125 461.851562 299.484375 C 462.273438 298.496094 462.316406 298.164062 462.328125 295.839844 C 462.339844 293.472656 462.3125 293.25 461.957031 292.859375 C 461.746094 292.628906 461.480469 292.253906 461.367188 292.03125 C 461.25 291.808594 460.894531 291.5 460.574219 291.347656 C 460.257812 291.195312 459.792969 290.953125 459.542969 290.808594 C 458.929688 290.453125 457.488281 290.460938 457.1875 290.824219 C 457.058594 290.980469 456.726562 291.226562 456.445312 291.371094 C 456.167969 291.515625 455.753906 291.964844 455.53125 292.375 C 455.304688 292.78125 455.027344 293.289062 454.910156 293.5 C 454.792969 293.710938 454.617188 294.765625 454.515625 295.839844 C 454.402344 297.097656 454.242188 297.90625 454.070312 298.097656 C 453.921875 298.265625 453.664062 298.875 453.496094 299.457031 C 453.328125 300.039062 452.996094 300.800781 452.757812 301.152344 C 452.519531 301.503906 452.324219 301.890625 452.324219 302.015625 C 452.324219 302.136719 452.195312 302.34375 452.039062 302.472656 C 451.882812 302.605469 451.597656 303.023438 451.402344 303.40625 C 451.027344 304.140625 448.691406 306.617188 448.375 306.617188 C 448.269531 306.617188 448.097656 306.78125 447.992188 306.976562 C 447.886719 307.175781 447.539062 307.46875 447.21875 307.632812 C 446.898438 307.792969 446.472656 308.074219 446.273438 308.257812 C 446.070312 308.441406 445.558594 308.714844 445.132812 308.867188 C 444.707031 309.015625 444.148438 309.304688 443.894531 309.503906 C 443.324219 309.953125 442.125 310.003906 441.964844 309.582031 C 441.90625 309.425781 441.855469 305.527344 441.855469 300.921875 C 441.855469 295.078125 441.792969 292.417969 441.652344 292.128906 C 441.539062 291.902344 441.121094 291.429688 440.722656 291.082031 C 440.019531 290.472656 439.945312 290.449219 438.355469 290.402344 L 436.710938 290.355469 Z M 435.875 291.125 " fill-opacity="1" fill-rule="evenodd"/></svg>