<svg xmlns="http://www.w3.org/2000/svg" xmlns:xlink="http://www.w3.org/1999/xlink" width="1140" zoomAndPan="magnify" viewBox="324.574219 249.695312 209.45312499999994 193.05078200000003" height="892" preserveAspectRatio="xMidYMid meet" version="1.0"><path fill="#229c30" d="M 491.226562 260.476562 C 466.855469 262.65625 433.730469 268.199219 420.277344 272.355469 C 413.371094 274.488281 411.789062 276.214844 410.832031 282.648438 C 410.332031 286.015625 408.917969 288.261719 403.28125 294.625 C 393.726562 305.414062 378.539062 324.203125 363.261719 344.136719 C 356.191406 353.359375 348.894531 362.585938 347.042969 364.640625 L 343.675781 368.375 L 343.675781 392.046875 L 341.207031 392.046875 C 339.851562 392.046875 337.800781 393.046875 336.65625 394.265625 C 334.8125 396.230469 334.574219 397.554688 334.574219 405.8125 C 334.574219 418.472656 336.320312 421.753906 343.054688 421.753906 C 345.015625 421.753906 346.066406 422.550781 347.433594 425.089844 C 349.804688 429.496094 356.320312 432.746094 361.199219 431.953125 C 365.667969 431.230469 369.152344 428.691406 370.980469 424.828125 L 372.417969 421.792969 L 393.621094 421.753906 L 395.203125 425.070312 C 396.941406 428.714844 402.769531 432.292969 406.96875 432.292969 C 412.414062 432.292969 419.847656 426.582031 419.847656 422.398438 C 419.847656 421.535156 421.109375 420.675781 422.960938 420.28125 C 428.535156 419.089844 428.46875 419.351562 428.464844 397.921875 C 428.457031 377.1875 427.921875 373.285156 424.351562 367.980469 C 420.59375 362.398438 415.726562 360.472656 402.554688 359.347656 C 396.144531 358.800781 389.972656 358.589844 388.84375 358.875 C 384.851562 359.890625 383.96875 362.9375 383.601562 376.957031 L 383.253906 390.132812 L 375.773438 390.132812 L 375.773438 383.808594 C 375.773438 380.007812 375.164062 376.203125 374.246094 374.265625 L 372.71875 371.046875 L 380.300781 361.1875 C 410.761719 321.558594 419.003906 310.875 425.734375 302.289062 L 433.375 292.539062 L 445.535156 289.644531 C 452.222656 288.050781 462.59375 285.792969 468.585938 284.621094 C 478.660156 282.65625 479.542969 282.617188 480.367188 284.089844 C 480.921875 285.074219 482.46875 285.683594 484.425781 285.683594 L 487.589844 285.683594 L 488.277344 304.589844 C 488.667969 315.367188 489.394531 324.019531 489.972656 324.714844 C 491.269531 326.277344 495.199219 326.289062 496.179688 324.734375 C 496.59375 324.074219 496.792969 314.863281 496.625 304.269531 L 496.316406 285.003906 L 499.230469 284.417969 C 503.328125 283.601562 504.550781 280.691406 504.597656 271.652344 C 504.632812 265.289062 504.304688 263.476562 502.816406 261.832031 C 500.984375 259.808594 500.003906 259.695312 491.226562 260.476562 M 487.875 273.28125 L 487.875 277.171875 L 491.945312 276.875 C 495.898438 276.589844 496.027344 276.476562 496.3125 272.988281 L 496.613281 269.394531 L 487.875 269.394531 Z M 460.566406 272.78125 C 446.398438 274.878906 427.546875 278.878906 422.128906 280.9375 C 420.554688 281.535156 419.847656 282.558594 419.847656 284.222656 C 419.847656 285.554688 420.386719 286.636719 421.042969 286.625 C 421.703125 286.617188 429.785156 284.738281 439.007812 282.449219 C 448.230469 280.164062 461.058594 277.285156 467.511719 276.050781 C 477.355469 274.171875 479.25 273.53125 479.25 272.082031 C 479.25 269.972656 479.664062 269.957031 460.566406 272.78125 M 401.261719 310.359375 C 394.160156 319.1875 381.441406 335.25 372.996094 346.054688 L 357.640625 365.695312 L 359.761719 367.351562 C 360.925781 368.261719 362.167969 369.019531 362.523438 369.03125 C 363.289062 369.054688 369.886719 360.734375 398.523438 323.625 C 420.550781 295.078125 420.773438 294.691406 415.332031 294.375 C 414.695312 294.339844 408.363281 301.53125 401.261719 310.359375 M 486.914062 333.117188 C 482.339844 337.324219 480.53125 338.386719 477.964844 338.386719 C 471.402344 338.386719 464.753906 345.140625 464.460938 352.097656 C 464.320312 355.421875 463.582031 357.207031 461.238281 359.875 C 457.648438 363.964844 456.808594 366.726562 457.445312 372.375 C 458 377.285156 461.015625 381.90625 465.023438 383.980469 C 468.363281 385.707031 475.109375 386.03125 476.605469 384.535156 C 477.34375 383.800781 478.621094 384.28125 481.078125 386.230469 L 484.519531 388.953125 L 483.863281 404.820312 C 483.503906 413.546875 482.765625 421.515625 482.222656 422.527344 C 481.683594 423.539062 479.960938 424.894531 478.398438 425.542969 C 475.097656 426.910156 473.953125 429.09375 475.539062 431 C 476.421875 432.070312 479.867188 432.285156 492.558594 432.078125 L 508.472656 431.816406 L 508.472656 429.417969 C 508.472656 427.644531 507.613281 426.59375 505.15625 425.367188 C 503.335938 424.457031 501.316406 422.707031 500.667969 421.472656 C 500.023438 420.242188 498.75 410.585938 497.839844 400.019531 L 496.1875 380.804688 L 503.445312 372.125 L 506.710938 373.488281 C 512.976562 376.109375 520.363281 372.203125 522.367188 365.214844 C 524.027344 359.425781 520.878906 352.410156 515.257812 349.382812 C 513.433594 348.398438 511.6875 346.589844 511.378906 345.363281 C 510.558594 342.089844 507.40625 339.347656 504.464844 339.347656 C 501.25 339.347656 493.933594 346.65625 490.921875 352.878906 C 489.269531 356.296875 488.832031 358.925781 488.832031 365.476562 C 488.832031 373.414062 487.597656 378.632812 485.726562 378.632812 C 485.238281 378.632812 482.925781 377.0625 480.585938 375.144531 C 475.828125 371.246094 475.679688 369.152344 479.925781 365.671875 C 482.128906 363.863281 482.269531 363.230469 481.96875 356.371094 C 481.675781 349.667969 481.816406 348.96875 483.5625 348.527344 C 486.039062 347.902344 497.066406 336.628906 497.882812 333.886719 C 498.515625 331.765625 495.742188 327.847656 493.613281 327.847656 C 493.082031 327.847656 490.066406 330.21875 486.914062 333.117188 M 392.058594 378.585938 L 392.058594 390.132812 L 419.847656 390.132812 L 419.847656 384.351562 C 419.847656 378.320312 418.292969 373.253906 415.8125 371.199219 C 414.265625 369.914062 407.800781 368.617188 398.046875 367.640625 L 392.058594 367.039062 Z M 352.617188 379.414062 C 352.441406 382.410156 352.433594 386.046875 352.601562 387.496094 C 352.902344 390.109375 352.96875 390.132812 360.027344 390.132812 L 367.148438 390.132812 L 367.148438 378.851562 L 363.046875 378.234375 C 360.789062 377.898438 357.59375 376.800781 355.941406 375.792969 L 352.941406 373.96875 Z M 347.027344 399.59375 L 343.675781 400.191406 L 343.390625 406.660156 C 343.128906 412.632812 343.257812 413.128906 345.066406 413.128906 C 346.144531 413.128906 347.027344 412.519531 347.027344 411.777344 C 347.027344 409.675781 352.273438 405.773438 356.046875 405.0625 C 361.25 404.085938 366.710938 405.976562 369.769531 409.808594 L 372.417969 413.128906 L 393.847656 413.128906 L 395.816406 410.363281 C 400.464844 403.832031 410.972656 403.136719 416.828125 408.972656 C 418.59375 410.730469 420.101562 412.171875 420.179688 412.171875 C 420.261719 412.171875 420.109375 409.261719 419.847656 405.703125 L 419.367188 399.234375 L 384.875 399.113281 C 365.902344 399.050781 348.871094 399.265625 347.027344 399.59375 M 355.601562 415.09375 C 353.429688 417.265625 353.773438 420.398438 356.410156 422.472656 C 358.703125 424.273438 361.117188 423.917969 362.78125 421.539062 C 364.753906 418.726562 364.664062 417.351562 362.359375 415.046875 C 359.921875 412.609375 358.074219 412.621094 355.601562 415.09375 M 403.558594 415.046875 C 402.503906 416.101562 401.640625 417.609375 401.640625 418.398438 C 401.640625 419.191406 402.503906 420.699219 403.558594 421.753906 C 404.613281 422.808594 406.121094 423.667969 406.910156 423.667969 C 407.703125 423.667969 409.210938 422.808594 410.265625 421.753906 C 411.320312 420.699219 412.179688 419.191406 412.179688 418.398438 C 412.179688 417.609375 411.320312 416.101562 410.265625 415.046875 C 409.210938 413.992188 407.703125 413.128906 406.910156 413.128906 C 406.121094 413.128906 404.613281 413.992188 403.558594 415.046875 " fill-opacity="1" fill-rule="evenodd"/></svg>