<svg xmlns="http://www.w3.org/2000/svg" xmlns:xlink="http://www.w3.org/1999/xlink" width="1140" zoomAndPan="magnify" viewBox="315.609375 225.390625 235.63281300000006 232.84765599999997" height="892" preserveAspectRatio="xMidYMid meet" version="1.0"><path fill="#229c30" d="M 405.996094 235.472656 C 405.703125 235.53125 405.265625 235.753906 405.027344 235.96875 C 404.789062 236.179688 404.367188 236.46875 404.09375 236.613281 C 403.816406 236.753906 403.441406 237.226562 403.261719 237.664062 C 403.082031 238.097656 402.785156 238.625 402.601562 238.832031 C 402.390625 239.066406 402.230469 239.789062 402.164062 240.777344 C 402.050781 242.546875 402.460938 249.15625 402.777344 250.636719 C 402.890625 251.171875 403.035156 254.90625 403.097656 258.9375 C 403.242188 268.75 403.585938 277.609375 403.871094 278.929688 C 404.148438 280.222656 404.460938 301.726562 404.207031 301.882812 C 404.109375 301.945312 403.609375 301.546875 403.09375 301 C 402.578125 300.457031 402.09375 300.011719 402.011719 300.011719 C 401.933594 300.011719 401.582031 299.722656 401.230469 299.375 C 400.566406 298.710938 398.089844 296.777344 397.90625 296.777344 C 397.847656 296.777344 397.367188 296.339844 396.839844 295.804688 C 396.316406 295.273438 395.785156 294.835938 395.667969 294.835938 C 395.546875 294.835938 395.371094 294.703125 395.277344 294.539062 C 395.019531 294.089844 393.097656 292.679688 392.746094 292.679688 C 392.574219 292.679688 392.375 292.484375 392.300781 292.25 C 392.226562 292.011719 392.078125 291.816406 391.972656 291.816406 C 391.871094 291.816406 391.199219 291.332031 390.488281 290.738281 C 389.773438 290.144531 389.085938 289.660156 388.957031 289.660156 C 388.828125 289.660156 388.246094 289.175781 387.664062 288.582031 C 387.078125 287.988281 386.542969 287.503906 386.476562 287.503906 C 386.332031 287.503906 384.933594 286.203125 382.957031 284.230469 C 381.058594 282.335938 380.761719 281.996094 380.761719 281.722656 C 380.761719 281.59375 380.570312 281.308594 380.339844 281.09375 C 379.984375 280.761719 379.882812 280.214844 379.6875 277.582031 C 379.5625 275.863281 379.359375 274.074219 379.238281 273.597656 C 379.117188 273.125 378.929688 269.457031 378.828125 265.453125 C 378.660156 258.910156 378.597656 258.085938 378.226562 257.367188 C 377.996094 256.925781 377.746094 256.304688 377.667969 255.988281 C 377.589844 255.667969 377.335938 255.347656 377.105469 255.273438 C 376.875 255.203125 376.628906 254.972656 376.566406 254.765625 C 376.402344 254.257812 374.441406 253.59375 373.101562 253.59375 C 371.300781 253.59375 369.84375 254.242188 368.742188 255.53125 L 367.777344 256.660156 L 367.871094 262.863281 C 367.945312 267.632812 368.042969 269.34375 368.304688 270.257812 C 368.726562 271.742188 369.046875 276.941406 368.710938 276.941406 C 368.585938 276.941406 368.375 276.746094 368.25 276.507812 C 368.121094 276.273438 367.914062 276.078125 367.789062 276.078125 C 367.664062 276.078125 367.289062 275.8125 366.960938 275.484375 C 366.117188 274.648438 365.761719 274.386719 365.078125 274.089844 C 364.746094 273.945312 364.269531 273.628906 364.015625 273.390625 C 363.761719 273.148438 363.230469 272.679688 362.828125 272.351562 C 362.429688 272.019531 361.957031 271.621094 361.777344 271.460938 C 361.601562 271.304688 361.152344 271.019531 360.78125 270.832031 C 360.410156 270.644531 360.046875 270.339844 359.976562 270.15625 C 359.90625 269.972656 359.71875 269.824219 359.558594 269.824219 C 359.398438 269.824219 359.058594 269.605469 358.804688 269.339844 C 357.933594 268.429688 355.574219 266.589844 355.277344 266.589844 C 355.171875 266.589844 354.660156 266.15625 354.132812 265.621094 C 353.605469 265.085938 353.109375 264.652344 353.03125 264.652344 C 352.953125 264.652344 352.601562 264.410156 352.25 264.113281 C 351.894531 263.816406 351.484375 263.574219 351.332031 263.574219 C 351.179688 263.574219 350.785156 263.320312 350.453125 263.015625 C 349.875 262.476562 349.769531 262.460938 347.621094 262.53125 C 345.597656 262.597656 345.363281 262.648438 345.054688 263.085938 C 344.867188 263.355469 344.597656 263.574219 344.457031 263.574219 C 344 263.578125 342.855469 264.953125 342.695312 265.6875 C 342.609375 266.082031 342.40625 266.664062 342.238281 266.984375 C 341.851562 267.722656 341.855469 268.320312 342.238281 268.871094 C 342.40625 269.113281 342.609375 269.65625 342.691406 270.085938 C 342.769531 270.511719 343.046875 271.058594 343.300781 271.296875 C 343.558594 271.539062 344.105469 272.132812 344.519531 272.613281 C 344.933594 273.097656 345.390625 273.492188 345.53125 273.492188 C 345.671875 273.492188 345.847656 273.683594 345.925781 273.921875 C 346 274.160156 346.144531 274.351562 346.246094 274.351562 C 346.347656 274.351562 346.921875 274.839844 347.523438 275.429688 C 348.121094 276.023438 348.671875 276.507812 348.75 276.507812 C 348.824219 276.507812 349.21875 276.800781 349.625 277.15625 C 350.03125 277.511719 350.492188 277.800781 350.65625 277.800781 C 350.816406 277.800781 351.003906 277.949219 351.074219 278.128906 C 351.140625 278.308594 351.445312 278.550781 351.742188 278.664062 C 352.042969 278.777344 352.289062 279.019531 352.289062 279.199219 C 352.289062 279.378906 352.386719 279.527344 352.503906 279.527344 C 352.621094 279.527344 352.910156 279.714844 353.140625 279.949219 C 353.371094 280.179688 353.832031 280.523438 354.164062 280.710938 C 355.148438 281.273438 356.265625 282.121094 356.449219 282.453125 C 356.546875 282.621094 356.753906 282.761719 356.910156 282.761719 C 357.070312 282.761719 357.359375 283.003906 357.550781 283.300781 C 357.746094 283.597656 358.011719 283.839844 358.140625 283.839844 C 358.269531 283.839844 358.660156 284.082031 359.015625 284.378906 C 359.367188 284.675781 359.78125 284.917969 359.9375 284.917969 C 360.09375 284.917969 360.378906 285.160156 360.574219 285.457031 C 360.765625 285.753906 361.0625 285.996094 361.234375 285.996094 C 361.402344 285.996094 361.625 286.140625 361.722656 286.320312 C 361.824219 286.5 362.433594 286.980469 363.082031 287.394531 C 364.1875 288.097656 364.566406 288.386719 365.984375 289.605469 C 366.292969 289.875 366.6875 290.09375 366.859375 290.09375 C 367.03125 290.09375 367.386719 290.335938 367.644531 290.632812 C 367.902344 290.925781 368.242188 291.171875 368.402344 291.171875 C 368.5625 291.171875 368.75 291.3125 368.816406 291.484375 C 368.925781 291.777344 369.707031 292.347656 371.03125 293.109375 C 371.339844 293.289062 371.800781 293.628906 372.054688 293.867188 C 373.289062 295.011719 375.363281 296.558594 375.667969 296.558594 C 375.800781 296.558594 376.03125 296.753906 376.179688 296.992188 C 376.328125 297.230469 376.59375 297.421875 376.773438 297.421875 C 376.949219 297.421875 377.09375 297.503906 377.09375 297.601562 C 377.09375 297.703125 377.578125 298.164062 378.175781 298.628906 C 378.769531 299.089844 379.570312 299.734375 379.953125 300.058594 C 380.339844 300.382812 380.714844 300.652344 380.792969 300.652344 C 381.007812 300.660156 387.625 307.0625 389.976562 309.542969 C 390.152344 309.726562 390.332031 309.914062 390.515625 310.09375 C 391.996094 311.566406 392.839844 312.484375 392.839844 312.625 C 392.839844 312.714844 393.058594 313.007812 393.324219 313.273438 C 393.59375 313.539062 394.054688 314.113281 394.351562 314.554688 C 394.84375 315.285156 395.542969 316.136719 396.421875 317.078125 C 396.777344 317.457031 397.332031 318.394531 397.902344 319.585938 C 398.09375 319.976562 398.378906 320.347656 398.542969 320.410156 C 398.703125 320.472656 398.898438 320.84375 398.96875 321.234375 C 399.042969 321.621094 399.285156 322.105469 399.503906 322.304688 C 399.738281 322.515625 399.964844 323.117188 400.046875 323.746094 C 400.128906 324.339844 400.371094 325.183594 400.589844 325.625 C 400.878906 326.195312 401.03125 327.136719 401.128906 328.929688 C 401.203125 330.308594 401.414062 332.492188 401.597656 333.78125 C 401.777344 335.070312 401.980469 338.027344 402.050781 340.355469 C 402.152344 343.875 402.113281 344.777344 401.824219 345.746094 C 401.457031 346.972656 401.035156 350.773438 401.035156 352.863281 C 401.035156 353.585938 400.863281 354.554688 400.621094 355.164062 C 400.394531 355.742188 400.136719 356.910156 400.054688 357.757812 C 399.910156 359.214844 399.871094 359.300781 399.371094 359.300781 C 399.070312 359.300781 398.582031 359.039062 398.261719 358.707031 C 397.941406 358.382812 397.199219 357.691406 396.609375 357.167969 C 394.792969 355.570312 391.308594 352.144531 389.550781 350.230469 C 388.628906 349.230469 387.457031 347.976562 386.945312 347.441406 C 386.433594 346.910156 385.949219 346.304688 385.875 346.09375 C 385.796875 345.886719 385.585938 345.71875 385.40625 345.71875 C 385.222656 345.71875 385.074219 345.582031 385.074219 345.410156 C 385.074219 345.242188 384.832031 344.816406 384.535156 344.464844 C 384.238281 344.113281 383.996094 343.730469 383.996094 343.617188 C 383.996094 343.503906 383.703125 343.082031 383.347656 342.679688 C 382.207031 341.390625 382.101562 341.242188 381.953125 340.773438 C 381.871094 340.519531 381.570312 340.0625 381.28125 339.75 C 380.996094 339.441406 380.761719 339.070312 380.761719 338.929688 C 380.761719 338.785156 380.570312 338.5 380.339844 338.289062 C 380.109375 338.082031 379.859375 337.632812 379.785156 337.289062 C 379.710938 336.945312 379.476562 336.542969 379.265625 336.394531 C 379.054688 336.246094 378.820312 335.773438 378.738281 335.34375 C 378.660156 334.914062 378.402344 334.339844 378.167969 334.070312 C 377.933594 333.800781 377.738281 333.277344 377.738281 332.910156 C 377.738281 332.542969 377.5 331.757812 377.207031 331.164062 C 376.863281 330.46875 376.671875 329.703125 376.667969 329.007812 C 376.660156 328.3125 376.46875 327.546875 376.128906 326.851562 C 375.699219 325.984375 375.597656 325.4375 375.589844 324.046875 C 375.585938 322.738281 375.480469 322.121094 375.152344 321.511719 C 374.8125 320.882812 374.6875 320.117188 374.589844 318.0625 C 374.496094 316.167969 374.347656 315.183594 374.058594 314.5625 C 373.839844 314.089844 373.59375 313.28125 373.511719 312.765625 C 373.433594 312.253906 373.230469 311.78125 373.066406 311.714844 C 372.898438 311.652344 372.617188 311.320312 372.441406 310.980469 C 372.265625 310.636719 371.988281 310.359375 371.828125 310.359375 C 371.667969 310.359375 371.394531 310.144531 371.21875 309.878906 C 370.945312 309.46875 370.664062 309.386719 369.222656 309.316406 C 367.542969 309.230469 365.878906 309.542969 365.878906 309.941406 C 365.878906 310.058594 365.632812 310.246094 365.335938 310.359375 C 365.042969 310.472656 364.796875 310.660156 364.796875 310.777344 C 364.796875 310.894531 364.53125 311.234375 364.207031 311.539062 C 363.617188 312.085938 363.613281 312.113281 363.636719 314.726562 C 363.65625 316.863281 363.742188 317.570312 364.101562 318.445312 C 364.421875 319.21875 364.578125 320.1875 364.65625 321.894531 C 364.730469 323.585938 364.890625 324.59375 365.210938 325.40625 C 365.695312 326.632812 365.867188 329.980469 365.445312 329.980469 C 365.328125 329.980469 365.230469 329.878906 365.230469 329.757812 C 365.230469 329.484375 363.8125 328.039062 363.546875 328.039062 C 363.441406 328.039062 363.246094 327.796875 363.113281 327.5 C 362.976562 327.203125 362.71875 326.960938 362.539062 326.960938 C 362.359375 326.960938 362.210938 326.835938 362.210938 326.683594 C 362.210938 326.535156 361.941406 326.164062 361.617188 325.863281 C 361.289062 325.5625 360.78125 324.996094 360.484375 324.605469 C 359.746094 323.632812 358.738281 322.410156 358.21875 321.855469 C 357.359375 320.941406 355.945312 319.289062 355.296875 318.445312 C 354.933594 317.96875 354.425781 317.304688 354.164062 316.96875 C 353.902344 316.632812 353.230469 315.882812 352.664062 315.308594 C 352.101562 314.730469 351.640625 314.167969 351.640625 314.058594 C 351.640625 313.949219 351.398438 313.699219 351.101562 313.503906 C 350.804688 313.3125 350.5625 313.042969 350.5625 312.910156 C 350.5625 312.777344 350.363281 312.464844 350.117188 312.214844 C 349.875 311.964844 349.121094 311.078125 348.445312 310.246094 C 347.773438 309.414062 347 308.519531 346.734375 308.253906 C 346.464844 307.988281 346.25 307.675781 346.25 307.554688 C 346.25 307.4375 346.097656 307.339844 345.917969 307.339844 C 345.734375 307.339844 345.523438 307.171875 345.449219 306.964844 C 345.371094 306.753906 345.109375 306.375 344.863281 306.121094 C 344.617188 305.867188 344.203125 305.378906 343.941406 305.042969 C 342.734375 303.476562 340.964844 301.367188 340.503906 300.9375 C 340.222656 300.675781 339.992188 300.359375 339.992188 300.234375 C 339.992188 300.113281 339.859375 300.011719 339.695312 300.011719 C 339.53125 300.011719 339.277344 299.71875 339.128906 299.363281 C 338.984375 299.007812 338.777344 298.714844 338.679688 298.714844 C 338.578125 298.714844 338.339844 298.421875 338.152344 298.058594 C 337.816406 297.402344 337.613281 297.136719 336.625 296.035156 C 336.34375 295.722656 336.109375 295.382812 336.109375 295.285156 C 336.109375 294.84375 334.296875 292.882812 333.773438 292.757812 C 333.457031 292.683594 332.992188 292.4375 332.738281 292.207031 C 332.078125 291.609375 330.226562 291.621094 329.40625 292.226562 C 329.070312 292.476562 328.632812 292.679688 328.441406 292.679688 C 328.09375 292.679688 327.050781 293.660156 326.488281 294.519531 C 325.609375 295.855469 325.816406 300.402344 326.792969 301.3125 C 327.054688 301.554688 327.265625 301.898438 327.265625 302.074219 C 327.265625 302.25 327.402344 302.449219 327.574219 302.511719 C 327.742188 302.578125 328.203125 303.171875 328.597656 303.832031 C 328.992188 304.492188 329.535156 305.25 329.800781 305.511719 C 330.066406 305.773438 330.285156 306.09375 330.285156 306.222656 C 330.285156 306.347656 330.457031 306.582031 330.667969 306.734375 C 330.878906 306.890625 331.234375 307.304688 331.460938 307.660156 C 332.128906 308.707031 332.941406 309.691406 334.4375 311.265625 C 335 311.859375 335.464844 312.425781 335.464844 312.523438 C 335.464844 312.625 335.632812 312.832031 335.84375 312.988281 C 336.054688 313.144531 336.410156 313.558594 336.636719 313.914062 C 336.863281 314.265625 337.394531 314.9375 337.820312 315.40625 C 338.261719 315.894531 338.699219 316.382812 339.128906 316.878906 C 339.425781 317.222656 340.589844 318.464844 341.71875 319.636719 C 343.699219 321.695312 345.96875 324.507812 345.792969 324.683594 C 345.746094 324.730469 343.71875 324.832031 341.285156 324.910156 C 337.441406 325.03125 336.789062 325.105469 336.292969 325.457031 C 335.980469 325.679688 335.46875 325.925781 335.164062 326.003906 C 334.644531 326.132812 334.160156 326.617188 332.929688 328.226562 C 332.273438 329.085938 332.222656 331.792969 332.84375 332.589844 C 333.066406 332.875 333.324219 333.347656 333.414062 333.644531 C 333.632812 334.339844 334.984375 335.691406 335.679688 335.90625 C 335.976562 336 336.433594 336.242188 336.695312 336.449219 C 337.074219 336.742188 337.835938 336.855469 340.257812 336.980469 C 342.179688 337.078125 343.554688 337.253906 343.921875 337.441406 C 344.25 337.613281 345.6875 337.824219 347.21875 337.933594 C 349.308594 338.078125 350.027344 338.207031 350.347656 338.496094 C 350.601562 338.726562 351.304688 338.929688 352.160156 339.019531 C 353.035156 339.109375 353.71875 339.308594 353.984375 339.546875 C 354.21875 339.761719 354.832031 339.984375 355.34375 340.050781 C 355.859375 340.113281 356.472656 340.339844 356.710938 340.554688 C 356.945312 340.765625 357.5 341.007812 357.9375 341.085938 C 358.375 341.167969 358.898438 341.417969 359.101562 341.644531 C 359.304688 341.867188 359.628906 342.054688 359.820312 342.054688 C 360.011719 342.054688 360.527344 342.296875 360.960938 342.59375 C 361.398438 342.886719 361.867188 343.132812 362.007812 343.132812 C 362.144531 343.132812 362.542969 343.375 362.898438 343.671875 C 363.25 343.964844 363.707031 344.210938 363.914062 344.210938 C 364.121094 344.210938 364.5 344.453125 364.757812 344.75 C 365.015625 345.042969 365.363281 345.285156 365.527344 345.285156 C 365.691406 345.285156 365.957031 345.449219 366.121094 345.644531 C 366.28125 345.839844 366.734375 346.132812 367.125 346.296875 C 367.515625 346.460938 367.890625 346.738281 367.957031 346.910156 C 368.027344 347.085938 368.179688 347.226562 368.304688 347.226562 C 368.425781 347.226562 369.132812 347.761719 369.875 348.414062 C 370.621094 349.066406 371.285156 349.597656 371.355469 349.597656 C 371.523438 349.597656 376.015625 354.078125 376.015625 354.246094 C 376.015625 354.421875 379.183594 358.210938 379.789062 358.761719 C 380.046875 359 380.324219 359.363281 380.398438 359.570312 C 380.472656 359.777344 380.625 359.949219 380.742188 359.949219 C 380.859375 359.949219 381.105469 360.261719 381.289062 360.648438 C 381.472656 361.035156 382.054688 361.835938 382.578125 362.425781 C 383.101562 363.019531 383.734375 363.75 383.980469 364.042969 C 384.308594 364.433594 384.636719 364.824219 384.96875 365.207031 C 385.265625 365.550781 385.507812 365.949219 385.507812 366.089844 C 385.507812 366.234375 385.710938 366.535156 385.960938 366.761719 C 386.214844 366.984375 386.5 367.390625 386.605469 367.65625 C 386.707031 367.921875 386.9375 368.140625 387.117188 368.140625 C 387.300781 368.140625 387.449219 368.277344 387.449219 368.449219 C 387.449219 368.617188 387.667969 369.03125 387.941406 369.363281 C 388.210938 369.699219 388.550781 370.242188 388.691406 370.566406 C 388.832031 370.894531 389.035156 371.160156 389.140625 371.160156 C 389.246094 371.160156 389.660156 371.703125 390.0625 372.367188 C 390.460938 373.03125 391.007812 373.820312 391.277344 374.125 C 391.542969 374.425781 391.761719 374.800781 391.761719 374.957031 C 391.761719 375.113281 391.949219 375.339844 392.175781 375.460938 C 392.402344 375.585938 392.648438 375.960938 392.726562 376.304688 C 392.800781 376.644531 393.097656 377.128906 393.390625 377.382812 C 393.679688 377.632812 393.917969 377.972656 393.917969 378.132812 C 393.917969 378.292969 394.105469 378.59375 394.332031 378.796875 C 394.582031 379.023438 394.804688 379.613281 394.898438 380.285156 C 394.980469 380.898438 395.230469 381.761719 395.453125 382.199219 C 395.816406 382.914062 395.859375 383.519531 395.851562 387.699219 C 395.847656 390.28125 395.753906 393.027344 395.644531 393.796875 C 395.53125 394.570312 395.34375 395.878906 395.226562 396.707031 C 395.105469 397.539062 394.945312 400.789062 394.863281 403.933594 C 394.757812 407.996094 394.628906 409.894531 394.410156 410.507812 C 394.238281 410.992188 394.003906 413.023438 393.878906 415.144531 C 393.71875 417.828125 393.558594 419.066406 393.324219 419.4375 C 393.144531 419.726562 392.925781 420.617188 392.835938 421.417969 C 392.730469 422.394531 392.523438 423.070312 392.21875 423.460938 C 391.96875 423.777344 391.761719 424.351562 391.761719 424.734375 C 391.761719 425.175781 391.566406 425.640625 391.222656 426.011719 C 390.925781 426.332031 390.683594 426.824219 390.683594 427.109375 C 390.683594 427.390625 390.492188 427.757812 390.261719 427.917969 C 390.03125 428.082031 389.742188 428.472656 389.621094 428.792969 C 389.5 429.113281 389.292969 429.375 389.167969 429.375 C 389.039062 429.375 388.800781 429.6875 388.636719 430.074219 C 388.34375 430.769531 386.316406 433.039062 385.992188 433.039062 C 385.902344 433.039062 385.566406 433.277344 385.253906 433.570312 C 384.9375 433.859375 384.425781 434.164062 384.117188 434.238281 C 383.808594 434.316406 383.460938 434.550781 383.351562 434.757812 C 383.238281 434.96875 382.785156 435.195312 382.332031 435.265625 C 381.882812 435.339844 381.34375 435.59375 381.140625 435.835938 C 380.933594 436.074219 380.527344 436.273438 380.238281 436.273438 C 379.582031 436.273438 378.554688 436.652344 378.359375 436.964844 C 378.277344 437.09375 377.660156 437.277344 376.984375 437.367188 C 376.214844 437.472656 375.574219 437.703125 375.277344 437.980469 C 375.011719 438.230469 374.511719 438.429688 374.144531 438.429688 C 373.78125 438.429688 373.253906 438.609375 372.96875 438.828125 C 372.6875 439.050781 372.257812 439.292969 372.015625 439.371094 C 371.773438 439.445312 371.191406 439.964844 370.722656 440.527344 C 369.890625 441.523438 369.867188 441.59375 369.867188 443.207031 C 369.867188 444.46875 369.957031 444.960938 370.234375 445.257812 C 371.613281 446.742188 372.214844 447.269531 372.535156 447.269531 C 372.738281 447.269531 373.453125 447.460938 374.128906 447.699219 C 375.574219 448.207031 377.078125 448.238281 378.28125 447.785156 C 378.753906 447.609375 380.089844 447.378906 381.25 447.28125 C 382.589844 447.164062 383.554688 446.96875 383.90625 446.738281 C 384.210938 446.539062 385.125 446.304688 385.941406 446.21875 C 386.804688 446.125 387.589844 445.914062 387.816406 445.710938 C 388.027344 445.523438 388.6875 445.300781 389.28125 445.21875 C 389.875 445.140625 390.601562 444.902344 390.898438 444.695312 C 391.195312 444.492188 391.8125 444.261719 392.273438 444.1875 C 392.734375 444.113281 393.289062 443.890625 393.507812 443.695312 C 393.722656 443.496094 394.363281 443.25 394.921875 443.144531 C 395.484375 443.039062 396.140625 442.773438 396.386719 442.550781 C 396.628906 442.332031 397.195312 442.09375 397.644531 442.027344 C 398.089844 441.960938 398.710938 441.703125 399.019531 441.460938 C 399.332031 441.214844 399.84375 441.015625 400.160156 441.015625 C 400.476562 441.015625 401.058594 440.78125 401.445312 440.492188 C 402.328125 439.839844 403.8125 439.546875 404.078125 439.96875 C 404.183594 440.128906 404.265625 440.570312 404.269531 440.949219 C 404.269531 441.363281 404.429688 441.75 404.660156 441.917969 C 404.875 442.074219 405.175781 442.515625 405.332031 442.898438 C 405.652344 443.683594 407.332031 445.328125 407.816406 445.328125 C 407.992188 445.328125 408.222656 445.484375 408.328125 445.679688 C 408.621094 446.195312 410.527344 446.4375 413.054688 446.28125 C 414.90625 446.164062 415.371094 446.058594 415.953125 445.625 C 416.335938 445.34375 416.835938 445.113281 417.066406 445.113281 C 417.890625 445.113281 419.683594 443.148438 420.386719 441.476562 C 420.691406 440.75 420.695312 440.75 421.8125 440.890625 C 422.425781 440.96875 423.203125 441.230469 423.535156 441.472656 C 423.867188 441.710938 424.5 441.964844 424.9375 442.03125 C 425.375 442.097656 425.933594 442.332031 426.175781 442.550781 C 426.417969 442.769531 426.953125 443.015625 427.363281 443.09375 C 427.773438 443.171875 428.324219 443.40625 428.589844 443.613281 C 428.855469 443.816406 429.4375 444.054688 429.886719 444.136719 C 430.332031 444.21875 430.859375 444.433594 431.058594 444.609375 C 431.257812 444.789062 431.820312 445.027344 432.3125 445.136719 C 432.804688 445.246094 433.464844 445.519531 433.785156 445.742188 C 434.101562 445.964844 434.886719 446.203125 435.523438 446.269531 C 436.164062 446.335938 436.867188 446.558594 437.089844 446.757812 C 437.414062 447.050781 438.15625 447.160156 440.675781 447.296875 C 442.421875 447.390625 444.433594 447.410156 445.140625 447.335938 C 446.269531 447.21875 446.546875 447.089844 447.375 446.3125 C 448.476562 445.269531 448.738281 444.316406 448.550781 442.058594 C 448.460938 440.984375 448.304688 440.480469 447.929688 440.039062 C 447.652344 439.71875 447.371094 439.28125 447.304688 439.070312 C 447.238281 438.863281 446.894531 438.570312 446.542969 438.425781 C 446.191406 438.28125 445.902344 438.089844 445.902344 438.003906 C 445.902344 437.761719 444.859375 437.351562 444.234375 437.351562 C 443.921875 437.351562 443.445312 437.144531 443.179688 436.894531 C 442.878906 436.613281 442.296875 436.394531 441.65625 436.328125 C 441.085938 436.269531 440.421875 436.042969 440.183594 435.824219 C 439.945312 435.609375 439.316406 435.363281 438.78125 435.28125 C 438.25 435.199219 437.59375 434.957031 437.324219 434.75 C 437.050781 434.539062 436.421875 434.296875 435.921875 434.214844 C 435.421875 434.128906 434.894531 433.890625 434.75 433.6875 C 434.605469 433.480469 434.175781 433.25 433.796875 433.171875 C 433.417969 433.097656 432.972656 432.84375 432.804688 432.605469 C 432.640625 432.371094 432.324219 432.175781 432.101562 432.175781 C 431.878906 432.175781 431.410156 431.933594 431.058594 431.636719 C 430.707031 431.339844 430.363281 431.097656 430.292969 431.097656 C 430.054688 431.097656 427.566406 428.554688 427.566406 428.3125 C 427.566406 428.175781 427.417969 428.007812 427.230469 427.9375 C 427.046875 427.867188 426.746094 427.441406 426.566406 426.988281 C 426.386719 426.539062 426.101562 426.121094 425.933594 426.054688 C 425.765625 425.988281 425.625 425.757812 425.625 425.539062 C 425.625 425.324219 425.382812 424.816406 425.085938 424.414062 C 424.789062 424.011719 424.546875 423.425781 424.546875 423.109375 C 424.546875 422.792969 424.347656 422.277344 424.105469 421.96875 C 423.859375 421.65625 423.582031 420.917969 423.488281 420.320312 C 423.394531 419.722656 423.164062 419.066406 422.972656 418.855469 C 422.765625 418.628906 422.570312 417.871094 422.484375 416.972656 C 422.40625 416.144531 422.175781 415.171875 421.96875 414.8125 C 421.746094 414.417969 421.542969 413.421875 421.453125 412.277344 C 421.375 411.242188 421.125 409.835938 420.898438 409.15625 C 420.578125 408.199219 420.457031 407.019531 420.355469 403.933594 C 420.179688 398.539062 420.007812 395.839844 419.757812 394.554688 C 419.640625 393.960938 419.496094 388.558594 419.4375 382.546875 C 419.347656 373.167969 419.378906 371.460938 419.660156 370.476562 C 420.050781 369.125 420.449219 365.714844 420.449219 363.761719 C 420.449219 362.695312 420.546875 362.273438 420.882812 361.890625 C 421.117188 361.617188 421.316406 361.1875 421.320312 360.9375 C 421.339844 359.875 421.59375 358.738281 421.882812 358.410156 C 422.054688 358.21875 422.300781 357.683594 422.425781 357.226562 C 422.550781 356.769531 422.839844 356.164062 423.0625 355.878906 C 423.285156 355.59375 423.46875 355.246094 423.46875 355.097656 C 423.46875 354.953125 423.710938 354.574219 424.007812 354.253906 C 424.304688 353.933594 424.546875 353.496094 424.546875 353.277344 C 424.546875 353.058594 424.789062 352.722656 425.085938 352.53125 C 425.382812 352.335938 425.625 352.039062 425.625 351.871094 C 425.625 351.707031 425.820312 351.507812 426.058594 351.433594 C 426.296875 351.355469 426.488281 351.21875 426.488281 351.125 C 426.488281 350.871094 429.015625 348.304688 429.265625 348.304688 C 429.382812 348.304688 429.542969 348.113281 429.617188 347.875 C 429.691406 347.636719 429.890625 347.441406 430.058594 347.441406 C 430.226562 347.441406 430.519531 347.199219 430.714844 346.902344 C 430.910156 346.609375 431.246094 346.363281 431.457031 346.363281 C 431.671875 346.363281 432.136719 346.121094 432.488281 345.824219 C 432.84375 345.53125 433.222656 345.285156 433.335938 345.285156 C 433.449219 345.285156 433.703125 345.109375 433.902344 344.890625 C 434.097656 344.671875 434.652344 344.375 435.132812 344.230469 C 435.613281 344.085938 436.054688 343.832031 436.117188 343.667969 C 436.183594 343.503906 436.683594 343.304688 437.238281 343.230469 C 437.792969 343.15625 438.535156 342.882812 438.890625 342.625 L 439.539062 342.160156 L 455.871094 342.152344 C 472.046875 342.144531 472.210938 342.140625 472.808594 341.699219 C 473.140625 341.453125 473.628906 341.183594 473.894531 341.097656 C 474.160156 341.015625 474.375 340.871094 474.375 340.777344 C 474.375 340.683594 474.667969 340.304688 475.023438 339.929688 C 475.378906 339.558594 475.667969 339.027344 475.667969 338.746094 C 475.667969 338.46875 475.863281 338.0625 476.101562 337.847656 C 476.667969 337.335938 476.675781 336.039062 476.113281 335.328125 C 475.882812 335.035156 475.628906 334.535156 475.550781 334.214844 C 475.46875 333.894531 475.199219 333.523438 474.953125 333.390625 C 474.703125 333.257812 474.335938 332.945312 474.132812 332.695312 C 473.765625 332.242188 473.730469 332.242188 457.894531 332.183594 C 449.164062 332.152344 442.023438 332.054688 442.023438 331.96875 C 442.035156 331.617188 442.816406 330.894531 443.460938 330.640625 C 443.835938 330.492188 444.195312 330.242188 444.253906 330.085938 C 444.316406 329.933594 444.652344 329.742188 445.003906 329.664062 C 445.355469 329.585938 445.8125 329.335938 446.023438 329.105469 C 446.230469 328.875 446.515625 328.683594 446.652344 328.683594 C 446.792969 328.683594 447.132812 328.441406 447.414062 328.148438 C 447.691406 327.851562 448.101562 327.609375 448.324219 327.609375 C 448.546875 327.609375 448.953125 327.363281 449.226562 327.070312 C 449.5 326.773438 449.871094 326.53125 450.046875 326.53125 C 450.222656 326.53125 450.542969 326.335938 450.757812 326.097656 C 450.96875 325.859375 451.277344 325.667969 451.4375 325.667969 C 451.597656 325.667969 452.035156 325.375 452.40625 325.019531 C 452.78125 324.664062 453.25 324.375 453.449219 324.375 C 453.652344 324.375 453.984375 324.1875 454.191406 323.960938 C 454.394531 323.734375 454.796875 323.492188 455.078125 323.421875 C 455.363281 323.347656 455.699219 323.097656 455.828125 322.863281 C 455.953125 322.625 456.234375 322.433594 456.449219 322.433594 C 456.667969 322.433594 457.117188 322.21875 457.453125 321.957031 C 458.101562 321.445312 458.957031 320.9375 460.078125 320.398438 C 460.457031 320.210938 460.875 319.867188 461 319.628906 C 461.128906 319.394531 461.433594 319.199219 461.675781 319.199219 C 462.113281 319.199219 462.894531 318.695312 463.941406 317.742188 C 464.234375 317.476562 464.65625 317.257812 464.878906 317.257812 C 465.101562 317.257812 465.570312 317.015625 465.921875 316.71875 C 466.277344 316.421875 466.714844 316.179688 466.894531 316.179688 C 467.074219 316.179688 467.511719 315.9375 467.863281 315.640625 C 468.21875 315.34375 468.703125 315.101562 468.945312 315.101562 C 469.183594 315.101562 469.667969 314.859375 470.023438 314.5625 C 470.40625 314.242188 470.933594 314.023438 471.332031 314.023438 C 471.71875 314.023438 472.1875 313.839844 472.4375 313.589844 C 472.695312 313.332031 473.292969 313.101562 473.894531 313.027344 C 474.457031 312.957031 475.167969 312.726562 475.472656 312.511719 C 475.78125 312.296875 476.511719 312.050781 477.09375 311.964844 C 477.675781 311.878906 478.488281 311.636719 478.90625 311.425781 C 479.320312 311.210938 480.613281 310.933594 481.777344 310.804688 C 482.941406 310.675781 484.1875 310.417969 484.550781 310.230469 C 485.390625 309.796875 489.449219 309.925781 491.1875 310.441406 C 491.835938 310.632812 493.4375 310.84375 494.746094 310.914062 C 496.285156 310.996094 497.476562 311.179688 498.101562 311.433594 C 498.714844 311.679688 499.988281 311.878906 501.554688 311.976562 C 503.03125 312.070312 504.289062 312.261719 504.660156 312.453125 C 505.617188 312.945312 512.359375 313.226562 519.558594 313.074219 C 525.03125 312.957031 525.902344 312.890625 526.566406 312.546875 C 527.046875 312.296875 528.070312 312.097656 529.328125 312 C 530.640625 311.902344 531.5625 311.714844 532.023438 311.453125 C 532.40625 311.234375 533.246094 311 533.890625 310.929688 C 534.625 310.847656 535.226562 310.640625 535.519531 310.367188 C 535.777344 310.125 536.144531 309.929688 536.339844 309.929688 C 536.789062 309.929688 537.792969 309.476562 537.792969 309.273438 C 537.792969 309.1875 538.082031 308.996094 538.4375 308.851562 C 538.796875 308.703125 539.085938 308.464844 539.085938 308.320312 C 539.085938 308.175781 539.328125 307.945312 539.625 307.8125 C 539.921875 307.675781 540.164062 307.453125 540.164062 307.316406 C 540.164062 307.179688 540.40625 306.84375 540.703125 306.566406 C 541.1875 306.121094 541.242188 305.898438 541.242188 304.46875 C 541.242188 303.023438 541.183594 302.792969 540.59375 302.035156 C 539.34375 300.421875 539.117188 300.230469 537.871094 299.765625 C 536.542969 299.269531 535.472656 299.203125 534.773438 299.578125 C 534.539062 299.703125 533.660156 299.890625 532.816406 299.996094 C 531.960938 300.105469 531.117188 300.339844 530.90625 300.535156 C 530.652344 300.761719 529.84375 300.941406 528.542969 301.0625 C 527.09375 301.195312 526.445312 301.355469 526.117188 301.652344 C 525.691406 302.035156 525.21875 302.058594 517.546875 302.035156 C 510.453125 302.011719 509.304688 301.964844 508.457031 301.640625 C 507.902344 301.433594 506.351562 301.191406 504.847656 301.082031 C 503.082031 300.953125 502.039062 300.777344 501.691406 300.546875 C 501.355469 300.328125 500.308594 300.136719 498.785156 300.011719 C 497.210938 299.886719 496.214844 299.699219 495.855469 299.464844 C 495.558594 299.269531 494.703125 299.0625 493.957031 299.003906 C 493.210938 298.945312 492.476562 298.859375 492.324219 298.808594 C 491.894531 298.675781 492.382812 297.921875 493.160156 297.519531 C 493.519531 297.335938 494.242188 296.75 494.761719 296.222656 C 495.28125 295.699219 495.808594 295.265625 495.929688 295.265625 C 496.054688 295.265625 496.277344 295.074219 496.425781 294.835938 C 496.574219 294.597656 496.816406 294.40625 496.960938 294.40625 C 497.105469 294.40625 497.542969 294.128906 497.933594 293.792969 C 498.324219 293.457031 498.8125 293.121094 499.019531 293.046875 C 499.226562 292.96875 499.398438 292.820312 499.398438 292.714844 C 499.398438 292.605469 499.945312 292.191406 500.617188 291.789062 C 501.285156 291.390625 502.050781 290.84375 502.3125 290.578125 C 502.574219 290.308594 502.894531 290.09375 503.023438 290.09375 C 503.148438 290.09375 503.398438 289.886719 503.574219 289.632812 C 503.753906 289.382812 504.082031 289.066406 504.304688 288.933594 C 506.3125 287.746094 507.3125 286.878906 511.125 283.035156 C 514.496094 279.640625 515.601562 278.40625 516.636719 276.886719 C 517.058594 276.261719 517.582031 275.558594 517.792969 275.320312 C 518.605469 274.414062 519.1875 273.578125 519.335938 273.105469 C 519.421875 272.835938 519.703125 272.386719 519.960938 272.109375 C 521.003906 270.988281 521.398438 270.414062 521.398438 270.035156 C 521.398438 269.8125 521.542969 269.550781 521.722656 269.449219 C 522.152344 269.210938 523.554688 267.023438 523.554688 266.597656 C 523.554688 266.414062 523.746094 266.144531 523.976562 266 C 524.207031 265.855469 524.464844 265.375 524.546875 264.925781 C 524.628906 264.476562 524.828125 263.921875 524.988281 263.6875 C 525.375 263.125 525.363281 261.820312 524.964844 261.296875 C 524.789062 261.066406 524.644531 260.707031 524.640625 260.5 C 524.632812 260.019531 523.503906 258.824219 522.261719 257.984375 C 521.40625 257.40625 521.109375 257.328125 519.742188 257.324219 C 518.554688 257.320312 518.105469 257.40625 517.816406 257.695312 C 517.609375 257.902344 517.128906 258.21875 516.75 258.398438 C 515.902344 258.796875 514.792969 260.054688 514.59375 260.835938 C 514.515625 261.15625 514.367188 261.417969 514.269531 261.417969 C 514.011719 261.417969 512.554688 263.660156 512.554688 264.054688 C 512.554688 264.238281 512.3125 264.542969 512.015625 264.738281 C 511.71875 264.933594 511.476562 265.277344 511.476562 265.5 C 511.476562 265.726562 511.257812 266.1875 510.992188 266.523438 C 510.722656 266.859375 510.382812 267.328125 510.234375 267.5625 C 508.945312 269.589844 508.617188 270.015625 507.324219 271.34375 C 506.761719 271.921875 506.300781 272.488281 506.300781 272.605469 C 506.300781 272.71875 506.109375 272.875 505.878906 272.949219 C 505.648438 273.019531 505.398438 273.265625 505.328125 273.492188 C 505.257812 273.714844 505.015625 273.957031 504.789062 274.03125 C 504.5625 274.101562 504.320312 274.34375 504.25 274.570312 C 504.179688 274.792969 503.9375 275.035156 503.710938 275.109375 C 503.484375 275.179688 503.242188 275.425781 503.167969 275.65625 C 503.09375 275.890625 502.90625 276.078125 502.75 276.078125 C 502.59375 276.078125 502.308594 276.320312 502.113281 276.617188 C 501.917969 276.914062 501.621094 277.15625 501.449219 277.15625 C 501.277344 277.15625 501.035156 277.351562 500.90625 277.585938 C 500.78125 277.824219 500.550781 278.019531 500.398438 278.019531 C 500.246094 278.019531 499.789062 278.304688 499.382812 278.652344 C 498.9375 279.03125 498.492188 279.40625 498.046875 279.78125 C 497.71875 280.058594 497.265625 280.464844 497.035156 280.6875 C 496.804688 280.910156 496.4375 281.203125 496.214844 281.335938 C 495.996094 281.46875 495.492188 281.769531 495.09375 282.007812 C 494.699219 282.246094 494.175781 282.65625 493.933594 282.921875 C 493.691406 283.191406 493.371094 283.410156 493.222656 283.410156 C 493.074219 283.410156 492.824219 283.589844 492.667969 283.808594 C 492.511719 284.027344 492.144531 284.285156 491.847656 284.378906 C 491.550781 284.46875 491.035156 284.773438 490.699219 285.054688 C 490.363281 285.335938 490.003906 285.566406 489.902344 285.566406 C 489.800781 285.566406 489.65625 285.757812 489.582031 285.996094 C 489.507812 286.234375 489.265625 286.425781 489.046875 286.425781 C 488.824219 286.425781 488.355469 286.667969 488.003906 286.964844 C 487.652344 287.261719 487.273438 287.503906 487.164062 287.503906 C 487.054688 287.503906 486.753906 287.746094 486.496094 288.042969 C 486.238281 288.339844 485.917969 288.582031 485.785156 288.582031 C 485.652344 288.582031 485.257812 288.824219 484.90625 289.121094 C 484.554688 289.417969 484.128906 289.660156 483.964844 289.660156 C 483.800781 289.660156 483.558594 289.859375 483.429688 290.097656 C 483.304688 290.339844 483.097656 290.472656 482.976562 290.398438 C 482.660156 290.203125 482.972656 287.324219 483.371094 286.710938 C 483.566406 286.417969 483.765625 285.320312 483.875 283.964844 C 483.992188 282.503906 484.179688 281.519531 484.40625 281.171875 C 484.617188 280.851562 484.832031 279.847656 484.941406 278.699219 C 485.046875 277.558594 485.265625 276.546875 485.472656 276.230469 C 485.691406 275.902344 485.890625 274.921875 485.996094 273.671875 C 486.101562 272.421875 486.300781 271.441406 486.515625 271.109375 C 486.726562 270.792969 486.929688 269.839844 487.019531 268.746094 C 487.113281 267.605469 487.328125 266.605469 487.59375 266.097656 C 487.914062 265.476562 488.023438 264.808594 488.042969 263.289062 C 488.070312 261.464844 488.023438 261.230469 487.53125 260.597656 C 486.4375 259.183594 485.6875 258.453125 485.160156 258.296875 C 484.863281 258.207031 484.441406 257.972656 484.222656 257.78125 C 483.597656 257.230469 481.292969 257.324219 480.523438 257.929688 C 480.195312 258.1875 479.707031 258.398438 479.441406 258.398438 C 478.835938 258.398438 477.222656 259.972656 477.039062 260.746094 C 476.964844 261.054688 476.757812 261.480469 476.578125 261.6875 C 476.359375 261.9375 476.1875 262.824219 476.070312 264.328125 C 475.960938 265.722656 475.753906 266.863281 475.53125 267.292969 C 475.28125 267.769531 475.117188 268.824219 475.011719 270.578125 C 474.90625 272.363281 474.742188 273.390625 474.484375 273.882812 C 474.226562 274.378906 474.078125 275.320312 474 276.902344 C 473.917969 278.640625 473.789062 279.371094 473.480469 279.886719 C 473.238281 280.285156 473.015625 281.179688 472.9375 282.042969 C 472.867188 282.851562 472.636719 283.808594 472.425781 284.164062 C 472.214844 284.519531 471.96875 285.390625 471.882812 286.101562 C 471.792969 286.816406 471.585938 287.496094 471.410156 287.625 C 471.242188 287.75 471.011719 288.324219 470.902344 288.902344 C 470.796875 289.480469 470.554688 290.121094 470.363281 290.328125 C 470.175781 290.539062 469.933594 291.105469 469.824219 291.585938 C 469.714844 292.070312 469.433594 292.660156 469.195312 292.894531 C 468.960938 293.132812 468.765625 293.507812 468.765625 293.726562 C 468.765625 293.945312 468.523438 294.386719 468.226562 294.707031 C 467.929688 295.027344 467.6875 295.378906 467.6875 295.484375 C 467.6875 295.851562 465.265625 298.414062 463.511719 299.90625 C 461.566406 301.558594 460.933594 302.113281 460.441406 302.589844 C 460.191406 302.832031 459.882812 303.027344 459.757812 303.027344 C 459.558594 303.027344 457.78125 304.386719 456.078125 305.835938 C 455.800781 306.070312 455.453125 306.261719 455.304688 306.261719 C 455.15625 306.261719 454.808594 306.503906 454.53125 306.800781 C 454.253906 307.097656 453.898438 307.339844 453.75 307.339844 C 453.597656 307.339844 453.394531 307.480469 453.300781 307.648438 C 453.078125 308.046875 451.820312 308.953125 450.917969 309.367188 C 450.53125 309.546875 450.214844 309.785156 450.214844 309.90625 C 450.214844 310.023438 449.992188 310.246094 449.71875 310.402344 C 448.433594 311.128906 447.746094 311.582031 447.253906 312.023438 C 446.957031 312.285156 446.535156 312.558594 446.308594 312.628906 C 446.085938 312.703125 445.902344 312.898438 445.902344 313.070312 C 445.902344 313.238281 445.777344 313.378906 445.625 313.378906 C 445.242188 313.378906 443.050781 314.8125 442.828125 315.207031 C 442.726562 315.386719 442.527344 315.535156 442.378906 315.535156 C 442.003906 315.535156 439.8125 316.972656 439.589844 317.363281 C 439.492188 317.542969 439.246094 317.691406 439.042969 317.691406 C 438.839844 317.691406 438.394531 317.933594 438.050781 318.230469 C 437.703125 318.523438 437.296875 318.769531 437.144531 318.769531 C 436.992188 318.769531 436.742188 318.949219 436.585938 319.167969 C 436.429688 319.386719 436.0625 319.644531 435.765625 319.738281 C 435.46875 319.828125 434.960938 320.109375 434.636719 320.359375 C 433.101562 321.546875 432.8125 321.730469 432.265625 321.863281 C 431.941406 321.941406 431.574219 322.199219 431.449219 322.4375 C 431.324219 322.671875 431.054688 322.867188 430.851562 322.867188 C 430.476562 322.871094 428.957031 323.800781 428.035156 324.589844 C 427.757812 324.828125 427.351562 325.019531 427.128906 325.019531 C 426.910156 325.019531 426.601562 325.203125 426.445312 325.425781 C 426.289062 325.652344 425.820312 325.996094 425.40625 326.191406 C 423.863281 326.921875 423.199219 327.328125 423.015625 327.652344 C 422.914062 327.839844 422.480469 328.054688 422.058594 328.132812 C 421.636719 328.214844 421.238281 328.414062 421.171875 328.582031 C 421.109375 328.75 420.867188 328.945312 420.636719 329.015625 C 420.40625 329.089844 420.046875 329.335938 419.839844 329.558594 C 419.628906 329.785156 419.21875 329.996094 418.929688 330.027344 L 418.402344 330.085938 L 418.335938 326.421875 C 418.277344 323.164062 418.585938 313.8125 418.835938 311.222656 C 418.890625 310.6875 418.988281 309.667969 419.058594 308.957031 C 419.132812 308.246094 419.269531 302.570312 419.371094 296.34375 C 419.480469 289.554688 419.648438 284.679688 419.789062 284.164062 C 419.914062 283.6875 420.125 281.3125 420.253906 278.878906 C 420.445312 275.234375 420.554688 274.363281 420.875 273.914062 C 421.085938 273.609375 421.328125 272.859375 421.414062 272.246094 C 421.5 271.628906 421.742188 270.90625 421.953125 270.636719 C 422.164062 270.367188 422.402344 269.84375 422.484375 269.46875 C 422.566406 269.097656 422.820312 268.621094 423.050781 268.414062 C 423.28125 268.203125 423.46875 267.921875 423.46875 267.785156 C 423.46875 267.648438 423.710938 267.207031 424.007812 266.808594 C 424.304688 266.40625 424.546875 265.90625 424.546875 265.703125 C 424.546875 265.496094 424.726562 265.269531 424.945312 265.199219 C 425.167969 265.128906 425.460938 264.855469 425.597656 264.59375 C 425.734375 264.328125 426.144531 263.722656 426.503906 263.25 C 426.867188 262.773438 427.355469 262.082031 427.589844 261.707031 C 427.824219 261.332031 428.160156 260.96875 428.332031 260.902344 C 428.503906 260.835938 428.648438 260.683594 428.648438 260.558594 C 428.648438 260.4375 429.351562 259.628906 430.210938 258.761719 C 433.25 255.699219 438.617188 249.996094 439.539062 248.84375 C 439.894531 248.398438 440.648438 247.566406 441.210938 246.992188 C 441.773438 246.417969 442.234375 245.847656 442.234375 245.71875 C 442.234375 245.589844 442.429688 245.351562 442.667969 245.183594 C 443.269531 244.761719 443.585938 242.925781 443.410156 240.851562 L 443.265625 239.152344 L 441.890625 237.777344 C 440.722656 236.609375 440.40625 236.40625 439.757812 236.40625 C 439.335938 236.40625 438.808594 236.289062 438.578125 236.148438 C 438.261719 235.949219 437.917969 235.945312 437.125 236.132812 C 436.597656 236.257812 436.066406 236.375 435.539062 236.492188 C 435.023438 236.601562 433.0625 238.390625 431.925781 239.789062 C 430.746094 241.238281 430.15625 242.089844 430.15625 242.351562 C 430.15625 242.503906 429.960938 242.691406 429.726562 242.765625 C 429.488281 242.84375 429.292969 243.003906 429.292969 243.125 C 429.292969 243.25 429.027344 243.613281 428.699219 243.933594 C 427.839844 244.78125 426.511719 246.273438 425.519531 247.5 C 424.257812 249.0625 424.171875 249.167969 423.464844 249.941406 C 423.113281 250.332031 422.824219 250.746094 422.824219 250.859375 C 422.824219 250.972656 422.675781 251.066406 422.492188 251.066406 C 422.308594 251.066406 422.101562 251.226562 422.023438 251.425781 C 421.949219 251.621094 421.035156 252.632812 419.996094 253.675781 C 418.953125 254.722656 417.996094 255.773438 417.867188 256.015625 C 417.519531 256.664062 417.371094 256.574219 416.832031 255.394531 C 416.488281 254.648438 416.292969 253.671875 416.167969 252.101562 C 416.0625 250.730469 415.867188 249.667969 415.660156 249.339844 C 415.449219 249.003906 415.273438 248.015625 415.183594 246.679688 C 415.105469 245.460938 414.894531 244.222656 414.691406 243.769531 C 414.492188 243.328125 414.277344 242.089844 414.203125 240.953125 C 414.085938 239.183594 414.007812 238.886719 413.589844 238.609375 C 413.332031 238.4375 413.117188 238.179688 413.117188 238.035156 C 413.117188 237.742188 411.671875 236.40625 411.351562 236.40625 C 411.230469 236.40625 410.96875 236.203125 410.765625 235.949219 C 410.449219 235.558594 410.125 235.484375 408.46875 235.425781 C 407.40625 235.390625 406.292969 235.410156 405.996094 235.472656 M 440.347656 383.457031 C 440.082031 383.5625 439.863281 383.742188 439.863281 383.851562 C 439.863281 383.964844 439.550781 384.164062 439.171875 384.292969 C 438.441406 384.546875 437.492188 385.324219 437.492188 385.664062 C 437.492188 385.777344 437.234375 386.167969 436.921875 386.539062 C 436.394531 387.171875 436.363281 387.3125 436.476562 388.804688 C 436.566406 390.003906 436.707031 390.515625 437.042969 390.871094 C 437.289062 391.132812 437.492188 391.4375 437.496094 391.546875 C 437.5 391.824219 438.675781 393.59375 439.210938 394.128906 C 439.449219 394.371094 439.648438 394.652344 439.648438 394.753906 C 439.648438 395.046875 441.160156 397.246094 441.363281 397.246094 C 441.464844 397.246094 441.648438 397.539062 441.773438 397.894531 C 441.894531 398.25 442.097656 398.542969 442.222656 398.542969 C 442.34375 398.542969 442.578125 398.855469 442.742188 399.242188 C 442.90625 399.628906 443.671875 400.585938 444.441406 401.375 C 445.207031 402.160156 445.898438 402.960938 445.972656 403.152344 C 446.042969 403.34375 446.238281 403.5 446.402344 403.5 C 446.5625 403.5 446.808594 403.742188 446.941406 404.039062 C 447.078125 404.335938 447.328125 404.578125 447.5 404.578125 C 447.671875 404.578125 447.875 404.769531 447.949219 405 C 448.023438 405.230469 448.265625 405.476562 448.492188 405.546875 C 448.714844 405.621094 448.960938 405.863281 449.03125 406.085938 C 449.101562 406.3125 449.355469 406.558594 449.59375 406.632812 C 450.242188 406.839844 449.960938 407.265625 449.121094 407.34375 C 448.714844 407.382812 448.207031 407.574219 447.988281 407.769531 C 447.664062 408.0625 446.882812 408.144531 443.429688 408.238281 C 440.003906 408.332031 439.1875 408.414062 438.859375 408.703125 C 438.640625 408.894531 438.117188 409.113281 437.695312 409.1875 C 436.902344 409.332031 435.332031 410.769531 435.332031 411.359375 C 435.332031 411.523438 435.164062 411.953125 434.957031 412.3125 C 434.628906 412.882812 434.621094 413.054688 434.871094 413.675781 C 435.027344 414.066406 435.257812 414.75 435.378906 415.1875 C 435.519531 415.703125 436.003906 416.375 436.746094 417.074219 L 437.894531 418.160156 L 442.0625 418.15625 C 444.351562 418.152344 446.855469 418.0625 447.628906 417.957031 C 448.398438 417.851562 449.808594 417.648438 450.757812 417.511719 C 451.707031 417.371094 454.015625 417.242188 455.894531 417.222656 C 458.871094 417.195312 459.332031 417.238281 459.507812 417.550781 C 459.617188 417.746094 460.097656 417.972656 460.574219 418.054688 C 461.074219 418.140625 461.527344 418.363281 461.648438 418.589844 C 461.761719 418.804688 462.125 419.085938 462.453125 419.21875 C 463.207031 419.523438 464.503906 420.464844 464.734375 420.871094 C 464.828125 421.042969 465.019531 421.179688 465.15625 421.179688 C 465.296875 421.179688 465.605469 421.375 465.847656 421.617188 C 466.535156 422.300781 467.941406 423.335938 468.179688 423.335938 C 468.300781 423.335938 468.601562 423.539062 468.851562 423.785156 C 469.617188 424.539062 470.96875 425.492188 471.269531 425.492188 C 471.425781 425.492188 471.660156 425.6875 471.785156 425.921875 C 471.914062 426.160156 472.160156 426.355469 472.335938 426.355469 C 472.511719 426.355469 472.863281 426.597656 473.121094 426.894531 C 473.378906 427.191406 473.710938 427.433594 473.859375 427.433594 C 474.007812 427.433594 474.414062 427.675781 474.765625 427.972656 C 475.121094 428.269531 475.511719 428.511719 475.632812 428.511719 C 475.757812 428.511719 475.988281 428.691406 476.144531 428.910156 C 476.398438 429.273438 476.691406 429.46875 478.4375 430.453125 C 478.753906 430.628906 479.207031 430.949219 479.445312 431.164062 C 480.320312 431.957031 481.5625 432.824219 481.824219 432.824219 C 481.972656 432.824219 482.152344 432.96875 482.21875 433.148438 C 482.289062 433.328125 482.589844 433.570312 482.890625 433.683594 C 483.191406 433.796875 483.433594 433.988281 483.433594 434.105469 C 483.433594 434.222656 483.742188 434.480469 484.117188 434.671875 C 484.488281 434.867188 484.992188 435.207031 485.234375 435.433594 C 485.476562 435.65625 485.765625 435.839844 485.878906 435.839844 C 485.988281 435.839844 486.304688 436.058594 486.574219 436.328125 C 487.414062 437.152344 488.300781 437.75 488.90625 437.902344 C 489.226562 437.980469 489.578125 438.21875 489.691406 438.429688 C 489.800781 438.636719 490.164062 438.878906 490.492188 438.960938 C 490.824219 439.042969 491.253906 439.253906 491.453125 439.433594 C 491.652344 439.613281 492.234375 439.855469 492.746094 439.96875 C 493.257812 440.085938 493.855469 440.34375 494.078125 440.542969 C 494.648438 441.0625 501.164062 441.195312 501.984375 440.703125 C 502.28125 440.527344 502.914062 440.195312 503.386719 439.960938 C 504.503906 439.417969 505.609375 438.34375 505.789062 437.632812 C 505.867188 437.324219 506.109375 436.890625 506.332031 436.671875 C 506.675781 436.328125 506.730469 435.917969 506.730469 433.714844 C 506.730469 431.507812 506.671875 431.082031 506.3125 430.625 C 506.082031 430.332031 505.824219 429.808594 505.742188 429.464844 C 505.65625 429.117188 505.292969 428.496094 504.933594 428.078125 C 504.214844 427.25 502.449219 425.921875 502.070312 425.921875 C 501.9375 425.921875 501.566406 425.71875 501.246094 425.464844 C 500.925781 425.214844 500.269531 424.921875 499.785156 424.8125 C 499.300781 424.703125 498.664062 424.421875 498.367188 424.191406 C 498.070312 423.957031 497.515625 423.765625 497.136719 423.765625 C 496.726562 423.765625 496.289062 423.597656 496.066406 423.351562 C 495.859375 423.125 495.289062 422.871094 494.792969 422.789062 C 494.300781 422.710938 493.703125 422.46875 493.464844 422.257812 C 493.226562 422.046875 492.628906 421.808594 492.136719 421.726562 C 491.640625 421.644531 491.070312 421.394531 490.863281 421.164062 C 490.65625 420.9375 490.230469 420.75 489.914062 420.75 C 489.601562 420.75 489.015625 420.507812 488.613281 420.210938 C 488.210938 419.914062 487.722656 419.671875 487.535156 419.671875 C 487.34375 419.671875 486.855469 419.429688 486.453125 419.132812 C 486.050781 418.835938 485.5625 418.59375 485.367188 418.59375 C 485.171875 418.59375 484.839844 418.40625 484.632812 418.175781 C 484.421875 417.945312 483.949219 417.6875 483.574219 417.605469 C 483.199219 417.523438 482.773438 417.285156 482.625 417.070312 C 482.476562 416.859375 482.039062 416.617188 481.65625 416.53125 C 481.269531 416.449219 480.832031 416.207031 480.683594 415.992188 C 480.535156 415.78125 480.132812 415.546875 479.789062 415.472656 C 479.445312 415.394531 478.996094 415.144531 478.785156 414.914062 C 478.578125 414.683594 478.289062 414.496094 478.148438 414.496094 C 478.007812 414.496094 477.628906 414.253906 477.308594 413.957031 C 476.988281 413.660156 476.554688 413.417969 476.34375 413.417969 C 476.132812 413.417969 475.753906 413.175781 475.496094 412.878906 C 475.238281 412.582031 474.894531 412.339844 474.734375 412.339844 C 474.574219 412.339844 474.269531 412.148438 474.058594 411.914062 C 473.84375 411.679688 473.484375 411.429688 473.257812 411.359375 C 472.804688 411.214844 472.546875 410.996094 470.546875 409.074219 C 469.804688 408.359375 469.199219 407.660156 469.199219 407.519531 C 469.199219 407.378906 469.015625 407.105469 468.796875 406.917969 C 468.320312 406.511719 468.015625 404.550781 468.226562 403.292969 C 468.304688 402.839844 468.601562 402.144531 468.890625 401.753906 C 469.179688 401.363281 469.414062 400.917969 469.414062 400.761719 C 469.414062 400.609375 469.542969 400.480469 469.699219 400.480469 C 469.855469 400.480469 470.195312 400.238281 470.453125 399.941406 C 470.710938 399.648438 471.117188 399.402344 471.355469 399.402344 C 471.59375 399.402344 471.984375 399.207031 472.226562 398.964844 C 472.464844 398.726562 472.976562 398.46875 473.359375 398.398438 C 473.738281 398.328125 474.253906 398.085938 474.5 397.863281 C 474.785156 397.605469 475.507812 397.390625 476.539062 397.261719 C 477.417969 397.152344 478.234375 396.929688 478.359375 396.769531 C 478.480469 396.605469 478.957031 396.332031 479.417969 396.160156 C 479.933594 395.96875 480.394531 395.597656 480.609375 395.199219 C 480.804688 394.84375 481.152344 394.273438 481.382812 393.929688 C 481.707031 393.441406 481.792969 392.964844 481.769531 391.714844 C 481.742188 390.347656 481.65625 390.019531 481.179688 389.425781 C 480.078125 388.058594 479.292969 387.332031 478.914062 387.332031 C 478.699219 387.332031 478.179688 387.183594 477.753906 387.007812 C 476.820312 386.617188 475.636719 386.585938 475.28125 386.941406 C 475.140625 387.082031 474.398438 387.265625 473.640625 387.34375 C 472.71875 387.4375 472.058594 387.640625 471.667969 387.945312 C 471.34375 388.199219 470.871094 388.40625 470.613281 388.40625 C 470.355469 388.40625 469.816406 388.652344 469.414062 388.945312 C 469.011719 389.242188 468.570312 389.484375 468.429688 389.484375 C 468.292969 389.484375 467.9375 389.675781 467.648438 389.902344 C 467.355469 390.132812 466.855469 390.386719 466.535156 390.46875 C 466.214844 390.546875 465.828125 390.789062 465.679688 391.003906 C 465.527344 391.21875 465.152344 391.460938 464.839844 391.539062 C 464.53125 391.613281 464.058594 391.914062 463.789062 392.199219 C 463.519531 392.484375 463.167969 392.71875 463.007812 392.71875 C 462.84375 392.71875 462.65625 392.871094 462.585938 393.054688 C 462.515625 393.242188 462.078125 393.542969 461.621094 393.726562 C 461.160156 393.910156 460.785156 394.140625 460.785156 394.234375 C 460.785156 394.332031 460.277344 394.574219 459.652344 394.777344 C 459.03125 394.980469 458.4375 395.222656 458.335938 395.316406 C 458.230469 395.410156 457.714844 395.300781 457.183594 395.074219 C 456.652344 394.847656 456.121094 394.660156 456 394.660156 C 455.878906 394.660156 455.492188 394.417969 455.136719 394.121094 C 454.785156 393.824219 454.367188 393.582031 454.207031 393.582031 C 454.042969 393.582031 453.851562 393.386719 453.777344 393.152344 C 453.699219 392.914062 453.558594 392.71875 453.464844 392.71875 C 453.367188 392.71875 451.40625 390.851562 449.105469 388.570312 C 446.808594 386.289062 444.683594 384.292969 444.390625 384.140625 C 444.09375 383.988281 443.609375 383.722656 443.3125 383.550781 C 442.714844 383.207031 441.101562 383.152344 440.347656 383.457031 " fill-opacity="1" fill-rule="evenodd"/></svg>