<svg xmlns="http://www.w3.org/2000/svg" xmlns:xlink="http://www.w3.org/1999/xlink" width="1140" zoomAndPan="magnify" viewBox="324.691406 215.082031 210.39062500000006 239.35937499999997" height="892" preserveAspectRatio="xMidYMid meet" version="1.0"><path fill="#229c30" d="M 423.722656 228.851562 C 416.78125 236.101562 413.8125 245.046875 413.816406 258.671875 C 413.820312 269.441406 414.296875 271.914062 417.554688 278.109375 C 419.605469 282.015625 421.914062 285.601562 422.683594 286.074219 C 423.566406 286.621094 424.074219 298.382812 424.0625 318.046875 L 424.046875 349.15625 L 420.542969 343.027344 C 415.613281 334.40625 406.207031 323.726562 398.089844 317.53125 C 393.761719 314.234375 391.175781 311.214844 391.175781 309.460938 C 391.175781 307.917969 389.421875 302.949219 387.277344 298.417969 C 380.886719 284.90625 368.464844 276.097656 353.945312 274.78125 C 344.652344 273.9375 343.71875 274.992188 345.175781 284.699219 C 347.21875 298.335938 360.316406 310.585938 378.613281 315.96875 C 388.027344 318.738281 389.75 319.859375 400.109375 329.957031 C 409.28125 338.890625 412.421875 343.097656 417 352.585938 C 421.628906 362.175781 426.433594 378.632812 424.605469 378.632812 C 424.347656 378.632812 422.898438 376.210938 421.386719 373.25 C 419.878906 370.289062 410.152344 358.847656 399.773438 347.828125 C 378.636719 325.371094 372.300781 321.195312 357.628906 320.03125 C 348.164062 319.28125 337.949219 321.5625 336.746094 324.703125 C 334.691406 330.058594 347.21875 344.351562 358.957031 350.042969 C 366.5 353.699219 368.320312 354.015625 380.832031 353.8125 L 394.484375 353.59375 L 402.394531 360.695312 C 417.644531 374.386719 424.078125 393.640625 424.078125 425.554688 L 424.078125 437.585938 L 391.175781 437.585938 L 391.175781 444.441406 L 465.207031 444.441406 L 465.207031 437.585938 L 430.933594 437.585938 L 430.933594 422.449219 C 430.933594 395.234375 437.925781 374.09375 451.183594 361.207031 C 461.269531 351.402344 462.511719 350.839844 469.898438 352.699219 C 479.875 355.210938 496.128906 353.703125 504.28125 349.503906 C 514.671875 344.152344 525.082031 331.910156 523.265625 327.175781 C 522.007812 323.890625 514.007812 321.734375 503.59375 321.878906 C 495.28125 321.992188 491.59375 322.804688 484.332031 326.125 C 469.648438 332.835938 439.832031 360.261719 434.296875 372.148438 C 431.558594 378.035156 430.957031 378.667969 430.949219 375.671875 C 430.941406 373.667969 434.125 365.648438 438.023438 357.851562 C 443.96875 345.960938 446.933594 341.871094 456.394531 332.503906 C 466.425781 322.574219 468.488281 321.167969 475.007812 319.792969 C 488.808594 316.882812 495.261719 314.027344 502.261719 307.734375 C 513.554688 297.578125 519.625 281.976562 513.535156 278.742188 C 510.714844 277.246094 497.207031 279.09375 490.769531 281.855469 C 479.121094 286.859375 469.148438 298.332031 465.058594 311.453125 C 464.089844 314.558594 461.128906 318.191406 456.671875 321.738281 C 448.453125 328.28125 442.417969 335.410156 435.8125 346.378906 L 430.933594 354.480469 L 430.933594 287.84375 L 436.042969 277.507812 C 444.34375 260.714844 443.890625 242.992188 434.839844 230.5 C 432.683594 227.519531 430.109375 225.082031 429.125 225.082031 C 428.140625 225.082031 425.710938 226.777344 423.722656 228.851562 M 426.316406 237.636719 C 419.601562 247.882812 418.304688 261.15625 422.957031 271.96875 L 425.949219 278.921875 L 428.429688 275.855469 C 431.597656 271.941406 435.046875 260.375 435.046875 253.652344 C 435.046875 248.761719 431.792969 238.171875 429.484375 235.558594 C 428.914062 234.914062 427.488281 235.847656 426.316406 237.636719 M 378.972656 243.109375 C 378.144531 245.484375 377.464844 251.628906 377.464844 256.765625 C 377.464844 270.6875 381.148438 279.128906 392 290.085938 C 396.917969 295.054688 401.726562 299.113281 402.691406 299.113281 C 408 299.113281 411.046875 274.710938 407.046875 264.234375 C 403.886719 255.957031 397.753906 247.828125 390.964844 242.910156 C 383.648438 237.609375 380.875 237.652344 378.972656 243.109375 M 468.375 242.75 C 456.214844 251.566406 448.734375 266.074219 448.875 280.605469 C 448.984375 292.085938 451.367188 299.648438 455.042969 300.1875 C 458.652344 300.714844 474.980469 284.625 478.761719 276.8125 C 482.582031 268.925781 483.714844 255.277344 481.292969 246.332031 C 478.996094 237.855469 476.207031 237.082031 468.375 242.75 M 384.476562 256.597656 C 384.269531 262.292969 384.988281 266.597656 386.824219 270.648438 C 389.972656 277.613281 399.109375 288.488281 400.886719 287.390625 C 403.234375 285.941406 402.199219 271.261719 399.296875 264.839844 C 396.765625 259.238281 387.757812 248.386719 385.640625 248.386719 C 385.160156 248.386719 384.636719 252.082031 384.476562 256.597656 M 467.609375 253.292969 C 458.746094 262.421875 454.652344 273.996094 456.316406 285.234375 L 457.203125 291.230469 L 462.695312 285.917969 C 472.3125 276.617188 475.671875 267.382812 474.976562 252.15625 C 474.75 247.183594 473.335938 247.402344 467.609375 253.292969 M 353.132812 286.039062 C 356.164062 295.925781 368.449219 306.3125 380.550781 309.226562 C 385.136719 310.332031 385.144531 310.242188 380.980469 302.03125 C 375.957031 292.109375 366.09375 284.234375 355.976562 282.054688 L 351.621094 281.121094 Z M 500.167969 286.691406 C 489.789062 289.230469 482.808594 294.523438 475.683594 305.261719 C 471.042969 312.257812 471.125 312.925781 476.519531 311.949219 C 488.0625 309.859375 499.339844 302.378906 505.160156 292.945312 C 509.609375 285.734375 508.707031 284.601562 500.167969 286.691406 M 345.933594 328.585938 C 345.933594 330.601562 356.785156 340.828125 361.441406 343.207031 C 367.515625 346.304688 387.0625 348.484375 387.0625 346.066406 C 387.0625 343.308594 371.820312 330.734375 366.785156 329.332031 C 361.625 327.902344 345.933594 327.339844 345.933594 328.585938 M 489.097656 332.097656 C 485.269531 333.570312 479.445312 337.082031 476.152344 339.898438 L 470.164062 345.023438 L 475.570312 345.984375 C 484.597656 347.585938 489.453125 347.222656 497.046875 344.382812 C 503.765625 341.867188 514.5625 333.304688 514.5625 330.492188 C 514.5625 328.183594 496.277344 329.335938 489.097656 332.097656 " fill-opacity="1" fill-rule="evenodd"/></svg>