<svg xmlns="http://www.w3.org/2000/svg" xmlns:xlink="http://www.w3.org/1999/xlink" width="1140" zoomAndPan="magnify" viewBox="325.425781 215.039062 210.79296900000003 255.273438" height="892" preserveAspectRatio="xMidYMid meet" version="1.0"><path fill="#229c30" d="M 407.503906 231.074219 C 392.589844 234.308594 377.789062 244.925781 372.324219 256.304688 C 370.316406 260.492188 369.101562 261.570312 364.003906 263.683594 C 351.113281 269.035156 340.925781 280.664062 337.265625 294.207031 C 335.886719 299.296875 335.511719 303.882812 335.828125 311.6875 C 336.199219 320.800781 336.730469 323.269531 339.660156 329.523438 C 343.488281 337.6875 352.03125 347.390625 359.003906 351.480469 C 365.429688 355.253906 375.589844 358.234375 382.019531 358.234375 C 386.953125 358.234375 387.898438 358.660156 392.503906 362.972656 C 398.195312 368.300781 407.171875 373.265625 411.125 373.265625 C 413.726562 373.265625 413.75 373.367188 414.109375 385.039062 C 414.402344 394.542969 414.839844 397.179688 416.371094 398.710938 C 417.839844 400.179688 418.683594 400.34375 420.125 399.4375 C 421.625 398.492188 422.082031 396.144531 422.515625 387.140625 L 423.050781 376.007812 L 428.09375 374.136719 C 430.867188 373.109375 435.816406 370.753906 439.085938 368.90625 C 443.667969 366.316406 445.035156 364.960938 445.035156 363.015625 C 445.035156 358.335938 441.953125 358.054688 434.765625 362.078125 C 431.15625 364.097656 426.925781 365.75 425.363281 365.75 L 422.515625 365.75 L 422.554688 354.742188 C 422.578125 348.179688 423.117188 342.796875 423.894531 341.40625 C 424.609375 340.121094 431.351562 332.554688 438.867188 324.585938 C 446.386719 316.621094 452.542969 309.351562 452.542969 308.4375 C 452.542969 307.523438 451.527344 306.230469 450.285156 305.566406 C 447.730469 304.195312 447.507812 304.363281 432.433594 318.996094 C 427.570312 323.722656 423.578125 327.113281 423.5625 326.535156 C 423.054688 305.945312 422.039062 289.753906 421.195312 288.714844 C 419.542969 286.675781 416.296875 287.109375 415 289.539062 C 414.261719 290.921875 413.953125 298.324219 414.15625 309.941406 C 414.332031 319.96875 414.179688 328.171875 413.816406 328.171875 C 413.457031 328.171875 408.707031 323.339844 403.265625 317.433594 C 393.625 306.96875 391.058594 305.339844 388.414062 307.984375 C 385.113281 311.292969 386.984375 314.421875 400.449219 328.078125 L 413.769531 341.589844 L 414.121094 353.671875 C 414.34375 361.253906 414.074219 365.742188 413.402344 365.726562 C 408.292969 365.609375 395.027344 355.625 394.433594 351.457031 C 394.121094 349.265625 393.375 349.066406 383.375 348.511719 C 370.527344 347.796875 363.347656 344.957031 356.132812 337.734375 C 335.425781 317 343.296875 279.964844 370.253906 271.296875 C 375.316406 269.667969 376.1875 268.910156 379.085938 263.574219 C 388.089844 247.007812 402.304688 238.570312 420.90625 238.753906 C 441.148438 238.953125 455.566406 249.71875 462.160156 269.558594 C 464.785156 277.460938 465.492188 278.226562 471.101562 279.238281 C 479.140625 280.691406 487.929688 291.574219 487.929688 300.082031 C 487.929688 305.039062 489.996094 307.21875 493.796875 306.261719 C 497.324219 305.375 498.210938 301.550781 496.574219 294.242188 C 494.390625 284.464844 484.894531 273.769531 476.035156 271.109375 C 472.601562 270.078125 471.953125 269.292969 470.359375 264.242188 C 462.535156 239.378906 435.351562 225.039062 407.503906 231.074219 M 472.0625 313.859375 C 464.019531 317.828125 456.023438 330.421875 453.5625 343.003906 C 452.304688 349.421875 452.65625 364.0625 454.28125 372.925781 C 454.882812 376.210938 454.730469 376.390625 450.238281 377.574219 C 439.332031 380.457031 435.632812 384.21875 422.125 406.179688 C 415.023438 417.71875 410.746094 426.578125 410.730469 429.757812 C 410.71875 432.722656 406.910156 433.363281 389.171875 433.378906 C 377.386719 433.390625 375.4375 433.644531 373.867188 435.382812 C 371.839844 437.621094 372.484375 440.5625 375.164062 441.339844 C 378.753906 442.375 427.359375 442.441406 429.128906 441.410156 C 432.007812 439.730469 437.28125 432.542969 444.074219 421.042969 C 451.519531 408.433594 458.957031 399.738281 461.816406 400.289062 C 462.890625 400.496094 464.929688 402.765625 466.34375 405.332031 L 468.910156 409.996094 L 467.824219 429.421875 C 467.167969 441.1875 467.125 449.945312 467.714844 451.640625 C 470.734375 460.3125 486.359375 459.921875 490.554688 451.070312 C 492.578125 446.800781 494.753906 427.445312 494.839844 412.988281 C 494.894531 403.507812 494.652344 402.320312 491.414062 396.125 C 489.496094 392.457031 487.929688 389.273438 487.929688 389.046875 C 487.929688 388.824219 490.640625 387.988281 493.957031 387.191406 C 511.929688 382.875 525.429688 367.726562 525.832031 351.425781 C 526.21875 335.785156 522.265625 334.402344 508.449219 345.332031 C 505.386719 347.757812 498.914062 352.449219 494.0625 355.757812 L 485.246094 361.777344 L 484.566406 354.90625 C 484.195312 351.125 483.828125 341.027344 483.75 332.464844 C 483.574219 313.078125 483.335938 312.058594 478.957031 312.089844 C 477.109375 312.101562 474.007812 312.898438 472.0625 313.855469 M 470.332031 326.335938 C 462.121094 337.117188 459.371094 351.828125 462.46875 368.433594 C 463.347656 373.15625 463.839844 379.679688 463.566406 382.925781 C 463.074219 388.679688 463.207031 389.027344 468.65625 396.347656 C 477.585938 408.335938 477.660156 408.660156 476.121094 428.007812 C 474.511719 448.257812 474.679688 449.925781 478.367188 450.355469 C 479.910156 450.535156 481.753906 449.9375 482.515625 449.015625 C 483.308594 448.058594 484.703125 439.644531 485.808594 429.148438 C 488.03125 407.996094 487.605469 404.507812 481.742188 395.90625 L 477.78125 390.101562 L 476.480469 370.140625 C 475.769531 359.164062 475.15625 344.019531 475.121094 336.492188 C 475.085938 328.613281 474.628906 322.800781 474.042969 322.800781 C 473.484375 322.800781 471.8125 324.390625 470.332031 326.335938 M 509.375 354.648438 C 505.539062 357.914062 498.664062 362.777344 494.09375 365.457031 L 485.78125 370.332031 L 485.78125 381.046875 L 489.269531 380.371094 C 498.726562 378.527344 511.582031 369.671875 515.328125 362.421875 C 517.257812 358.683594 518.707031 348.535156 517.296875 348.640625 C 516.773438 348.683594 513.207031 351.386719 509.375 354.648438 M 466.550781 380.054688 C 466 381.507812 465.808594 383.683594 466.121094 384.886719 C 467.238281 389.15625 472.457031 388.890625 473.554688 384.503906 C 474.621094 380.261719 473.648438 378.121094 470.492188 377.757812 C 468.195312 377.492188 467.335938 377.992188 466.550781 380.054688 M 446.820312 387.097656 C 445.144531 388.199219 442.445312 390.734375 440.816406 392.726562 C 435.511719 399.210938 418.226562 427.703125 418.226562 429.960938 C 418.226562 432.78125 421.257812 435.839844 423.277344 435.0625 C 424.136719 434.734375 425.011719 434.464844 425.230469 434.464844 C 426.050781 434.464844 435.199219 420.746094 439.039062 413.753906 C 441.238281 409.746094 445.902344 403.402344 449.398438 399.660156 C 454.742188 393.941406 455.757812 392.230469 455.757812 388.964844 C 455.757812 385.433594 455.484375 385.074219 452.808594 385.082031 C 451.1875 385.085938 448.492188 385.992188 446.820312 387.097656 " fill-opacity="1" fill-rule="evenodd"/></svg>