<svg xmlns="http://www.w3.org/2000/svg" xmlns:xlink="http://www.w3.org/1999/xlink" width="1140" zoomAndPan="magnify" viewBox="319.5625 209.355469 218.24609399999997 230.71093699999997" height="892" preserveAspectRatio="xMidYMid meet" version="1.0"><path fill="#229c30" d="M 403.625 220.304688 C 397.164062 221.914062 392.570312 225.90625 390.804688 231.453125 C 389.804688 234.589844 389.742188 234.613281 380.453125 235.136719 C 371.785156 235.625 371.011719 235.855469 369.785156 238.296875 C 369.023438 239.808594 368.453125 244.863281 368.445312 250.183594 C 368.429688 258.699219 368.640625 259.65625 371.089844 262.109375 L 373.75 264.773438 L 409.175781 264.046875 C 433.273438 263.550781 445.003906 262.933594 445.859375 262.121094 C 446.648438 261.371094 447.210938 256.832031 447.355469 249.976562 C 447.65625 236.128906 446.832031 235.136719 435.042969 235.136719 L 427.292969 235.136719 L 425.664062 231.230469 C 423.722656 226.578125 421.386719 223.828125 417.8125 221.996094 C 414.230469 220.164062 407.445312 219.355469 403.625 220.304688 M 403.367188 227.800781 C 400.351562 229.015625 396.804688 234.820312 396.800781 238.558594 C 396.796875 241.804688 397.390625 241.664062 384.402344 241.457031 L 375.6875 241.320312 L 376 249.015625 L 376.308594 256.714844 L 397.320312 257.042969 C 408.878906 257.222656 423.125 257.0625 428.976562 256.6875 L 439.621094 256.003906 L 440.167969 251.148438 C 440.46875 248.480469 440.277344 245.152344 439.75 243.757812 C 438.816406 241.296875 438.5 241.226562 429.636719 241.597656 L 420.488281 241.980469 L 419.871094 238.296875 C 418.988281 233.0625 417.160156 230.136719 413.628906 228.304688 C 410.210938 226.539062 406.910156 226.375 403.367188 227.800781 M 337.128906 238.414062 C 335.027344 239.03125 332.871094 240.75 331.617188 242.808594 C 329.621094 246.09375 329.5625 248.636719 329.570312 331.445312 C 329.582031 397.019531 329.882812 417.285156 330.882812 419.230469 C 332.714844 422.804688 336.832031 425.59375 341.355469 426.332031 C 343.484375 426.675781 367.730469 426.609375 395.234375 426.175781 L 445.242188 425.394531 L 444.921875 422.101562 L 444.601562 418.804688 L 392.253906 418.804688 C 341.648438 418.804688 339.851562 418.734375 338.40625 416.761719 C 337.140625 415.035156 336.910156 401.898438 336.921875 331.507812 C 336.933594 285.738281 337.34375 247.652344 337.839844 246.871094 C 338.460938 245.886719 342.195312 245.273438 349.960938 244.875 L 361.183594 244.300781 L 360.867188 241.035156 L 360.546875 237.769531 L 350.566406 237.582031 C 345.078125 237.480469 339.03125 237.855469 337.128906 238.414062 M 455.78125 240.546875 C 454.09375 245.09375 455.179688 245.664062 465.527344 245.664062 C 480.128906 245.664062 479.171875 243.746094 479.800781 274.257812 L 480.324219 299.867188 L 486.628906 299.867188 L 486.945312 275.660156 C 487.28125 249.582031 486.742188 245.511719 482.375 241.402344 C 479.910156 239.085938 478.601562 238.8125 468.183594 238.457031 C 456.917969 238.070312 456.683594 238.109375 455.78125 240.546875 M 376.453125 298.207031 L 367.75 306.71875 L 365.199219 303.984375 C 361.484375 300.003906 359.132812 298.949219 357.328125 300.449219 C 356.5 301.140625 355.828125 302.476562 355.832031 303.417969 C 355.847656 305.398438 365.925781 316.183594 367.761719 316.183594 C 368.4375 316.183594 373.636719 311.515625 379.308594 305.808594 C 387.480469 297.59375 389.554688 294.910156 389.269531 292.925781 C 388.589844 288.105469 385.472656 289.386719 376.453125 298.207031 M 403.820312 294.761719 C 403.421875 295.160156 403.101562 296.824219 403.101562 298.464844 L 403.101562 301.445312 L 427.824219 301.445312 C 449.746094 301.445312 452.621094 301.253906 453.207031 299.726562 C 453.570312 298.777344 453.386719 297.238281 452.796875 296.304688 C 451.875 294.835938 448.507812 294.566406 428.132812 294.324219 C 415.15625 294.167969 404.214844 294.367188 403.820312 294.761719 M 466.289062 314.015625 C 456.226562 317.75 449.511719 323.890625 443.777344 334.601562 C 440.589844 340.566406 440.398438 341.535156 440.398438 351.96875 C 440.398438 361.703125 440.726562 363.710938 443.140625 368.808594 C 444.648438 371.992188 447.839844 376.800781 450.234375 379.496094 L 454.582031 384.394531 L 454.582031 404.949219 C 454.582031 430.066406 453.96875 429.382812 469.03125 420.953125 C 474.765625 417.746094 479.761719 415.121094 480.140625 415.121094 C 480.519531 415.121094 485.484375 417.726562 491.171875 420.910156 C 496.863281 424.09375 502.445312 426.699219 503.582031 426.699219 C 507.859375 426.699219 508.167969 425.097656 508.167969 402.777344 L 508.167969 381.378906 L 512.367188 376.054688 C 527.808594 356.484375 520.554688 326.433594 497.738281 315.445312 C 489.699219 311.574219 474.710938 310.894531 466.289062 314.015625 M 467.8125 321.949219 C 460.195312 325.082031 454.339844 330.640625 450.589844 338.285156 C 448.21875 343.128906 447.757812 345.449219 447.773438 352.496094 C 447.789062 359.535156 448.25 361.785156 450.574219 366.226562 C 456.882812 378.292969 467.21875 384.605469 480.625 384.585938 C 503.773438 384.554688 520.023438 358.71875 509.917969 338.023438 C 502.265625 322.355469 483.871094 315.335938 467.8125 321.949219 M 376.472656 338.832031 C 372.519531 343.164062 368.890625 346.707031 368.414062 346.707031 C 367.929688 346.707031 366.089844 345.484375 364.320312 343.996094 C 360.527344 340.796875 357.535156 341 357.042969 344.484375 C 356.785156 346.308594 358.035156 348.34375 361.730469 352.101562 C 364.503906 354.925781 367.339844 357.230469 368.03125 357.230469 C 368.726562 357.230469 373.847656 352.394531 379.410156 346.484375 C 390.058594 335.179688 391.625 331.695312 386.289062 331.203125 C 384.21875 331.011719 382.136719 332.628906 376.472656 338.832031 M 416.496094 335.949219 L 403.101562 336.242188 L 403.101562 339.257812 C 403.101562 341.035156 403.78125 342.53125 404.761719 342.910156 C 405.675781 343.261719 411.832031 343.546875 418.441406 343.546875 C 430.292969 343.546875 430.480469 343.511719 431.675781 340.878906 C 433.753906 336.316406 431.597656 335.617188 416.496094 335.949219 M 490.710938 339.378906 C 484.726562 342.347656 477.910156 348.402344 474.507812 353.777344 L 471.644531 358.296875 L 469.917969 355.660156 C 466.808594 350.902344 460.292969 353.234375 462.925781 358.164062 C 465.019531 362.089844 473.375 368.691406 477.144531 369.398438 C 487.03125 371.257812 498.105469 360.085938 500.355469 345.988281 C 500.921875 342.433594 500.652344 341.285156 498.828125 339.453125 C 496.109375 336.730469 496.046875 336.730469 490.710938 339.378906 M 485.234375 352.410156 C 478.640625 358.707031 477.554688 360.757812 480.257812 361.796875 C 482.402344 362.621094 486.699219 358.90625 489.871094 353.484375 C 494.234375 346.027344 492.363281 345.59375 485.234375 352.410156 M 377.347656 375.277344 L 373.585938 378.585938 L 370.585938 375.703125 C 364.753906 370.105469 360.84375 374.496094 365.832031 381.046875 L 368.664062 384.761719 L 365.917969 387.632812 C 362.925781 390.761719 362.480469 392.953125 364.433594 394.910156 C 366.257812 396.734375 366.886719 396.542969 371.070312 392.863281 L 374.835938 389.550781 L 378.496094 393.101562 C 381.460938 395.980469 382.492188 396.433594 383.957031 395.511719 C 386.984375 393.601562 386.667969 390.878906 382.972656 387.042969 L 379.460938 383.398438 L 382.347656 381.277344 C 385.394531 379.042969 386.136719 375.390625 383.976562 373.230469 C 382.15625 371.40625 381.527344 371.601562 377.347656 375.277344 M 404.761719 378.613281 C 403.722656 379.375 403.046875 380.914062 403.261719 382.035156 C 403.625 383.929688 404.652344 384.070312 417.808594 384.070312 C 430.597656 384.070312 432 383.890625 432.328125 382.179688 C 433.121094 378.0625 430.773438 377.230469 418.40625 377.230469 C 410.347656 377.230469 406.058594 377.664062 404.761719 378.613281 M 493.792969 389.957031 C 485.289062 393.875 475.046875 393.621094 463.550781 389.203125 C 462.152344 388.664062 461.9375 390.347656 461.9375 401.851562 C 461.9375 409.148438 462.34375 415.121094 462.84375 415.121094 C 463.339844 415.121094 467.1875 413.226562 471.394531 410.910156 C 475.597656 408.59375 479.601562 406.699219 480.289062 406.699219 C 480.980469 406.699219 485.273438 408.832031 489.839844 411.4375 C 494.402344 414.042969 498.5 416.171875 498.949219 416.171875 C 499.394531 416.171875 499.761719 409.777344 499.761719 401.964844 C 499.761719 394.148438 499.40625 387.792969 498.972656 387.84375 C 498.539062 387.894531 496.207031 388.84375 493.792969 389.957031 " fill-opacity="1" fill-rule="evenodd"/></svg>