<svg xmlns="http://www.w3.org/2000/svg" xmlns:xlink="http://www.w3.org/1999/xlink" width="1140" zoomAndPan="magnify" viewBox="378.070312 219.546875 102.296876 232.82421900000003" height="892" preserveAspectRatio="xMidYMid meet" version="1.0"><path fill="#229c30" d="M 390.882812 231.519531 C 388.335938 233.308594 388.070312 234.550781 388.070312 244.792969 C 388.070312 255.457031 388.25 256.214844 391.242188 258.175781 C 392.984375 259.320312 395.460938 262.640625 396.75 265.554688 C 401.085938 275.371094 411.84375 284.859375 421.355469 287.25 L 424.746094 288.105469 L 424.746094 357.515625 L 407.925781 357.515625 C 396.53125 357.515625 390.617188 358.007812 389.589844 359.035156 C 388.519531 360.105469 388.070312 367.328125 388.074219 383.425781 C 388.074219 405.953125 388.128906 406.410156 391.683594 413.898438 C 397.875 426.949219 413.46875 438.894531 426.683594 440.707031 C 438.792969 442.371094 458.933594 428.089844 466.664062 412.359375 C 469.394531 406.804688 469.679688 404.398438 470.0625 383.746094 C 470.367188 367.480469 470.058594 360.679688 468.960938 359.355469 C 467.761719 357.910156 463.679688 357.515625 449.886719 357.515625 L 432.335938 357.515625 L 432.335938 322.671875 C 432.335938 290.339844 432.496094 287.828125 434.550781 287.816406 C 438.648438 287.792969 449.628906 281.824219 454.445312 276.996094 C 457.074219 274.363281 460.574219 269.253906 462.226562 265.640625 C 463.878906 262.027344 466.363281 258.042969 467.753906 256.78125 C 469.863281 254.867188 470.277344 252.878906 470.277344 244.648438 C 470.277344 235.515625 470.035156 234.605469 466.945312 232.171875 C 463.753906 229.660156 462.105469 229.546875 428.652344 229.546875 C 399.058594 229.546875 393.261719 229.847656 390.882812 231.519531 M 395.660156 244.75 L 395.660156 251.085938 L 461.421875 251.085938 L 461.421875 238.414062 L 395.660156 238.414062 Z M 403.246094 259.484375 C 403.246094 259.84375 404.742188 262.6875 406.566406 265.808594 C 415.308594 280.753906 433.328125 284.042969 446.167969 273.03125 C 451.042969 268.851562 455.101562 262.96875 455.101562 260.082031 C 455.101562 259.28125 445.605469 258.820312 429.175781 258.824219 C 414.914062 258.832031 403.246094 259.128906 403.246094 259.484375 M 395.6875 385.074219 C 395.710938 400.613281 396.113281 404.644531 398.089844 409.003906 C 402.910156 419.632812 415.113281 429.945312 425.734375 432.355469 C 434.902344 434.433594 450.347656 424.335938 457.738281 411.421875 C 461.335938 405.140625 461.398438 404.691406 461.414062 385.707031 L 461.421875 366.382812 L 432.335938 366.382812 L 432.335938 382.066406 C 432.335938 398.382812 431.230469 401.898438 426.660156 400.140625 C 425.089844 399.539062 424.746094 396.464844 424.746094 382.894531 L 424.746094 366.382812 L 395.660156 366.382812 Z M 395.6875 385.074219 " fill-opacity="1" fill-rule="evenodd"/></svg>