<svg xmlns="http://www.w3.org/2000/svg" xmlns:xlink="http://www.w3.org/1999/xlink" width="1140" zoomAndPan="magnify" viewBox="295.542969 206.808594 270.2148429999999 249.07031199999997" height="892" preserveAspectRatio="xMidYMid meet" version="1.0"><path fill="#229c30" d="M 392.933594 220.148438 C 390.628906 222.527344 390.722656 235.664062 393.109375 244.492188 C 396.109375 255.601562 398.929688 261.253906 404.609375 267.542969 C 411.417969 275.074219 420.859375 279.800781 435.113281 282.8125 C 446.375 285.191406 446.523438 285.28125 449.644531 291.394531 C 452.101562 296.21875 452.792969 299.941406 452.792969 308.355469 L 452.792969 319.132812 L 447.226562 320.074219 C 440.382812 321.230469 433.535156 325.695312 429.558594 331.59375 L 426.558594 336.046875 L 423.480469 332.773438 C 421.792969 330.976562 416.230469 327.382812 411.121094 324.792969 C 402.242188 320.285156 401.160156 320.078125 386.359375 320.078125 C 372.589844 320.078125 370.019531 320.484375 363.070312 323.738281 C 355.625 327.230469 338.257812 341.375 315.722656 362.300781 C 307.214844 370.203125 305.542969 372.445312 306.324219 374.910156 C 306.847656 376.558594 308.257812 378.285156 309.457031 378.742188 C 311.878906 379.671875 313.121094 378.679688 341.476562 353.171875 C 364.625 332.34375 369.242188 329.910156 385.582031 329.890625 C 401.511719 329.871094 410.480469 333.96875 423.542969 347.234375 L 432.96875 356.808594 L 448.832031 357.503906 C 467.046875 358.296875 469.597656 359.039062 469.597656 363.519531 C 469.597656 367.582031 463.898438 372.199219 457.363281 373.421875 C 452.769531 374.285156 413.765625 371.832031 407.136719 370.265625 C 404.308594 369.59375 399.585938 372.789062 399.585938 375.367188 C 399.585938 379.082031 404.539062 380.613281 421.515625 382.15625 C 457.417969 385.414062 468.042969 383.777344 475.289062 373.878906 C 477.164062 371.316406 487.203125 360.625 497.601562 350.121094 C 518.441406 329.066406 523.046875 326.253906 531.90625 329.175781 C 537.316406 330.960938 539.148438 334.917969 537.585938 341.425781 C 536.980469 343.933594 525.109375 356.757812 503.476562 378.265625 C 464.738281 416.789062 460.421875 419.746094 445.027344 418.308594 C 440.058594 417.84375 421.402344 414.207031 403.570312 410.222656 C 374.304688 403.6875 370.824219 403.175781 367.847656 404.980469 C 360.757812 409.277344 330.976562 437.335938 330.976562 439.714844 C 330.976562 442.507812 334.359375 445.878906 336.417969 445.136719 C 337.15625 444.871094 345.308594 437.882812 354.542969 429.609375 C 363.773438 421.332031 372.527344 414.558594 373.996094 414.558594 C 375.460938 414.558594 389.539062 417.503906 405.277344 421.101562 C 428.566406 426.425781 436.496094 427.660156 447.894531 427.75 C 460.898438 427.851562 462.394531 427.566406 468.898438 423.804688 C 477.898438 418.585938 541.632812 355.621094 545.546875 348.074219 C 555.757812 328.390625 537.183594 311.199219 516.058594 320.78125 C 512.734375 322.289062 506.039062 327.339844 501.179688 332.007812 L 492.34375 340.488281 L 489.464844 335.605469 C 485.792969 329.386719 477.085938 323.070312 469.109375 320.835938 L 462.886719 319.09375 L 462.71875 306.503906 C 462.625 299.578125 461.964844 292.820312 461.253906 291.492188 C 460.101562 289.335938 461.230469 288.902344 471.542969 287.523438 C 500.113281 283.699219 515.496094 273.582031 521.902344 254.390625 C 524.894531 245.425781 524.984375 230.785156 522.0625 228.359375 C 519.34375 226.105469 498.660156 227.386719 488.378906 230.445312 C 470.316406 235.824219 457.421875 253.8125 456.804688 274.492188 C 456.667969 279.035156 456.296875 277.648438 455.519531 269.6875 C 453.292969 246.878906 443.761719 232.539062 424.984375 223.753906 C 414.558594 218.878906 396.164062 216.808594 392.933594 220.148438 M 401.410156 235.28125 C 402.390625 243.550781 408.011719 256.832031 412.617188 261.769531 C 414.308594 263.582031 417.929688 266.210938 420.671875 267.617188 C 425.253906 269.964844 440.792969 274.585938 444.109375 274.585938 C 446.238281 274.585938 444.511719 259.449219 441.621094 252.765625 C 436.640625 241.238281 421.640625 230.84375 407.109375 228.851562 L 400.542969 227.953125 Z M 496.628906 238.902344 C 481.445312 242.199219 471.386719 251.9375 468.300781 266.3125 C 465.769531 278.109375 465.636719 277.90625 475.363281 276.890625 C 493.648438 274.980469 508.03125 264.726562 512.226562 250.621094 C 515.664062 239.046875 515.269531 236.773438 509.851562 236.90625 C 507.351562 236.964844 501.398438 237.863281 496.628906 238.902344 M 446.832031 331.175781 C 440.035156 333.601562 437.925781 335.425781 436.203125 340.371094 C 435.191406 343.269531 435.261719 344.777344 436.445312 345.734375 C 437.351562 346.46875 444.722656 347.304688 452.824219 347.59375 C 465.136719 348.035156 468.464844 348.65625 473.078125 351.375 L 478.601562 354.632812 L 481.097656 351.546875 C 484.339844 347.550781 484.25 345.222656 480.675781 340.203125 C 474.136719 331.019531 458.761719 326.921875 446.832031 331.175781 " fill-opacity="1" fill-rule="evenodd"/></svg>